%TF.GenerationSoftware,KiCad,Pcbnew,10.0.4*%
%TF.CreationDate,2026-09-20T08:38:35+05:30*%
%TF.ProjectId,CAR RX,43415220-5258-42e6-9b69-6361645f7063,rev?*%
%TF.SameCoordinates,Original*%
%TF.FileFunction,Legend,Top*%
%TF.FilePolarity,Positive*%
%FSLAX46Y46*%
G04 Gerber Fmt 4.6, Leading zero omitted, Abs format (unit mm)*
G04 Created by KiCad (PCBNEW 10.0.4) date 2026-09-20 08:38:35*
%MOMM*%
%LPD*%
G01*
G04 APERTURE LIST*
%ADD10C,0.150000*%
%ADD11C,0.120000*%
%ADD12C,0.127000*%
%ADD13C,0.100000*%
G04 APERTURE END LIST*
D10*
X85743333Y-56614819D02*
X85410000Y-56138628D01*
X85171905Y-56614819D02*
X85171905Y-55614819D01*
X85171905Y-55614819D02*
X85552857Y-55614819D01*
X85552857Y-55614819D02*
X85648095Y-55662438D01*
X85648095Y-55662438D02*
X85695714Y-55710057D01*
X85695714Y-55710057D02*
X85743333Y-55805295D01*
X85743333Y-55805295D02*
X85743333Y-55948152D01*
X85743333Y-55948152D02*
X85695714Y-56043390D01*
X85695714Y-56043390D02*
X85648095Y-56091009D01*
X85648095Y-56091009D02*
X85552857Y-56138628D01*
X85552857Y-56138628D02*
X85171905Y-56138628D01*
X86314762Y-56043390D02*
X86219524Y-55995771D01*
X86219524Y-55995771D02*
X86171905Y-55948152D01*
X86171905Y-55948152D02*
X86124286Y-55852914D01*
X86124286Y-55852914D02*
X86124286Y-55805295D01*
X86124286Y-55805295D02*
X86171905Y-55710057D01*
X86171905Y-55710057D02*
X86219524Y-55662438D01*
X86219524Y-55662438D02*
X86314762Y-55614819D01*
X86314762Y-55614819D02*
X86505238Y-55614819D01*
X86505238Y-55614819D02*
X86600476Y-55662438D01*
X86600476Y-55662438D02*
X86648095Y-55710057D01*
X86648095Y-55710057D02*
X86695714Y-55805295D01*
X86695714Y-55805295D02*
X86695714Y-55852914D01*
X86695714Y-55852914D02*
X86648095Y-55948152D01*
X86648095Y-55948152D02*
X86600476Y-55995771D01*
X86600476Y-55995771D02*
X86505238Y-56043390D01*
X86505238Y-56043390D02*
X86314762Y-56043390D01*
X86314762Y-56043390D02*
X86219524Y-56091009D01*
X86219524Y-56091009D02*
X86171905Y-56138628D01*
X86171905Y-56138628D02*
X86124286Y-56233866D01*
X86124286Y-56233866D02*
X86124286Y-56424342D01*
X86124286Y-56424342D02*
X86171905Y-56519580D01*
X86171905Y-56519580D02*
X86219524Y-56567200D01*
X86219524Y-56567200D02*
X86314762Y-56614819D01*
X86314762Y-56614819D02*
X86505238Y-56614819D01*
X86505238Y-56614819D02*
X86600476Y-56567200D01*
X86600476Y-56567200D02*
X86648095Y-56519580D01*
X86648095Y-56519580D02*
X86695714Y-56424342D01*
X86695714Y-56424342D02*
X86695714Y-56233866D01*
X86695714Y-56233866D02*
X86648095Y-56138628D01*
X86648095Y-56138628D02*
X86600476Y-56091009D01*
X86600476Y-56091009D02*
X86505238Y-56043390D01*
X80027142Y-82959580D02*
X79979523Y-83007200D01*
X79979523Y-83007200D02*
X79836666Y-83054819D01*
X79836666Y-83054819D02*
X79741428Y-83054819D01*
X79741428Y-83054819D02*
X79598571Y-83007200D01*
X79598571Y-83007200D02*
X79503333Y-82911961D01*
X79503333Y-82911961D02*
X79455714Y-82816723D01*
X79455714Y-82816723D02*
X79408095Y-82626247D01*
X79408095Y-82626247D02*
X79408095Y-82483390D01*
X79408095Y-82483390D02*
X79455714Y-82292914D01*
X79455714Y-82292914D02*
X79503333Y-82197676D01*
X79503333Y-82197676D02*
X79598571Y-82102438D01*
X79598571Y-82102438D02*
X79741428Y-82054819D01*
X79741428Y-82054819D02*
X79836666Y-82054819D01*
X79836666Y-82054819D02*
X79979523Y-82102438D01*
X79979523Y-82102438D02*
X80027142Y-82150057D01*
X80360476Y-82054819D02*
X80979523Y-82054819D01*
X80979523Y-82054819D02*
X80646190Y-82435771D01*
X80646190Y-82435771D02*
X80789047Y-82435771D01*
X80789047Y-82435771D02*
X80884285Y-82483390D01*
X80884285Y-82483390D02*
X80931904Y-82531009D01*
X80931904Y-82531009D02*
X80979523Y-82626247D01*
X80979523Y-82626247D02*
X80979523Y-82864342D01*
X80979523Y-82864342D02*
X80931904Y-82959580D01*
X80931904Y-82959580D02*
X80884285Y-83007200D01*
X80884285Y-83007200D02*
X80789047Y-83054819D01*
X80789047Y-83054819D02*
X80503333Y-83054819D01*
X80503333Y-83054819D02*
X80408095Y-83007200D01*
X80408095Y-83007200D02*
X80360476Y-82959580D01*
X81550952Y-82483390D02*
X81455714Y-82435771D01*
X81455714Y-82435771D02*
X81408095Y-82388152D01*
X81408095Y-82388152D02*
X81360476Y-82292914D01*
X81360476Y-82292914D02*
X81360476Y-82245295D01*
X81360476Y-82245295D02*
X81408095Y-82150057D01*
X81408095Y-82150057D02*
X81455714Y-82102438D01*
X81455714Y-82102438D02*
X81550952Y-82054819D01*
X81550952Y-82054819D02*
X81741428Y-82054819D01*
X81741428Y-82054819D02*
X81836666Y-82102438D01*
X81836666Y-82102438D02*
X81884285Y-82150057D01*
X81884285Y-82150057D02*
X81931904Y-82245295D01*
X81931904Y-82245295D02*
X81931904Y-82292914D01*
X81931904Y-82292914D02*
X81884285Y-82388152D01*
X81884285Y-82388152D02*
X81836666Y-82435771D01*
X81836666Y-82435771D02*
X81741428Y-82483390D01*
X81741428Y-82483390D02*
X81550952Y-82483390D01*
X81550952Y-82483390D02*
X81455714Y-82531009D01*
X81455714Y-82531009D02*
X81408095Y-82578628D01*
X81408095Y-82578628D02*
X81360476Y-82673866D01*
X81360476Y-82673866D02*
X81360476Y-82864342D01*
X81360476Y-82864342D02*
X81408095Y-82959580D01*
X81408095Y-82959580D02*
X81455714Y-83007200D01*
X81455714Y-83007200D02*
X81550952Y-83054819D01*
X81550952Y-83054819D02*
X81741428Y-83054819D01*
X81741428Y-83054819D02*
X81836666Y-83007200D01*
X81836666Y-83007200D02*
X81884285Y-82959580D01*
X81884285Y-82959580D02*
X81931904Y-82864342D01*
X81931904Y-82864342D02*
X81931904Y-82673866D01*
X81931904Y-82673866D02*
X81884285Y-82578628D01*
X81884285Y-82578628D02*
X81836666Y-82531009D01*
X81836666Y-82531009D02*
X81741428Y-82483390D01*
X92233776Y-47519819D02*
X92233776Y-46519819D01*
X92233776Y-46519819D02*
X92567109Y-47234104D01*
X92567109Y-47234104D02*
X92900442Y-46519819D01*
X92900442Y-46519819D02*
X92900442Y-47519819D01*
X93900442Y-47519819D02*
X93329014Y-47519819D01*
X93614728Y-47519819D02*
X93614728Y-46519819D01*
X93614728Y-46519819D02*
X93519490Y-46662676D01*
X93519490Y-46662676D02*
X93424252Y-46757914D01*
X93424252Y-46757914D02*
X93329014Y-46805533D01*
X86393967Y-42894819D02*
X86727300Y-43894819D01*
X86727300Y-43894819D02*
X87060633Y-42894819D01*
X87965395Y-43799580D02*
X87917776Y-43847200D01*
X87917776Y-43847200D02*
X87774919Y-43894819D01*
X87774919Y-43894819D02*
X87679681Y-43894819D01*
X87679681Y-43894819D02*
X87536824Y-43847200D01*
X87536824Y-43847200D02*
X87441586Y-43751961D01*
X87441586Y-43751961D02*
X87393967Y-43656723D01*
X87393967Y-43656723D02*
X87346348Y-43466247D01*
X87346348Y-43466247D02*
X87346348Y-43323390D01*
X87346348Y-43323390D02*
X87393967Y-43132914D01*
X87393967Y-43132914D02*
X87441586Y-43037676D01*
X87441586Y-43037676D02*
X87536824Y-42942438D01*
X87536824Y-42942438D02*
X87679681Y-42894819D01*
X87679681Y-42894819D02*
X87774919Y-42894819D01*
X87774919Y-42894819D02*
X87917776Y-42942438D01*
X87917776Y-42942438D02*
X87965395Y-42990057D01*
X88965395Y-43799580D02*
X88917776Y-43847200D01*
X88917776Y-43847200D02*
X88774919Y-43894819D01*
X88774919Y-43894819D02*
X88679681Y-43894819D01*
X88679681Y-43894819D02*
X88536824Y-43847200D01*
X88536824Y-43847200D02*
X88441586Y-43751961D01*
X88441586Y-43751961D02*
X88393967Y-43656723D01*
X88393967Y-43656723D02*
X88346348Y-43466247D01*
X88346348Y-43466247D02*
X88346348Y-43323390D01*
X88346348Y-43323390D02*
X88393967Y-43132914D01*
X88393967Y-43132914D02*
X88441586Y-43037676D01*
X88441586Y-43037676D02*
X88536824Y-42942438D01*
X88536824Y-42942438D02*
X88679681Y-42894819D01*
X88679681Y-42894819D02*
X88774919Y-42894819D01*
X88774919Y-42894819D02*
X88917776Y-42942438D01*
X88917776Y-42942438D02*
X88965395Y-42990057D01*
X86965395Y-45442438D02*
X86870157Y-45394819D01*
X86870157Y-45394819D02*
X86727300Y-45394819D01*
X86727300Y-45394819D02*
X86584443Y-45442438D01*
X86584443Y-45442438D02*
X86489205Y-45537676D01*
X86489205Y-45537676D02*
X86441586Y-45632914D01*
X86441586Y-45632914D02*
X86393967Y-45823390D01*
X86393967Y-45823390D02*
X86393967Y-45966247D01*
X86393967Y-45966247D02*
X86441586Y-46156723D01*
X86441586Y-46156723D02*
X86489205Y-46251961D01*
X86489205Y-46251961D02*
X86584443Y-46347200D01*
X86584443Y-46347200D02*
X86727300Y-46394819D01*
X86727300Y-46394819D02*
X86822538Y-46394819D01*
X86822538Y-46394819D02*
X86965395Y-46347200D01*
X86965395Y-46347200D02*
X87013014Y-46299580D01*
X87013014Y-46299580D02*
X87013014Y-45966247D01*
X87013014Y-45966247D02*
X86822538Y-45966247D01*
X87441586Y-46394819D02*
X87441586Y-45394819D01*
X87441586Y-45394819D02*
X88013014Y-46394819D01*
X88013014Y-46394819D02*
X88013014Y-45394819D01*
X88489205Y-46394819D02*
X88489205Y-45394819D01*
X88489205Y-45394819D02*
X88727300Y-45394819D01*
X88727300Y-45394819D02*
X88870157Y-45442438D01*
X88870157Y-45442438D02*
X88965395Y-45537676D01*
X88965395Y-45537676D02*
X89013014Y-45632914D01*
X89013014Y-45632914D02*
X89060633Y-45823390D01*
X89060633Y-45823390D02*
X89060633Y-45966247D01*
X89060633Y-45966247D02*
X89013014Y-46156723D01*
X89013014Y-46156723D02*
X88965395Y-46251961D01*
X88965395Y-46251961D02*
X88870157Y-46347200D01*
X88870157Y-46347200D02*
X88727300Y-46394819D01*
X88727300Y-46394819D02*
X88489205Y-46394819D01*
X87060633Y-48894819D02*
X86727300Y-48418628D01*
X86489205Y-48894819D02*
X86489205Y-47894819D01*
X86489205Y-47894819D02*
X86870157Y-47894819D01*
X86870157Y-47894819D02*
X86965395Y-47942438D01*
X86965395Y-47942438D02*
X87013014Y-47990057D01*
X87013014Y-47990057D02*
X87060633Y-48085295D01*
X87060633Y-48085295D02*
X87060633Y-48228152D01*
X87060633Y-48228152D02*
X87013014Y-48323390D01*
X87013014Y-48323390D02*
X86965395Y-48371009D01*
X86965395Y-48371009D02*
X86870157Y-48418628D01*
X86870157Y-48418628D02*
X86489205Y-48418628D01*
X87393967Y-47894819D02*
X88060633Y-48894819D01*
X88060633Y-47894819D02*
X87393967Y-48894819D01*
X88441586Y-48894819D02*
X88441586Y-47894819D01*
X88441586Y-47894819D02*
X88679681Y-47894819D01*
X88679681Y-47894819D02*
X88822538Y-47942438D01*
X88822538Y-47942438D02*
X88917776Y-48037676D01*
X88917776Y-48037676D02*
X88965395Y-48132914D01*
X88965395Y-48132914D02*
X89013014Y-48323390D01*
X89013014Y-48323390D02*
X89013014Y-48466247D01*
X89013014Y-48466247D02*
X88965395Y-48656723D01*
X88965395Y-48656723D02*
X88917776Y-48751961D01*
X88917776Y-48751961D02*
X88822538Y-48847200D01*
X88822538Y-48847200D02*
X88679681Y-48894819D01*
X88679681Y-48894819D02*
X88441586Y-48894819D01*
X86465395Y-50394819D02*
X87036823Y-50394819D01*
X86751109Y-51394819D02*
X86751109Y-50394819D01*
X87274919Y-50394819D02*
X87941585Y-51394819D01*
X87941585Y-50394819D02*
X87274919Y-51394819D01*
X88322538Y-51394819D02*
X88322538Y-50394819D01*
X88322538Y-50394819D02*
X88560633Y-50394819D01*
X88560633Y-50394819D02*
X88703490Y-50442438D01*
X88703490Y-50442438D02*
X88798728Y-50537676D01*
X88798728Y-50537676D02*
X88846347Y-50632914D01*
X88846347Y-50632914D02*
X88893966Y-50823390D01*
X88893966Y-50823390D02*
X88893966Y-50966247D01*
X88893966Y-50966247D02*
X88846347Y-51156723D01*
X88846347Y-51156723D02*
X88798728Y-51251961D01*
X88798728Y-51251961D02*
X88703490Y-51347200D01*
X88703490Y-51347200D02*
X88560633Y-51394819D01*
X88560633Y-51394819D02*
X88322538Y-51394819D01*
X86608252Y-53947200D02*
X86751109Y-53994819D01*
X86751109Y-53994819D02*
X86989204Y-53994819D01*
X86989204Y-53994819D02*
X87084442Y-53947200D01*
X87084442Y-53947200D02*
X87132061Y-53899580D01*
X87132061Y-53899580D02*
X87179680Y-53804342D01*
X87179680Y-53804342D02*
X87179680Y-53709104D01*
X87179680Y-53709104D02*
X87132061Y-53613866D01*
X87132061Y-53613866D02*
X87084442Y-53566247D01*
X87084442Y-53566247D02*
X86989204Y-53518628D01*
X86989204Y-53518628D02*
X86798728Y-53471009D01*
X86798728Y-53471009D02*
X86703490Y-53423390D01*
X86703490Y-53423390D02*
X86655871Y-53375771D01*
X86655871Y-53375771D02*
X86608252Y-53280533D01*
X86608252Y-53280533D02*
X86608252Y-53185295D01*
X86608252Y-53185295D02*
X86655871Y-53090057D01*
X86655871Y-53090057D02*
X86703490Y-53042438D01*
X86703490Y-53042438D02*
X86798728Y-52994819D01*
X86798728Y-52994819D02*
X87036823Y-52994819D01*
X87036823Y-52994819D02*
X87179680Y-53042438D01*
X87608252Y-53471009D02*
X87941585Y-53471009D01*
X88084442Y-53994819D02*
X87608252Y-53994819D01*
X87608252Y-53994819D02*
X87608252Y-52994819D01*
X87608252Y-52994819D02*
X88084442Y-52994819D01*
X88370157Y-52994819D02*
X88941585Y-52994819D01*
X88655871Y-53994819D02*
X88655871Y-52994819D01*
X110837142Y-79619580D02*
X110789523Y-79667200D01*
X110789523Y-79667200D02*
X110646666Y-79714819D01*
X110646666Y-79714819D02*
X110551428Y-79714819D01*
X110551428Y-79714819D02*
X110408571Y-79667200D01*
X110408571Y-79667200D02*
X110313333Y-79571961D01*
X110313333Y-79571961D02*
X110265714Y-79476723D01*
X110265714Y-79476723D02*
X110218095Y-79286247D01*
X110218095Y-79286247D02*
X110218095Y-79143390D01*
X110218095Y-79143390D02*
X110265714Y-78952914D01*
X110265714Y-78952914D02*
X110313333Y-78857676D01*
X110313333Y-78857676D02*
X110408571Y-78762438D01*
X110408571Y-78762438D02*
X110551428Y-78714819D01*
X110551428Y-78714819D02*
X110646666Y-78714819D01*
X110646666Y-78714819D02*
X110789523Y-78762438D01*
X110789523Y-78762438D02*
X110837142Y-78810057D01*
X111170476Y-78714819D02*
X111789523Y-78714819D01*
X111789523Y-78714819D02*
X111456190Y-79095771D01*
X111456190Y-79095771D02*
X111599047Y-79095771D01*
X111599047Y-79095771D02*
X111694285Y-79143390D01*
X111694285Y-79143390D02*
X111741904Y-79191009D01*
X111741904Y-79191009D02*
X111789523Y-79286247D01*
X111789523Y-79286247D02*
X111789523Y-79524342D01*
X111789523Y-79524342D02*
X111741904Y-79619580D01*
X111741904Y-79619580D02*
X111694285Y-79667200D01*
X111694285Y-79667200D02*
X111599047Y-79714819D01*
X111599047Y-79714819D02*
X111313333Y-79714819D01*
X111313333Y-79714819D02*
X111218095Y-79667200D01*
X111218095Y-79667200D02*
X111170476Y-79619580D01*
X112694285Y-78714819D02*
X112218095Y-78714819D01*
X112218095Y-78714819D02*
X112170476Y-79191009D01*
X112170476Y-79191009D02*
X112218095Y-79143390D01*
X112218095Y-79143390D02*
X112313333Y-79095771D01*
X112313333Y-79095771D02*
X112551428Y-79095771D01*
X112551428Y-79095771D02*
X112646666Y-79143390D01*
X112646666Y-79143390D02*
X112694285Y-79191009D01*
X112694285Y-79191009D02*
X112741904Y-79286247D01*
X112741904Y-79286247D02*
X112741904Y-79524342D01*
X112741904Y-79524342D02*
X112694285Y-79619580D01*
X112694285Y-79619580D02*
X112646666Y-79667200D01*
X112646666Y-79667200D02*
X112551428Y-79714819D01*
X112551428Y-79714819D02*
X112313333Y-79714819D01*
X112313333Y-79714819D02*
X112218095Y-79667200D01*
X112218095Y-79667200D02*
X112170476Y-79619580D01*
X88473333Y-58004819D02*
X88140000Y-57528628D01*
X87901905Y-58004819D02*
X87901905Y-57004819D01*
X87901905Y-57004819D02*
X88282857Y-57004819D01*
X88282857Y-57004819D02*
X88378095Y-57052438D01*
X88378095Y-57052438D02*
X88425714Y-57100057D01*
X88425714Y-57100057D02*
X88473333Y-57195295D01*
X88473333Y-57195295D02*
X88473333Y-57338152D01*
X88473333Y-57338152D02*
X88425714Y-57433390D01*
X88425714Y-57433390D02*
X88378095Y-57481009D01*
X88378095Y-57481009D02*
X88282857Y-57528628D01*
X88282857Y-57528628D02*
X87901905Y-57528628D01*
X89330476Y-57004819D02*
X89140000Y-57004819D01*
X89140000Y-57004819D02*
X89044762Y-57052438D01*
X89044762Y-57052438D02*
X88997143Y-57100057D01*
X88997143Y-57100057D02*
X88901905Y-57242914D01*
X88901905Y-57242914D02*
X88854286Y-57433390D01*
X88854286Y-57433390D02*
X88854286Y-57814342D01*
X88854286Y-57814342D02*
X88901905Y-57909580D01*
X88901905Y-57909580D02*
X88949524Y-57957200D01*
X88949524Y-57957200D02*
X89044762Y-58004819D01*
X89044762Y-58004819D02*
X89235238Y-58004819D01*
X89235238Y-58004819D02*
X89330476Y-57957200D01*
X89330476Y-57957200D02*
X89378095Y-57909580D01*
X89378095Y-57909580D02*
X89425714Y-57814342D01*
X89425714Y-57814342D02*
X89425714Y-57576247D01*
X89425714Y-57576247D02*
X89378095Y-57481009D01*
X89378095Y-57481009D02*
X89330476Y-57433390D01*
X89330476Y-57433390D02*
X89235238Y-57385771D01*
X89235238Y-57385771D02*
X89044762Y-57385771D01*
X89044762Y-57385771D02*
X88949524Y-57433390D01*
X88949524Y-57433390D02*
X88901905Y-57481009D01*
X88901905Y-57481009D02*
X88854286Y-57576247D01*
X111427142Y-71944819D02*
X111093809Y-71468628D01*
X110855714Y-71944819D02*
X110855714Y-70944819D01*
X110855714Y-70944819D02*
X111236666Y-70944819D01*
X111236666Y-70944819D02*
X111331904Y-70992438D01*
X111331904Y-70992438D02*
X111379523Y-71040057D01*
X111379523Y-71040057D02*
X111427142Y-71135295D01*
X111427142Y-71135295D02*
X111427142Y-71278152D01*
X111427142Y-71278152D02*
X111379523Y-71373390D01*
X111379523Y-71373390D02*
X111331904Y-71421009D01*
X111331904Y-71421009D02*
X111236666Y-71468628D01*
X111236666Y-71468628D02*
X110855714Y-71468628D01*
X111808095Y-71040057D02*
X111855714Y-70992438D01*
X111855714Y-70992438D02*
X111950952Y-70944819D01*
X111950952Y-70944819D02*
X112189047Y-70944819D01*
X112189047Y-70944819D02*
X112284285Y-70992438D01*
X112284285Y-70992438D02*
X112331904Y-71040057D01*
X112331904Y-71040057D02*
X112379523Y-71135295D01*
X112379523Y-71135295D02*
X112379523Y-71230533D01*
X112379523Y-71230533D02*
X112331904Y-71373390D01*
X112331904Y-71373390D02*
X111760476Y-71944819D01*
X111760476Y-71944819D02*
X112379523Y-71944819D01*
X112712857Y-70944819D02*
X113331904Y-70944819D01*
X113331904Y-70944819D02*
X112998571Y-71325771D01*
X112998571Y-71325771D02*
X113141428Y-71325771D01*
X113141428Y-71325771D02*
X113236666Y-71373390D01*
X113236666Y-71373390D02*
X113284285Y-71421009D01*
X113284285Y-71421009D02*
X113331904Y-71516247D01*
X113331904Y-71516247D02*
X113331904Y-71754342D01*
X113331904Y-71754342D02*
X113284285Y-71849580D01*
X113284285Y-71849580D02*
X113236666Y-71897200D01*
X113236666Y-71897200D02*
X113141428Y-71944819D01*
X113141428Y-71944819D02*
X112855714Y-71944819D01*
X112855714Y-71944819D02*
X112760476Y-71897200D01*
X112760476Y-71897200D02*
X112712857Y-71849580D01*
X115986666Y-46224819D02*
X115986666Y-46939104D01*
X115986666Y-46939104D02*
X115939047Y-47081961D01*
X115939047Y-47081961D02*
X115843809Y-47177200D01*
X115843809Y-47177200D02*
X115700952Y-47224819D01*
X115700952Y-47224819D02*
X115605714Y-47224819D01*
X116415238Y-46320057D02*
X116462857Y-46272438D01*
X116462857Y-46272438D02*
X116558095Y-46224819D01*
X116558095Y-46224819D02*
X116796190Y-46224819D01*
X116796190Y-46224819D02*
X116891428Y-46272438D01*
X116891428Y-46272438D02*
X116939047Y-46320057D01*
X116939047Y-46320057D02*
X116986666Y-46415295D01*
X116986666Y-46415295D02*
X116986666Y-46510533D01*
X116986666Y-46510533D02*
X116939047Y-46653390D01*
X116939047Y-46653390D02*
X116367619Y-47224819D01*
X116367619Y-47224819D02*
X116986666Y-47224819D01*
X112387319Y-54942857D02*
X111911128Y-55276190D01*
X112387319Y-55514285D02*
X111387319Y-55514285D01*
X111387319Y-55514285D02*
X111387319Y-55133333D01*
X111387319Y-55133333D02*
X111434938Y-55038095D01*
X111434938Y-55038095D02*
X111482557Y-54990476D01*
X111482557Y-54990476D02*
X111577795Y-54942857D01*
X111577795Y-54942857D02*
X111720652Y-54942857D01*
X111720652Y-54942857D02*
X111815890Y-54990476D01*
X111815890Y-54990476D02*
X111863509Y-55038095D01*
X111863509Y-55038095D02*
X111911128Y-55133333D01*
X111911128Y-55133333D02*
X111911128Y-55514285D01*
X112387319Y-53990476D02*
X112387319Y-54561904D01*
X112387319Y-54276190D02*
X111387319Y-54276190D01*
X111387319Y-54276190D02*
X111530176Y-54371428D01*
X111530176Y-54371428D02*
X111625414Y-54466666D01*
X111625414Y-54466666D02*
X111673033Y-54561904D01*
X111387319Y-53371428D02*
X111387319Y-53276190D01*
X111387319Y-53276190D02*
X111434938Y-53180952D01*
X111434938Y-53180952D02*
X111482557Y-53133333D01*
X111482557Y-53133333D02*
X111577795Y-53085714D01*
X111577795Y-53085714D02*
X111768271Y-53038095D01*
X111768271Y-53038095D02*
X112006366Y-53038095D01*
X112006366Y-53038095D02*
X112196842Y-53085714D01*
X112196842Y-53085714D02*
X112292080Y-53133333D01*
X112292080Y-53133333D02*
X112339700Y-53180952D01*
X112339700Y-53180952D02*
X112387319Y-53276190D01*
X112387319Y-53276190D02*
X112387319Y-53371428D01*
X112387319Y-53371428D02*
X112339700Y-53466666D01*
X112339700Y-53466666D02*
X112292080Y-53514285D01*
X112292080Y-53514285D02*
X112196842Y-53561904D01*
X112196842Y-53561904D02*
X112006366Y-53609523D01*
X112006366Y-53609523D02*
X111768271Y-53609523D01*
X111768271Y-53609523D02*
X111577795Y-53561904D01*
X111577795Y-53561904D02*
X111482557Y-53514285D01*
X111482557Y-53514285D02*
X111434938Y-53466666D01*
X111434938Y-53466666D02*
X111387319Y-53371428D01*
X97871905Y-85204819D02*
X97871905Y-84204819D01*
X97871905Y-84204819D02*
X98110000Y-84204819D01*
X98110000Y-84204819D02*
X98252857Y-84252438D01*
X98252857Y-84252438D02*
X98348095Y-84347676D01*
X98348095Y-84347676D02*
X98395714Y-84442914D01*
X98395714Y-84442914D02*
X98443333Y-84633390D01*
X98443333Y-84633390D02*
X98443333Y-84776247D01*
X98443333Y-84776247D02*
X98395714Y-84966723D01*
X98395714Y-84966723D02*
X98348095Y-85061961D01*
X98348095Y-85061961D02*
X98252857Y-85157200D01*
X98252857Y-85157200D02*
X98110000Y-85204819D01*
X98110000Y-85204819D02*
X97871905Y-85204819D01*
X99300476Y-84538152D02*
X99300476Y-85204819D01*
X99062381Y-84157200D02*
X98824286Y-84871485D01*
X98824286Y-84871485D02*
X99443333Y-84871485D01*
X108783333Y-84514819D02*
X108307143Y-84514819D01*
X108307143Y-84514819D02*
X108307143Y-83514819D01*
X109640476Y-84514819D02*
X109069048Y-84514819D01*
X109354762Y-84514819D02*
X109354762Y-83514819D01*
X109354762Y-83514819D02*
X109259524Y-83657676D01*
X109259524Y-83657676D02*
X109164286Y-83752914D01*
X109164286Y-83752914D02*
X109069048Y-83800533D01*
X92693333Y-90939580D02*
X92645714Y-90987200D01*
X92645714Y-90987200D02*
X92502857Y-91034819D01*
X92502857Y-91034819D02*
X92407619Y-91034819D01*
X92407619Y-91034819D02*
X92264762Y-90987200D01*
X92264762Y-90987200D02*
X92169524Y-90891961D01*
X92169524Y-90891961D02*
X92121905Y-90796723D01*
X92121905Y-90796723D02*
X92074286Y-90606247D01*
X92074286Y-90606247D02*
X92074286Y-90463390D01*
X92074286Y-90463390D02*
X92121905Y-90272914D01*
X92121905Y-90272914D02*
X92169524Y-90177676D01*
X92169524Y-90177676D02*
X92264762Y-90082438D01*
X92264762Y-90082438D02*
X92407619Y-90034819D01*
X92407619Y-90034819D02*
X92502857Y-90034819D01*
X92502857Y-90034819D02*
X92645714Y-90082438D01*
X92645714Y-90082438D02*
X92693333Y-90130057D01*
X93026667Y-90034819D02*
X93645714Y-90034819D01*
X93645714Y-90034819D02*
X93312381Y-90415771D01*
X93312381Y-90415771D02*
X93455238Y-90415771D01*
X93455238Y-90415771D02*
X93550476Y-90463390D01*
X93550476Y-90463390D02*
X93598095Y-90511009D01*
X93598095Y-90511009D02*
X93645714Y-90606247D01*
X93645714Y-90606247D02*
X93645714Y-90844342D01*
X93645714Y-90844342D02*
X93598095Y-90939580D01*
X93598095Y-90939580D02*
X93550476Y-90987200D01*
X93550476Y-90987200D02*
X93455238Y-91034819D01*
X93455238Y-91034819D02*
X93169524Y-91034819D01*
X93169524Y-91034819D02*
X93074286Y-90987200D01*
X93074286Y-90987200D02*
X93026667Y-90939580D01*
X110077142Y-94399580D02*
X110029523Y-94447200D01*
X110029523Y-94447200D02*
X109886666Y-94494819D01*
X109886666Y-94494819D02*
X109791428Y-94494819D01*
X109791428Y-94494819D02*
X109648571Y-94447200D01*
X109648571Y-94447200D02*
X109553333Y-94351961D01*
X109553333Y-94351961D02*
X109505714Y-94256723D01*
X109505714Y-94256723D02*
X109458095Y-94066247D01*
X109458095Y-94066247D02*
X109458095Y-93923390D01*
X109458095Y-93923390D02*
X109505714Y-93732914D01*
X109505714Y-93732914D02*
X109553333Y-93637676D01*
X109553333Y-93637676D02*
X109648571Y-93542438D01*
X109648571Y-93542438D02*
X109791428Y-93494819D01*
X109791428Y-93494819D02*
X109886666Y-93494819D01*
X109886666Y-93494819D02*
X110029523Y-93542438D01*
X110029523Y-93542438D02*
X110077142Y-93590057D01*
X111029523Y-94494819D02*
X110458095Y-94494819D01*
X110743809Y-94494819D02*
X110743809Y-93494819D01*
X110743809Y-93494819D02*
X110648571Y-93637676D01*
X110648571Y-93637676D02*
X110553333Y-93732914D01*
X110553333Y-93732914D02*
X110458095Y-93780533D01*
X111648571Y-93494819D02*
X111743809Y-93494819D01*
X111743809Y-93494819D02*
X111839047Y-93542438D01*
X111839047Y-93542438D02*
X111886666Y-93590057D01*
X111886666Y-93590057D02*
X111934285Y-93685295D01*
X111934285Y-93685295D02*
X111981904Y-93875771D01*
X111981904Y-93875771D02*
X111981904Y-94113866D01*
X111981904Y-94113866D02*
X111934285Y-94304342D01*
X111934285Y-94304342D02*
X111886666Y-94399580D01*
X111886666Y-94399580D02*
X111839047Y-94447200D01*
X111839047Y-94447200D02*
X111743809Y-94494819D01*
X111743809Y-94494819D02*
X111648571Y-94494819D01*
X111648571Y-94494819D02*
X111553333Y-94447200D01*
X111553333Y-94447200D02*
X111505714Y-94399580D01*
X111505714Y-94399580D02*
X111458095Y-94304342D01*
X111458095Y-94304342D02*
X111410476Y-94113866D01*
X111410476Y-94113866D02*
X111410476Y-93875771D01*
X111410476Y-93875771D02*
X111458095Y-93685295D01*
X111458095Y-93685295D02*
X111505714Y-93590057D01*
X111505714Y-93590057D02*
X111553333Y-93542438D01*
X111553333Y-93542438D02*
X111648571Y-93494819D01*
X77506666Y-73494819D02*
X77506666Y-74209104D01*
X77506666Y-74209104D02*
X77459047Y-74351961D01*
X77459047Y-74351961D02*
X77363809Y-74447200D01*
X77363809Y-74447200D02*
X77220952Y-74494819D01*
X77220952Y-74494819D02*
X77125714Y-74494819D01*
X78411428Y-73828152D02*
X78411428Y-74494819D01*
X78173333Y-73447200D02*
X77935238Y-74161485D01*
X77935238Y-74161485D02*
X78554285Y-74161485D01*
X98623333Y-99569580D02*
X98575714Y-99617200D01*
X98575714Y-99617200D02*
X98432857Y-99664819D01*
X98432857Y-99664819D02*
X98337619Y-99664819D01*
X98337619Y-99664819D02*
X98194762Y-99617200D01*
X98194762Y-99617200D02*
X98099524Y-99521961D01*
X98099524Y-99521961D02*
X98051905Y-99426723D01*
X98051905Y-99426723D02*
X98004286Y-99236247D01*
X98004286Y-99236247D02*
X98004286Y-99093390D01*
X98004286Y-99093390D02*
X98051905Y-98902914D01*
X98051905Y-98902914D02*
X98099524Y-98807676D01*
X98099524Y-98807676D02*
X98194762Y-98712438D01*
X98194762Y-98712438D02*
X98337619Y-98664819D01*
X98337619Y-98664819D02*
X98432857Y-98664819D01*
X98432857Y-98664819D02*
X98575714Y-98712438D01*
X98575714Y-98712438D02*
X98623333Y-98760057D01*
X99194762Y-99093390D02*
X99099524Y-99045771D01*
X99099524Y-99045771D02*
X99051905Y-98998152D01*
X99051905Y-98998152D02*
X99004286Y-98902914D01*
X99004286Y-98902914D02*
X99004286Y-98855295D01*
X99004286Y-98855295D02*
X99051905Y-98760057D01*
X99051905Y-98760057D02*
X99099524Y-98712438D01*
X99099524Y-98712438D02*
X99194762Y-98664819D01*
X99194762Y-98664819D02*
X99385238Y-98664819D01*
X99385238Y-98664819D02*
X99480476Y-98712438D01*
X99480476Y-98712438D02*
X99528095Y-98760057D01*
X99528095Y-98760057D02*
X99575714Y-98855295D01*
X99575714Y-98855295D02*
X99575714Y-98902914D01*
X99575714Y-98902914D02*
X99528095Y-98998152D01*
X99528095Y-98998152D02*
X99480476Y-99045771D01*
X99480476Y-99045771D02*
X99385238Y-99093390D01*
X99385238Y-99093390D02*
X99194762Y-99093390D01*
X99194762Y-99093390D02*
X99099524Y-99141009D01*
X99099524Y-99141009D02*
X99051905Y-99188628D01*
X99051905Y-99188628D02*
X99004286Y-99283866D01*
X99004286Y-99283866D02*
X99004286Y-99474342D01*
X99004286Y-99474342D02*
X99051905Y-99569580D01*
X99051905Y-99569580D02*
X99099524Y-99617200D01*
X99099524Y-99617200D02*
X99194762Y-99664819D01*
X99194762Y-99664819D02*
X99385238Y-99664819D01*
X99385238Y-99664819D02*
X99480476Y-99617200D01*
X99480476Y-99617200D02*
X99528095Y-99569580D01*
X99528095Y-99569580D02*
X99575714Y-99474342D01*
X99575714Y-99474342D02*
X99575714Y-99283866D01*
X99575714Y-99283866D02*
X99528095Y-99188628D01*
X99528095Y-99188628D02*
X99480476Y-99141009D01*
X99480476Y-99141009D02*
X99385238Y-99093390D01*
X91767142Y-64704819D02*
X91433809Y-64228628D01*
X91195714Y-64704819D02*
X91195714Y-63704819D01*
X91195714Y-63704819D02*
X91576666Y-63704819D01*
X91576666Y-63704819D02*
X91671904Y-63752438D01*
X91671904Y-63752438D02*
X91719523Y-63800057D01*
X91719523Y-63800057D02*
X91767142Y-63895295D01*
X91767142Y-63895295D02*
X91767142Y-64038152D01*
X91767142Y-64038152D02*
X91719523Y-64133390D01*
X91719523Y-64133390D02*
X91671904Y-64181009D01*
X91671904Y-64181009D02*
X91576666Y-64228628D01*
X91576666Y-64228628D02*
X91195714Y-64228628D01*
X92719523Y-64704819D02*
X92148095Y-64704819D01*
X92433809Y-64704819D02*
X92433809Y-63704819D01*
X92433809Y-63704819D02*
X92338571Y-63847676D01*
X92338571Y-63847676D02*
X92243333Y-63942914D01*
X92243333Y-63942914D02*
X92148095Y-63990533D01*
X93576666Y-63704819D02*
X93386190Y-63704819D01*
X93386190Y-63704819D02*
X93290952Y-63752438D01*
X93290952Y-63752438D02*
X93243333Y-63800057D01*
X93243333Y-63800057D02*
X93148095Y-63942914D01*
X93148095Y-63942914D02*
X93100476Y-64133390D01*
X93100476Y-64133390D02*
X93100476Y-64514342D01*
X93100476Y-64514342D02*
X93148095Y-64609580D01*
X93148095Y-64609580D02*
X93195714Y-64657200D01*
X93195714Y-64657200D02*
X93290952Y-64704819D01*
X93290952Y-64704819D02*
X93481428Y-64704819D01*
X93481428Y-64704819D02*
X93576666Y-64657200D01*
X93576666Y-64657200D02*
X93624285Y-64609580D01*
X93624285Y-64609580D02*
X93671904Y-64514342D01*
X93671904Y-64514342D02*
X93671904Y-64276247D01*
X93671904Y-64276247D02*
X93624285Y-64181009D01*
X93624285Y-64181009D02*
X93576666Y-64133390D01*
X93576666Y-64133390D02*
X93481428Y-64085771D01*
X93481428Y-64085771D02*
X93290952Y-64085771D01*
X93290952Y-64085771D02*
X93195714Y-64133390D01*
X93195714Y-64133390D02*
X93148095Y-64181009D01*
X93148095Y-64181009D02*
X93100476Y-64276247D01*
X109739642Y-60299580D02*
X109692023Y-60347200D01*
X109692023Y-60347200D02*
X109549166Y-60394819D01*
X109549166Y-60394819D02*
X109453928Y-60394819D01*
X109453928Y-60394819D02*
X109311071Y-60347200D01*
X109311071Y-60347200D02*
X109215833Y-60251961D01*
X109215833Y-60251961D02*
X109168214Y-60156723D01*
X109168214Y-60156723D02*
X109120595Y-59966247D01*
X109120595Y-59966247D02*
X109120595Y-59823390D01*
X109120595Y-59823390D02*
X109168214Y-59632914D01*
X109168214Y-59632914D02*
X109215833Y-59537676D01*
X109215833Y-59537676D02*
X109311071Y-59442438D01*
X109311071Y-59442438D02*
X109453928Y-59394819D01*
X109453928Y-59394819D02*
X109549166Y-59394819D01*
X109549166Y-59394819D02*
X109692023Y-59442438D01*
X109692023Y-59442438D02*
X109739642Y-59490057D01*
X110120595Y-59490057D02*
X110168214Y-59442438D01*
X110168214Y-59442438D02*
X110263452Y-59394819D01*
X110263452Y-59394819D02*
X110501547Y-59394819D01*
X110501547Y-59394819D02*
X110596785Y-59442438D01*
X110596785Y-59442438D02*
X110644404Y-59490057D01*
X110644404Y-59490057D02*
X110692023Y-59585295D01*
X110692023Y-59585295D02*
X110692023Y-59680533D01*
X110692023Y-59680533D02*
X110644404Y-59823390D01*
X110644404Y-59823390D02*
X110072976Y-60394819D01*
X110072976Y-60394819D02*
X110692023Y-60394819D01*
X111263452Y-59823390D02*
X111168214Y-59775771D01*
X111168214Y-59775771D02*
X111120595Y-59728152D01*
X111120595Y-59728152D02*
X111072976Y-59632914D01*
X111072976Y-59632914D02*
X111072976Y-59585295D01*
X111072976Y-59585295D02*
X111120595Y-59490057D01*
X111120595Y-59490057D02*
X111168214Y-59442438D01*
X111168214Y-59442438D02*
X111263452Y-59394819D01*
X111263452Y-59394819D02*
X111453928Y-59394819D01*
X111453928Y-59394819D02*
X111549166Y-59442438D01*
X111549166Y-59442438D02*
X111596785Y-59490057D01*
X111596785Y-59490057D02*
X111644404Y-59585295D01*
X111644404Y-59585295D02*
X111644404Y-59632914D01*
X111644404Y-59632914D02*
X111596785Y-59728152D01*
X111596785Y-59728152D02*
X111549166Y-59775771D01*
X111549166Y-59775771D02*
X111453928Y-59823390D01*
X111453928Y-59823390D02*
X111263452Y-59823390D01*
X111263452Y-59823390D02*
X111168214Y-59871009D01*
X111168214Y-59871009D02*
X111120595Y-59918628D01*
X111120595Y-59918628D02*
X111072976Y-60013866D01*
X111072976Y-60013866D02*
X111072976Y-60204342D01*
X111072976Y-60204342D02*
X111120595Y-60299580D01*
X111120595Y-60299580D02*
X111168214Y-60347200D01*
X111168214Y-60347200D02*
X111263452Y-60394819D01*
X111263452Y-60394819D02*
X111453928Y-60394819D01*
X111453928Y-60394819D02*
X111549166Y-60347200D01*
X111549166Y-60347200D02*
X111596785Y-60299580D01*
X111596785Y-60299580D02*
X111644404Y-60204342D01*
X111644404Y-60204342D02*
X111644404Y-60013866D01*
X111644404Y-60013866D02*
X111596785Y-59918628D01*
X111596785Y-59918628D02*
X111549166Y-59871009D01*
X111549166Y-59871009D02*
X111453928Y-59823390D01*
X86291195Y-72893619D02*
X86291195Y-73703142D01*
X86291195Y-73703142D02*
X86338814Y-73798380D01*
X86338814Y-73798380D02*
X86386433Y-73846000D01*
X86386433Y-73846000D02*
X86481671Y-73893619D01*
X86481671Y-73893619D02*
X86672147Y-73893619D01*
X86672147Y-73893619D02*
X86767385Y-73846000D01*
X86767385Y-73846000D02*
X86815004Y-73798380D01*
X86815004Y-73798380D02*
X86862623Y-73703142D01*
X86862623Y-73703142D02*
X86862623Y-72893619D01*
X87815004Y-72893619D02*
X87338814Y-72893619D01*
X87338814Y-72893619D02*
X87291195Y-73369809D01*
X87291195Y-73369809D02*
X87338814Y-73322190D01*
X87338814Y-73322190D02*
X87434052Y-73274571D01*
X87434052Y-73274571D02*
X87672147Y-73274571D01*
X87672147Y-73274571D02*
X87767385Y-73322190D01*
X87767385Y-73322190D02*
X87815004Y-73369809D01*
X87815004Y-73369809D02*
X87862623Y-73465047D01*
X87862623Y-73465047D02*
X87862623Y-73703142D01*
X87862623Y-73703142D02*
X87815004Y-73798380D01*
X87815004Y-73798380D02*
X87767385Y-73846000D01*
X87767385Y-73846000D02*
X87672147Y-73893619D01*
X87672147Y-73893619D02*
X87434052Y-73893619D01*
X87434052Y-73893619D02*
X87338814Y-73846000D01*
X87338814Y-73846000D02*
X87291195Y-73798380D01*
X108153333Y-94484819D02*
X107820000Y-94008628D01*
X107581905Y-94484819D02*
X107581905Y-93484819D01*
X107581905Y-93484819D02*
X107962857Y-93484819D01*
X107962857Y-93484819D02*
X108058095Y-93532438D01*
X108058095Y-93532438D02*
X108105714Y-93580057D01*
X108105714Y-93580057D02*
X108153333Y-93675295D01*
X108153333Y-93675295D02*
X108153333Y-93818152D01*
X108153333Y-93818152D02*
X108105714Y-93913390D01*
X108105714Y-93913390D02*
X108058095Y-93961009D01*
X108058095Y-93961009D02*
X107962857Y-94008628D01*
X107962857Y-94008628D02*
X107581905Y-94008628D01*
X108534286Y-93580057D02*
X108581905Y-93532438D01*
X108581905Y-93532438D02*
X108677143Y-93484819D01*
X108677143Y-93484819D02*
X108915238Y-93484819D01*
X108915238Y-93484819D02*
X109010476Y-93532438D01*
X109010476Y-93532438D02*
X109058095Y-93580057D01*
X109058095Y-93580057D02*
X109105714Y-93675295D01*
X109105714Y-93675295D02*
X109105714Y-93770533D01*
X109105714Y-93770533D02*
X109058095Y-93913390D01*
X109058095Y-93913390D02*
X108486667Y-94484819D01*
X108486667Y-94484819D02*
X109105714Y-94484819D01*
X78401905Y-88244819D02*
X78401905Y-87244819D01*
X78401905Y-87244819D02*
X78640000Y-87244819D01*
X78640000Y-87244819D02*
X78782857Y-87292438D01*
X78782857Y-87292438D02*
X78878095Y-87387676D01*
X78878095Y-87387676D02*
X78925714Y-87482914D01*
X78925714Y-87482914D02*
X78973333Y-87673390D01*
X78973333Y-87673390D02*
X78973333Y-87816247D01*
X78973333Y-87816247D02*
X78925714Y-88006723D01*
X78925714Y-88006723D02*
X78878095Y-88101961D01*
X78878095Y-88101961D02*
X78782857Y-88197200D01*
X78782857Y-88197200D02*
X78640000Y-88244819D01*
X78640000Y-88244819D02*
X78401905Y-88244819D01*
X79925714Y-88244819D02*
X79354286Y-88244819D01*
X79640000Y-88244819D02*
X79640000Y-87244819D01*
X79640000Y-87244819D02*
X79544762Y-87387676D01*
X79544762Y-87387676D02*
X79449524Y-87482914D01*
X79449524Y-87482914D02*
X79354286Y-87530533D01*
X90563333Y-99669580D02*
X90515714Y-99717200D01*
X90515714Y-99717200D02*
X90372857Y-99764819D01*
X90372857Y-99764819D02*
X90277619Y-99764819D01*
X90277619Y-99764819D02*
X90134762Y-99717200D01*
X90134762Y-99717200D02*
X90039524Y-99621961D01*
X90039524Y-99621961D02*
X89991905Y-99526723D01*
X89991905Y-99526723D02*
X89944286Y-99336247D01*
X89944286Y-99336247D02*
X89944286Y-99193390D01*
X89944286Y-99193390D02*
X89991905Y-99002914D01*
X89991905Y-99002914D02*
X90039524Y-98907676D01*
X90039524Y-98907676D02*
X90134762Y-98812438D01*
X90134762Y-98812438D02*
X90277619Y-98764819D01*
X90277619Y-98764819D02*
X90372857Y-98764819D01*
X90372857Y-98764819D02*
X90515714Y-98812438D01*
X90515714Y-98812438D02*
X90563333Y-98860057D01*
X90944286Y-98860057D02*
X90991905Y-98812438D01*
X90991905Y-98812438D02*
X91087143Y-98764819D01*
X91087143Y-98764819D02*
X91325238Y-98764819D01*
X91325238Y-98764819D02*
X91420476Y-98812438D01*
X91420476Y-98812438D02*
X91468095Y-98860057D01*
X91468095Y-98860057D02*
X91515714Y-98955295D01*
X91515714Y-98955295D02*
X91515714Y-99050533D01*
X91515714Y-99050533D02*
X91468095Y-99193390D01*
X91468095Y-99193390D02*
X90896667Y-99764819D01*
X90896667Y-99764819D02*
X91515714Y-99764819D01*
X118749642Y-59629580D02*
X118702023Y-59677200D01*
X118702023Y-59677200D02*
X118559166Y-59724819D01*
X118559166Y-59724819D02*
X118463928Y-59724819D01*
X118463928Y-59724819D02*
X118321071Y-59677200D01*
X118321071Y-59677200D02*
X118225833Y-59581961D01*
X118225833Y-59581961D02*
X118178214Y-59486723D01*
X118178214Y-59486723D02*
X118130595Y-59296247D01*
X118130595Y-59296247D02*
X118130595Y-59153390D01*
X118130595Y-59153390D02*
X118178214Y-58962914D01*
X118178214Y-58962914D02*
X118225833Y-58867676D01*
X118225833Y-58867676D02*
X118321071Y-58772438D01*
X118321071Y-58772438D02*
X118463928Y-58724819D01*
X118463928Y-58724819D02*
X118559166Y-58724819D01*
X118559166Y-58724819D02*
X118702023Y-58772438D01*
X118702023Y-58772438D02*
X118749642Y-58820057D01*
X119130595Y-58820057D02*
X119178214Y-58772438D01*
X119178214Y-58772438D02*
X119273452Y-58724819D01*
X119273452Y-58724819D02*
X119511547Y-58724819D01*
X119511547Y-58724819D02*
X119606785Y-58772438D01*
X119606785Y-58772438D02*
X119654404Y-58820057D01*
X119654404Y-58820057D02*
X119702023Y-58915295D01*
X119702023Y-58915295D02*
X119702023Y-59010533D01*
X119702023Y-59010533D02*
X119654404Y-59153390D01*
X119654404Y-59153390D02*
X119082976Y-59724819D01*
X119082976Y-59724819D02*
X119702023Y-59724819D01*
X120606785Y-58724819D02*
X120130595Y-58724819D01*
X120130595Y-58724819D02*
X120082976Y-59201009D01*
X120082976Y-59201009D02*
X120130595Y-59153390D01*
X120130595Y-59153390D02*
X120225833Y-59105771D01*
X120225833Y-59105771D02*
X120463928Y-59105771D01*
X120463928Y-59105771D02*
X120559166Y-59153390D01*
X120559166Y-59153390D02*
X120606785Y-59201009D01*
X120606785Y-59201009D02*
X120654404Y-59296247D01*
X120654404Y-59296247D02*
X120654404Y-59534342D01*
X120654404Y-59534342D02*
X120606785Y-59629580D01*
X120606785Y-59629580D02*
X120559166Y-59677200D01*
X120559166Y-59677200D02*
X120463928Y-59724819D01*
X120463928Y-59724819D02*
X120225833Y-59724819D01*
X120225833Y-59724819D02*
X120130595Y-59677200D01*
X120130595Y-59677200D02*
X120082976Y-59629580D01*
X100227142Y-69169580D02*
X100179523Y-69217200D01*
X100179523Y-69217200D02*
X100036666Y-69264819D01*
X100036666Y-69264819D02*
X99941428Y-69264819D01*
X99941428Y-69264819D02*
X99798571Y-69217200D01*
X99798571Y-69217200D02*
X99703333Y-69121961D01*
X99703333Y-69121961D02*
X99655714Y-69026723D01*
X99655714Y-69026723D02*
X99608095Y-68836247D01*
X99608095Y-68836247D02*
X99608095Y-68693390D01*
X99608095Y-68693390D02*
X99655714Y-68502914D01*
X99655714Y-68502914D02*
X99703333Y-68407676D01*
X99703333Y-68407676D02*
X99798571Y-68312438D01*
X99798571Y-68312438D02*
X99941428Y-68264819D01*
X99941428Y-68264819D02*
X100036666Y-68264819D01*
X100036666Y-68264819D02*
X100179523Y-68312438D01*
X100179523Y-68312438D02*
X100227142Y-68360057D01*
X100560476Y-68264819D02*
X101179523Y-68264819D01*
X101179523Y-68264819D02*
X100846190Y-68645771D01*
X100846190Y-68645771D02*
X100989047Y-68645771D01*
X100989047Y-68645771D02*
X101084285Y-68693390D01*
X101084285Y-68693390D02*
X101131904Y-68741009D01*
X101131904Y-68741009D02*
X101179523Y-68836247D01*
X101179523Y-68836247D02*
X101179523Y-69074342D01*
X101179523Y-69074342D02*
X101131904Y-69169580D01*
X101131904Y-69169580D02*
X101084285Y-69217200D01*
X101084285Y-69217200D02*
X100989047Y-69264819D01*
X100989047Y-69264819D02*
X100703333Y-69264819D01*
X100703333Y-69264819D02*
X100608095Y-69217200D01*
X100608095Y-69217200D02*
X100560476Y-69169580D01*
X102036666Y-68264819D02*
X101846190Y-68264819D01*
X101846190Y-68264819D02*
X101750952Y-68312438D01*
X101750952Y-68312438D02*
X101703333Y-68360057D01*
X101703333Y-68360057D02*
X101608095Y-68502914D01*
X101608095Y-68502914D02*
X101560476Y-68693390D01*
X101560476Y-68693390D02*
X101560476Y-69074342D01*
X101560476Y-69074342D02*
X101608095Y-69169580D01*
X101608095Y-69169580D02*
X101655714Y-69217200D01*
X101655714Y-69217200D02*
X101750952Y-69264819D01*
X101750952Y-69264819D02*
X101941428Y-69264819D01*
X101941428Y-69264819D02*
X102036666Y-69217200D01*
X102036666Y-69217200D02*
X102084285Y-69169580D01*
X102084285Y-69169580D02*
X102131904Y-69074342D01*
X102131904Y-69074342D02*
X102131904Y-68836247D01*
X102131904Y-68836247D02*
X102084285Y-68741009D01*
X102084285Y-68741009D02*
X102036666Y-68693390D01*
X102036666Y-68693390D02*
X101941428Y-68645771D01*
X101941428Y-68645771D02*
X101750952Y-68645771D01*
X101750952Y-68645771D02*
X101655714Y-68693390D01*
X101655714Y-68693390D02*
X101608095Y-68741009D01*
X101608095Y-68741009D02*
X101560476Y-68836247D01*
X113459580Y-77632857D02*
X113507200Y-77680476D01*
X113507200Y-77680476D02*
X113554819Y-77823333D01*
X113554819Y-77823333D02*
X113554819Y-77918571D01*
X113554819Y-77918571D02*
X113507200Y-78061428D01*
X113507200Y-78061428D02*
X113411961Y-78156666D01*
X113411961Y-78156666D02*
X113316723Y-78204285D01*
X113316723Y-78204285D02*
X113126247Y-78251904D01*
X113126247Y-78251904D02*
X112983390Y-78251904D01*
X112983390Y-78251904D02*
X112792914Y-78204285D01*
X112792914Y-78204285D02*
X112697676Y-78156666D01*
X112697676Y-78156666D02*
X112602438Y-78061428D01*
X112602438Y-78061428D02*
X112554819Y-77918571D01*
X112554819Y-77918571D02*
X112554819Y-77823333D01*
X112554819Y-77823333D02*
X112602438Y-77680476D01*
X112602438Y-77680476D02*
X112650057Y-77632857D01*
X112650057Y-77251904D02*
X112602438Y-77204285D01*
X112602438Y-77204285D02*
X112554819Y-77109047D01*
X112554819Y-77109047D02*
X112554819Y-76870952D01*
X112554819Y-76870952D02*
X112602438Y-76775714D01*
X112602438Y-76775714D02*
X112650057Y-76728095D01*
X112650057Y-76728095D02*
X112745295Y-76680476D01*
X112745295Y-76680476D02*
X112840533Y-76680476D01*
X112840533Y-76680476D02*
X112983390Y-76728095D01*
X112983390Y-76728095D02*
X113554819Y-77299523D01*
X113554819Y-77299523D02*
X113554819Y-76680476D01*
X112650057Y-76299523D02*
X112602438Y-76251904D01*
X112602438Y-76251904D02*
X112554819Y-76156666D01*
X112554819Y-76156666D02*
X112554819Y-75918571D01*
X112554819Y-75918571D02*
X112602438Y-75823333D01*
X112602438Y-75823333D02*
X112650057Y-75775714D01*
X112650057Y-75775714D02*
X112745295Y-75728095D01*
X112745295Y-75728095D02*
X112840533Y-75728095D01*
X112840533Y-75728095D02*
X112983390Y-75775714D01*
X112983390Y-75775714D02*
X113554819Y-76347142D01*
X113554819Y-76347142D02*
X113554819Y-75728095D01*
X77246666Y-67299819D02*
X77246666Y-68014104D01*
X77246666Y-68014104D02*
X77199047Y-68156961D01*
X77199047Y-68156961D02*
X77103809Y-68252200D01*
X77103809Y-68252200D02*
X76960952Y-68299819D01*
X76960952Y-68299819D02*
X76865714Y-68299819D01*
X78199047Y-67299819D02*
X77722857Y-67299819D01*
X77722857Y-67299819D02*
X77675238Y-67776009D01*
X77675238Y-67776009D02*
X77722857Y-67728390D01*
X77722857Y-67728390D02*
X77818095Y-67680771D01*
X77818095Y-67680771D02*
X78056190Y-67680771D01*
X78056190Y-67680771D02*
X78151428Y-67728390D01*
X78151428Y-67728390D02*
X78199047Y-67776009D01*
X78199047Y-67776009D02*
X78246666Y-67871247D01*
X78246666Y-67871247D02*
X78246666Y-68109342D01*
X78246666Y-68109342D02*
X78199047Y-68204580D01*
X78199047Y-68204580D02*
X78151428Y-68252200D01*
X78151428Y-68252200D02*
X78056190Y-68299819D01*
X78056190Y-68299819D02*
X77818095Y-68299819D01*
X77818095Y-68299819D02*
X77722857Y-68252200D01*
X77722857Y-68252200D02*
X77675238Y-68204580D01*
X121847142Y-58559580D02*
X121799523Y-58607200D01*
X121799523Y-58607200D02*
X121656666Y-58654819D01*
X121656666Y-58654819D02*
X121561428Y-58654819D01*
X121561428Y-58654819D02*
X121418571Y-58607200D01*
X121418571Y-58607200D02*
X121323333Y-58511961D01*
X121323333Y-58511961D02*
X121275714Y-58416723D01*
X121275714Y-58416723D02*
X121228095Y-58226247D01*
X121228095Y-58226247D02*
X121228095Y-58083390D01*
X121228095Y-58083390D02*
X121275714Y-57892914D01*
X121275714Y-57892914D02*
X121323333Y-57797676D01*
X121323333Y-57797676D02*
X121418571Y-57702438D01*
X121418571Y-57702438D02*
X121561428Y-57654819D01*
X121561428Y-57654819D02*
X121656666Y-57654819D01*
X121656666Y-57654819D02*
X121799523Y-57702438D01*
X121799523Y-57702438D02*
X121847142Y-57750057D01*
X122228095Y-57750057D02*
X122275714Y-57702438D01*
X122275714Y-57702438D02*
X122370952Y-57654819D01*
X122370952Y-57654819D02*
X122609047Y-57654819D01*
X122609047Y-57654819D02*
X122704285Y-57702438D01*
X122704285Y-57702438D02*
X122751904Y-57750057D01*
X122751904Y-57750057D02*
X122799523Y-57845295D01*
X122799523Y-57845295D02*
X122799523Y-57940533D01*
X122799523Y-57940533D02*
X122751904Y-58083390D01*
X122751904Y-58083390D02*
X122180476Y-58654819D01*
X122180476Y-58654819D02*
X122799523Y-58654819D01*
X123418571Y-57654819D02*
X123513809Y-57654819D01*
X123513809Y-57654819D02*
X123609047Y-57702438D01*
X123609047Y-57702438D02*
X123656666Y-57750057D01*
X123656666Y-57750057D02*
X123704285Y-57845295D01*
X123704285Y-57845295D02*
X123751904Y-58035771D01*
X123751904Y-58035771D02*
X123751904Y-58273866D01*
X123751904Y-58273866D02*
X123704285Y-58464342D01*
X123704285Y-58464342D02*
X123656666Y-58559580D01*
X123656666Y-58559580D02*
X123609047Y-58607200D01*
X123609047Y-58607200D02*
X123513809Y-58654819D01*
X123513809Y-58654819D02*
X123418571Y-58654819D01*
X123418571Y-58654819D02*
X123323333Y-58607200D01*
X123323333Y-58607200D02*
X123275714Y-58559580D01*
X123275714Y-58559580D02*
X123228095Y-58464342D01*
X123228095Y-58464342D02*
X123180476Y-58273866D01*
X123180476Y-58273866D02*
X123180476Y-58035771D01*
X123180476Y-58035771D02*
X123228095Y-57845295D01*
X123228095Y-57845295D02*
X123275714Y-57750057D01*
X123275714Y-57750057D02*
X123323333Y-57702438D01*
X123323333Y-57702438D02*
X123418571Y-57654819D01*
X128437142Y-78864819D02*
X128103809Y-78388628D01*
X127865714Y-78864819D02*
X127865714Y-77864819D01*
X127865714Y-77864819D02*
X128246666Y-77864819D01*
X128246666Y-77864819D02*
X128341904Y-77912438D01*
X128341904Y-77912438D02*
X128389523Y-77960057D01*
X128389523Y-77960057D02*
X128437142Y-78055295D01*
X128437142Y-78055295D02*
X128437142Y-78198152D01*
X128437142Y-78198152D02*
X128389523Y-78293390D01*
X128389523Y-78293390D02*
X128341904Y-78341009D01*
X128341904Y-78341009D02*
X128246666Y-78388628D01*
X128246666Y-78388628D02*
X127865714Y-78388628D01*
X128818095Y-77960057D02*
X128865714Y-77912438D01*
X128865714Y-77912438D02*
X128960952Y-77864819D01*
X128960952Y-77864819D02*
X129199047Y-77864819D01*
X129199047Y-77864819D02*
X129294285Y-77912438D01*
X129294285Y-77912438D02*
X129341904Y-77960057D01*
X129341904Y-77960057D02*
X129389523Y-78055295D01*
X129389523Y-78055295D02*
X129389523Y-78150533D01*
X129389523Y-78150533D02*
X129341904Y-78293390D01*
X129341904Y-78293390D02*
X128770476Y-78864819D01*
X128770476Y-78864819D02*
X129389523Y-78864819D01*
X130008571Y-77864819D02*
X130103809Y-77864819D01*
X130103809Y-77864819D02*
X130199047Y-77912438D01*
X130199047Y-77912438D02*
X130246666Y-77960057D01*
X130246666Y-77960057D02*
X130294285Y-78055295D01*
X130294285Y-78055295D02*
X130341904Y-78245771D01*
X130341904Y-78245771D02*
X130341904Y-78483866D01*
X130341904Y-78483866D02*
X130294285Y-78674342D01*
X130294285Y-78674342D02*
X130246666Y-78769580D01*
X130246666Y-78769580D02*
X130199047Y-78817200D01*
X130199047Y-78817200D02*
X130103809Y-78864819D01*
X130103809Y-78864819D02*
X130008571Y-78864819D01*
X130008571Y-78864819D02*
X129913333Y-78817200D01*
X129913333Y-78817200D02*
X129865714Y-78769580D01*
X129865714Y-78769580D02*
X129818095Y-78674342D01*
X129818095Y-78674342D02*
X129770476Y-78483866D01*
X129770476Y-78483866D02*
X129770476Y-78245771D01*
X129770476Y-78245771D02*
X129818095Y-78055295D01*
X129818095Y-78055295D02*
X129865714Y-77960057D01*
X129865714Y-77960057D02*
X129913333Y-77912438D01*
X129913333Y-77912438D02*
X130008571Y-77864819D01*
X94843333Y-90939580D02*
X94795714Y-90987200D01*
X94795714Y-90987200D02*
X94652857Y-91034819D01*
X94652857Y-91034819D02*
X94557619Y-91034819D01*
X94557619Y-91034819D02*
X94414762Y-90987200D01*
X94414762Y-90987200D02*
X94319524Y-90891961D01*
X94319524Y-90891961D02*
X94271905Y-90796723D01*
X94271905Y-90796723D02*
X94224286Y-90606247D01*
X94224286Y-90606247D02*
X94224286Y-90463390D01*
X94224286Y-90463390D02*
X94271905Y-90272914D01*
X94271905Y-90272914D02*
X94319524Y-90177676D01*
X94319524Y-90177676D02*
X94414762Y-90082438D01*
X94414762Y-90082438D02*
X94557619Y-90034819D01*
X94557619Y-90034819D02*
X94652857Y-90034819D01*
X94652857Y-90034819D02*
X94795714Y-90082438D01*
X94795714Y-90082438D02*
X94843333Y-90130057D01*
X95748095Y-90034819D02*
X95271905Y-90034819D01*
X95271905Y-90034819D02*
X95224286Y-90511009D01*
X95224286Y-90511009D02*
X95271905Y-90463390D01*
X95271905Y-90463390D02*
X95367143Y-90415771D01*
X95367143Y-90415771D02*
X95605238Y-90415771D01*
X95605238Y-90415771D02*
X95700476Y-90463390D01*
X95700476Y-90463390D02*
X95748095Y-90511009D01*
X95748095Y-90511009D02*
X95795714Y-90606247D01*
X95795714Y-90606247D02*
X95795714Y-90844342D01*
X95795714Y-90844342D02*
X95748095Y-90939580D01*
X95748095Y-90939580D02*
X95700476Y-90987200D01*
X95700476Y-90987200D02*
X95605238Y-91034819D01*
X95605238Y-91034819D02*
X95367143Y-91034819D01*
X95367143Y-91034819D02*
X95271905Y-90987200D01*
X95271905Y-90987200D02*
X95224286Y-90939580D01*
X130839580Y-49872857D02*
X130887200Y-49920476D01*
X130887200Y-49920476D02*
X130934819Y-50063333D01*
X130934819Y-50063333D02*
X130934819Y-50158571D01*
X130934819Y-50158571D02*
X130887200Y-50301428D01*
X130887200Y-50301428D02*
X130791961Y-50396666D01*
X130791961Y-50396666D02*
X130696723Y-50444285D01*
X130696723Y-50444285D02*
X130506247Y-50491904D01*
X130506247Y-50491904D02*
X130363390Y-50491904D01*
X130363390Y-50491904D02*
X130172914Y-50444285D01*
X130172914Y-50444285D02*
X130077676Y-50396666D01*
X130077676Y-50396666D02*
X129982438Y-50301428D01*
X129982438Y-50301428D02*
X129934819Y-50158571D01*
X129934819Y-50158571D02*
X129934819Y-50063333D01*
X129934819Y-50063333D02*
X129982438Y-49920476D01*
X129982438Y-49920476D02*
X130030057Y-49872857D01*
X130934819Y-48920476D02*
X130934819Y-49491904D01*
X130934819Y-49206190D02*
X129934819Y-49206190D01*
X129934819Y-49206190D02*
X130077676Y-49301428D01*
X130077676Y-49301428D02*
X130172914Y-49396666D01*
X130172914Y-49396666D02*
X130220533Y-49491904D01*
X130363390Y-48349047D02*
X130315771Y-48444285D01*
X130315771Y-48444285D02*
X130268152Y-48491904D01*
X130268152Y-48491904D02*
X130172914Y-48539523D01*
X130172914Y-48539523D02*
X130125295Y-48539523D01*
X130125295Y-48539523D02*
X130030057Y-48491904D01*
X130030057Y-48491904D02*
X129982438Y-48444285D01*
X129982438Y-48444285D02*
X129934819Y-48349047D01*
X129934819Y-48349047D02*
X129934819Y-48158571D01*
X129934819Y-48158571D02*
X129982438Y-48063333D01*
X129982438Y-48063333D02*
X130030057Y-48015714D01*
X130030057Y-48015714D02*
X130125295Y-47968095D01*
X130125295Y-47968095D02*
X130172914Y-47968095D01*
X130172914Y-47968095D02*
X130268152Y-48015714D01*
X130268152Y-48015714D02*
X130315771Y-48063333D01*
X130315771Y-48063333D02*
X130363390Y-48158571D01*
X130363390Y-48158571D02*
X130363390Y-48349047D01*
X130363390Y-48349047D02*
X130411009Y-48444285D01*
X130411009Y-48444285D02*
X130458628Y-48491904D01*
X130458628Y-48491904D02*
X130553866Y-48539523D01*
X130553866Y-48539523D02*
X130744342Y-48539523D01*
X130744342Y-48539523D02*
X130839580Y-48491904D01*
X130839580Y-48491904D02*
X130887200Y-48444285D01*
X130887200Y-48444285D02*
X130934819Y-48349047D01*
X130934819Y-48349047D02*
X130934819Y-48158571D01*
X130934819Y-48158571D02*
X130887200Y-48063333D01*
X130887200Y-48063333D02*
X130839580Y-48015714D01*
X130839580Y-48015714D02*
X130744342Y-47968095D01*
X130744342Y-47968095D02*
X130553866Y-47968095D01*
X130553866Y-47968095D02*
X130458628Y-48015714D01*
X130458628Y-48015714D02*
X130411009Y-48063333D01*
X130411009Y-48063333D02*
X130363390Y-48158571D01*
X103067142Y-74309580D02*
X103019523Y-74357200D01*
X103019523Y-74357200D02*
X102876666Y-74404819D01*
X102876666Y-74404819D02*
X102781428Y-74404819D01*
X102781428Y-74404819D02*
X102638571Y-74357200D01*
X102638571Y-74357200D02*
X102543333Y-74261961D01*
X102543333Y-74261961D02*
X102495714Y-74166723D01*
X102495714Y-74166723D02*
X102448095Y-73976247D01*
X102448095Y-73976247D02*
X102448095Y-73833390D01*
X102448095Y-73833390D02*
X102495714Y-73642914D01*
X102495714Y-73642914D02*
X102543333Y-73547676D01*
X102543333Y-73547676D02*
X102638571Y-73452438D01*
X102638571Y-73452438D02*
X102781428Y-73404819D01*
X102781428Y-73404819D02*
X102876666Y-73404819D01*
X102876666Y-73404819D02*
X103019523Y-73452438D01*
X103019523Y-73452438D02*
X103067142Y-73500057D01*
X103400476Y-73404819D02*
X104019523Y-73404819D01*
X104019523Y-73404819D02*
X103686190Y-73785771D01*
X103686190Y-73785771D02*
X103829047Y-73785771D01*
X103829047Y-73785771D02*
X103924285Y-73833390D01*
X103924285Y-73833390D02*
X103971904Y-73881009D01*
X103971904Y-73881009D02*
X104019523Y-73976247D01*
X104019523Y-73976247D02*
X104019523Y-74214342D01*
X104019523Y-74214342D02*
X103971904Y-74309580D01*
X103971904Y-74309580D02*
X103924285Y-74357200D01*
X103924285Y-74357200D02*
X103829047Y-74404819D01*
X103829047Y-74404819D02*
X103543333Y-74404819D01*
X103543333Y-74404819D02*
X103448095Y-74357200D01*
X103448095Y-74357200D02*
X103400476Y-74309580D01*
X104400476Y-73500057D02*
X104448095Y-73452438D01*
X104448095Y-73452438D02*
X104543333Y-73404819D01*
X104543333Y-73404819D02*
X104781428Y-73404819D01*
X104781428Y-73404819D02*
X104876666Y-73452438D01*
X104876666Y-73452438D02*
X104924285Y-73500057D01*
X104924285Y-73500057D02*
X104971904Y-73595295D01*
X104971904Y-73595295D02*
X104971904Y-73690533D01*
X104971904Y-73690533D02*
X104924285Y-73833390D01*
X104924285Y-73833390D02*
X104352857Y-74404819D01*
X104352857Y-74404819D02*
X104971904Y-74404819D01*
X90573333Y-90979580D02*
X90525714Y-91027200D01*
X90525714Y-91027200D02*
X90382857Y-91074819D01*
X90382857Y-91074819D02*
X90287619Y-91074819D01*
X90287619Y-91074819D02*
X90144762Y-91027200D01*
X90144762Y-91027200D02*
X90049524Y-90931961D01*
X90049524Y-90931961D02*
X90001905Y-90836723D01*
X90001905Y-90836723D02*
X89954286Y-90646247D01*
X89954286Y-90646247D02*
X89954286Y-90503390D01*
X89954286Y-90503390D02*
X90001905Y-90312914D01*
X90001905Y-90312914D02*
X90049524Y-90217676D01*
X90049524Y-90217676D02*
X90144762Y-90122438D01*
X90144762Y-90122438D02*
X90287619Y-90074819D01*
X90287619Y-90074819D02*
X90382857Y-90074819D01*
X90382857Y-90074819D02*
X90525714Y-90122438D01*
X90525714Y-90122438D02*
X90573333Y-90170057D01*
X91525714Y-91074819D02*
X90954286Y-91074819D01*
X91240000Y-91074819D02*
X91240000Y-90074819D01*
X91240000Y-90074819D02*
X91144762Y-90217676D01*
X91144762Y-90217676D02*
X91049524Y-90312914D01*
X91049524Y-90312914D02*
X90954286Y-90360533D01*
X88383333Y-56364819D02*
X88050000Y-55888628D01*
X87811905Y-56364819D02*
X87811905Y-55364819D01*
X87811905Y-55364819D02*
X88192857Y-55364819D01*
X88192857Y-55364819D02*
X88288095Y-55412438D01*
X88288095Y-55412438D02*
X88335714Y-55460057D01*
X88335714Y-55460057D02*
X88383333Y-55555295D01*
X88383333Y-55555295D02*
X88383333Y-55698152D01*
X88383333Y-55698152D02*
X88335714Y-55793390D01*
X88335714Y-55793390D02*
X88288095Y-55841009D01*
X88288095Y-55841009D02*
X88192857Y-55888628D01*
X88192857Y-55888628D02*
X87811905Y-55888628D01*
X89288095Y-55364819D02*
X88811905Y-55364819D01*
X88811905Y-55364819D02*
X88764286Y-55841009D01*
X88764286Y-55841009D02*
X88811905Y-55793390D01*
X88811905Y-55793390D02*
X88907143Y-55745771D01*
X88907143Y-55745771D02*
X89145238Y-55745771D01*
X89145238Y-55745771D02*
X89240476Y-55793390D01*
X89240476Y-55793390D02*
X89288095Y-55841009D01*
X89288095Y-55841009D02*
X89335714Y-55936247D01*
X89335714Y-55936247D02*
X89335714Y-56174342D01*
X89335714Y-56174342D02*
X89288095Y-56269580D01*
X89288095Y-56269580D02*
X89240476Y-56317200D01*
X89240476Y-56317200D02*
X89145238Y-56364819D01*
X89145238Y-56364819D02*
X88907143Y-56364819D01*
X88907143Y-56364819D02*
X88811905Y-56317200D01*
X88811905Y-56317200D02*
X88764286Y-56269580D01*
X92673333Y-99659580D02*
X92625714Y-99707200D01*
X92625714Y-99707200D02*
X92482857Y-99754819D01*
X92482857Y-99754819D02*
X92387619Y-99754819D01*
X92387619Y-99754819D02*
X92244762Y-99707200D01*
X92244762Y-99707200D02*
X92149524Y-99611961D01*
X92149524Y-99611961D02*
X92101905Y-99516723D01*
X92101905Y-99516723D02*
X92054286Y-99326247D01*
X92054286Y-99326247D02*
X92054286Y-99183390D01*
X92054286Y-99183390D02*
X92101905Y-98992914D01*
X92101905Y-98992914D02*
X92149524Y-98897676D01*
X92149524Y-98897676D02*
X92244762Y-98802438D01*
X92244762Y-98802438D02*
X92387619Y-98754819D01*
X92387619Y-98754819D02*
X92482857Y-98754819D01*
X92482857Y-98754819D02*
X92625714Y-98802438D01*
X92625714Y-98802438D02*
X92673333Y-98850057D01*
X93530476Y-99088152D02*
X93530476Y-99754819D01*
X93292381Y-98707200D02*
X93054286Y-99421485D01*
X93054286Y-99421485D02*
X93673333Y-99421485D01*
X124706666Y-71834819D02*
X124706666Y-72549104D01*
X124706666Y-72549104D02*
X124659047Y-72691961D01*
X124659047Y-72691961D02*
X124563809Y-72787200D01*
X124563809Y-72787200D02*
X124420952Y-72834819D01*
X124420952Y-72834819D02*
X124325714Y-72834819D01*
X125087619Y-71834819D02*
X125706666Y-71834819D01*
X125706666Y-71834819D02*
X125373333Y-72215771D01*
X125373333Y-72215771D02*
X125516190Y-72215771D01*
X125516190Y-72215771D02*
X125611428Y-72263390D01*
X125611428Y-72263390D02*
X125659047Y-72311009D01*
X125659047Y-72311009D02*
X125706666Y-72406247D01*
X125706666Y-72406247D02*
X125706666Y-72644342D01*
X125706666Y-72644342D02*
X125659047Y-72739580D01*
X125659047Y-72739580D02*
X125611428Y-72787200D01*
X125611428Y-72787200D02*
X125516190Y-72834819D01*
X125516190Y-72834819D02*
X125230476Y-72834819D01*
X125230476Y-72834819D02*
X125135238Y-72787200D01*
X125135238Y-72787200D02*
X125087619Y-72739580D01*
X102537142Y-88064819D02*
X102203809Y-87588628D01*
X101965714Y-88064819D02*
X101965714Y-87064819D01*
X101965714Y-87064819D02*
X102346666Y-87064819D01*
X102346666Y-87064819D02*
X102441904Y-87112438D01*
X102441904Y-87112438D02*
X102489523Y-87160057D01*
X102489523Y-87160057D02*
X102537142Y-87255295D01*
X102537142Y-87255295D02*
X102537142Y-87398152D01*
X102537142Y-87398152D02*
X102489523Y-87493390D01*
X102489523Y-87493390D02*
X102441904Y-87541009D01*
X102441904Y-87541009D02*
X102346666Y-87588628D01*
X102346666Y-87588628D02*
X101965714Y-87588628D01*
X102918095Y-87160057D02*
X102965714Y-87112438D01*
X102965714Y-87112438D02*
X103060952Y-87064819D01*
X103060952Y-87064819D02*
X103299047Y-87064819D01*
X103299047Y-87064819D02*
X103394285Y-87112438D01*
X103394285Y-87112438D02*
X103441904Y-87160057D01*
X103441904Y-87160057D02*
X103489523Y-87255295D01*
X103489523Y-87255295D02*
X103489523Y-87350533D01*
X103489523Y-87350533D02*
X103441904Y-87493390D01*
X103441904Y-87493390D02*
X102870476Y-88064819D01*
X102870476Y-88064819D02*
X103489523Y-88064819D01*
X104346666Y-87398152D02*
X104346666Y-88064819D01*
X104108571Y-87017200D02*
X103870476Y-87731485D01*
X103870476Y-87731485D02*
X104489523Y-87731485D01*
X105087142Y-72279580D02*
X105039523Y-72327200D01*
X105039523Y-72327200D02*
X104896666Y-72374819D01*
X104896666Y-72374819D02*
X104801428Y-72374819D01*
X104801428Y-72374819D02*
X104658571Y-72327200D01*
X104658571Y-72327200D02*
X104563333Y-72231961D01*
X104563333Y-72231961D02*
X104515714Y-72136723D01*
X104515714Y-72136723D02*
X104468095Y-71946247D01*
X104468095Y-71946247D02*
X104468095Y-71803390D01*
X104468095Y-71803390D02*
X104515714Y-71612914D01*
X104515714Y-71612914D02*
X104563333Y-71517676D01*
X104563333Y-71517676D02*
X104658571Y-71422438D01*
X104658571Y-71422438D02*
X104801428Y-71374819D01*
X104801428Y-71374819D02*
X104896666Y-71374819D01*
X104896666Y-71374819D02*
X105039523Y-71422438D01*
X105039523Y-71422438D02*
X105087142Y-71470057D01*
X105420476Y-71374819D02*
X106039523Y-71374819D01*
X106039523Y-71374819D02*
X105706190Y-71755771D01*
X105706190Y-71755771D02*
X105849047Y-71755771D01*
X105849047Y-71755771D02*
X105944285Y-71803390D01*
X105944285Y-71803390D02*
X105991904Y-71851009D01*
X105991904Y-71851009D02*
X106039523Y-71946247D01*
X106039523Y-71946247D02*
X106039523Y-72184342D01*
X106039523Y-72184342D02*
X105991904Y-72279580D01*
X105991904Y-72279580D02*
X105944285Y-72327200D01*
X105944285Y-72327200D02*
X105849047Y-72374819D01*
X105849047Y-72374819D02*
X105563333Y-72374819D01*
X105563333Y-72374819D02*
X105468095Y-72327200D01*
X105468095Y-72327200D02*
X105420476Y-72279580D01*
X106896666Y-71708152D02*
X106896666Y-72374819D01*
X106658571Y-71327200D02*
X106420476Y-72041485D01*
X106420476Y-72041485D02*
X107039523Y-72041485D01*
X113977319Y-55026666D02*
X113501128Y-55359999D01*
X113977319Y-55598094D02*
X112977319Y-55598094D01*
X112977319Y-55598094D02*
X112977319Y-55217142D01*
X112977319Y-55217142D02*
X113024938Y-55121904D01*
X113024938Y-55121904D02*
X113072557Y-55074285D01*
X113072557Y-55074285D02*
X113167795Y-55026666D01*
X113167795Y-55026666D02*
X113310652Y-55026666D01*
X113310652Y-55026666D02*
X113405890Y-55074285D01*
X113405890Y-55074285D02*
X113453509Y-55121904D01*
X113453509Y-55121904D02*
X113501128Y-55217142D01*
X113501128Y-55217142D02*
X113501128Y-55598094D01*
X113977319Y-54550475D02*
X113977319Y-54359999D01*
X113977319Y-54359999D02*
X113929700Y-54264761D01*
X113929700Y-54264761D02*
X113882080Y-54217142D01*
X113882080Y-54217142D02*
X113739223Y-54121904D01*
X113739223Y-54121904D02*
X113548747Y-54074285D01*
X113548747Y-54074285D02*
X113167795Y-54074285D01*
X113167795Y-54074285D02*
X113072557Y-54121904D01*
X113072557Y-54121904D02*
X113024938Y-54169523D01*
X113024938Y-54169523D02*
X112977319Y-54264761D01*
X112977319Y-54264761D02*
X112977319Y-54455237D01*
X112977319Y-54455237D02*
X113024938Y-54550475D01*
X113024938Y-54550475D02*
X113072557Y-54598094D01*
X113072557Y-54598094D02*
X113167795Y-54645713D01*
X113167795Y-54645713D02*
X113405890Y-54645713D01*
X113405890Y-54645713D02*
X113501128Y-54598094D01*
X113501128Y-54598094D02*
X113548747Y-54550475D01*
X113548747Y-54550475D02*
X113596366Y-54455237D01*
X113596366Y-54455237D02*
X113596366Y-54264761D01*
X113596366Y-54264761D02*
X113548747Y-54169523D01*
X113548747Y-54169523D02*
X113501128Y-54121904D01*
X113501128Y-54121904D02*
X113405890Y-54074285D01*
X117346667Y-83127200D02*
X117489524Y-83174819D01*
X117489524Y-83174819D02*
X117727619Y-83174819D01*
X117727619Y-83174819D02*
X117822857Y-83127200D01*
X117822857Y-83127200D02*
X117870476Y-83079580D01*
X117870476Y-83079580D02*
X117918095Y-82984342D01*
X117918095Y-82984342D02*
X117918095Y-82889104D01*
X117918095Y-82889104D02*
X117870476Y-82793866D01*
X117870476Y-82793866D02*
X117822857Y-82746247D01*
X117822857Y-82746247D02*
X117727619Y-82698628D01*
X117727619Y-82698628D02*
X117537143Y-82651009D01*
X117537143Y-82651009D02*
X117441905Y-82603390D01*
X117441905Y-82603390D02*
X117394286Y-82555771D01*
X117394286Y-82555771D02*
X117346667Y-82460533D01*
X117346667Y-82460533D02*
X117346667Y-82365295D01*
X117346667Y-82365295D02*
X117394286Y-82270057D01*
X117394286Y-82270057D02*
X117441905Y-82222438D01*
X117441905Y-82222438D02*
X117537143Y-82174819D01*
X117537143Y-82174819D02*
X117775238Y-82174819D01*
X117775238Y-82174819D02*
X117918095Y-82222438D01*
X118251429Y-82174819D02*
X118489524Y-83174819D01*
X118489524Y-83174819D02*
X118680000Y-82460533D01*
X118680000Y-82460533D02*
X118870476Y-83174819D01*
X118870476Y-83174819D02*
X119108572Y-82174819D01*
X119441905Y-82270057D02*
X119489524Y-82222438D01*
X119489524Y-82222438D02*
X119584762Y-82174819D01*
X119584762Y-82174819D02*
X119822857Y-82174819D01*
X119822857Y-82174819D02*
X119918095Y-82222438D01*
X119918095Y-82222438D02*
X119965714Y-82270057D01*
X119965714Y-82270057D02*
X120013333Y-82365295D01*
X120013333Y-82365295D02*
X120013333Y-82460533D01*
X120013333Y-82460533D02*
X119965714Y-82603390D01*
X119965714Y-82603390D02*
X119394286Y-83174819D01*
X119394286Y-83174819D02*
X120013333Y-83174819D01*
X102573333Y-98884819D02*
X102240000Y-98408628D01*
X102001905Y-98884819D02*
X102001905Y-97884819D01*
X102001905Y-97884819D02*
X102382857Y-97884819D01*
X102382857Y-97884819D02*
X102478095Y-97932438D01*
X102478095Y-97932438D02*
X102525714Y-97980057D01*
X102525714Y-97980057D02*
X102573333Y-98075295D01*
X102573333Y-98075295D02*
X102573333Y-98218152D01*
X102573333Y-98218152D02*
X102525714Y-98313390D01*
X102525714Y-98313390D02*
X102478095Y-98361009D01*
X102478095Y-98361009D02*
X102382857Y-98408628D01*
X102382857Y-98408628D02*
X102001905Y-98408628D01*
X103430476Y-98218152D02*
X103430476Y-98884819D01*
X103192381Y-97837200D02*
X102954286Y-98551485D01*
X102954286Y-98551485D02*
X103573333Y-98551485D01*
X128397142Y-76229580D02*
X128349523Y-76277200D01*
X128349523Y-76277200D02*
X128206666Y-76324819D01*
X128206666Y-76324819D02*
X128111428Y-76324819D01*
X128111428Y-76324819D02*
X127968571Y-76277200D01*
X127968571Y-76277200D02*
X127873333Y-76181961D01*
X127873333Y-76181961D02*
X127825714Y-76086723D01*
X127825714Y-76086723D02*
X127778095Y-75896247D01*
X127778095Y-75896247D02*
X127778095Y-75753390D01*
X127778095Y-75753390D02*
X127825714Y-75562914D01*
X127825714Y-75562914D02*
X127873333Y-75467676D01*
X127873333Y-75467676D02*
X127968571Y-75372438D01*
X127968571Y-75372438D02*
X128111428Y-75324819D01*
X128111428Y-75324819D02*
X128206666Y-75324819D01*
X128206666Y-75324819D02*
X128349523Y-75372438D01*
X128349523Y-75372438D02*
X128397142Y-75420057D01*
X128730476Y-75324819D02*
X129349523Y-75324819D01*
X129349523Y-75324819D02*
X129016190Y-75705771D01*
X129016190Y-75705771D02*
X129159047Y-75705771D01*
X129159047Y-75705771D02*
X129254285Y-75753390D01*
X129254285Y-75753390D02*
X129301904Y-75801009D01*
X129301904Y-75801009D02*
X129349523Y-75896247D01*
X129349523Y-75896247D02*
X129349523Y-76134342D01*
X129349523Y-76134342D02*
X129301904Y-76229580D01*
X129301904Y-76229580D02*
X129254285Y-76277200D01*
X129254285Y-76277200D02*
X129159047Y-76324819D01*
X129159047Y-76324819D02*
X128873333Y-76324819D01*
X128873333Y-76324819D02*
X128778095Y-76277200D01*
X128778095Y-76277200D02*
X128730476Y-76229580D01*
X129968571Y-75324819D02*
X130063809Y-75324819D01*
X130063809Y-75324819D02*
X130159047Y-75372438D01*
X130159047Y-75372438D02*
X130206666Y-75420057D01*
X130206666Y-75420057D02*
X130254285Y-75515295D01*
X130254285Y-75515295D02*
X130301904Y-75705771D01*
X130301904Y-75705771D02*
X130301904Y-75943866D01*
X130301904Y-75943866D02*
X130254285Y-76134342D01*
X130254285Y-76134342D02*
X130206666Y-76229580D01*
X130206666Y-76229580D02*
X130159047Y-76277200D01*
X130159047Y-76277200D02*
X130063809Y-76324819D01*
X130063809Y-76324819D02*
X129968571Y-76324819D01*
X129968571Y-76324819D02*
X129873333Y-76277200D01*
X129873333Y-76277200D02*
X129825714Y-76229580D01*
X129825714Y-76229580D02*
X129778095Y-76134342D01*
X129778095Y-76134342D02*
X129730476Y-75943866D01*
X129730476Y-75943866D02*
X129730476Y-75705771D01*
X129730476Y-75705771D02*
X129778095Y-75515295D01*
X129778095Y-75515295D02*
X129825714Y-75420057D01*
X129825714Y-75420057D02*
X129873333Y-75372438D01*
X129873333Y-75372438D02*
X129968571Y-75324819D01*
X112318095Y-61284819D02*
X112318095Y-62094342D01*
X112318095Y-62094342D02*
X112365714Y-62189580D01*
X112365714Y-62189580D02*
X112413333Y-62237200D01*
X112413333Y-62237200D02*
X112508571Y-62284819D01*
X112508571Y-62284819D02*
X112699047Y-62284819D01*
X112699047Y-62284819D02*
X112794285Y-62237200D01*
X112794285Y-62237200D02*
X112841904Y-62189580D01*
X112841904Y-62189580D02*
X112889523Y-62094342D01*
X112889523Y-62094342D02*
X112889523Y-61284819D01*
X113794285Y-61618152D02*
X113794285Y-62284819D01*
X113556190Y-61237200D02*
X113318095Y-61951485D01*
X113318095Y-61951485D02*
X113937142Y-61951485D01*
X77106666Y-79719819D02*
X77106666Y-80434104D01*
X77106666Y-80434104D02*
X77059047Y-80576961D01*
X77059047Y-80576961D02*
X76963809Y-80672200D01*
X76963809Y-80672200D02*
X76820952Y-80719819D01*
X76820952Y-80719819D02*
X76725714Y-80719819D01*
X77487619Y-79719819D02*
X78154285Y-79719819D01*
X78154285Y-79719819D02*
X77725714Y-80719819D01*
X122097142Y-71449580D02*
X122049523Y-71497200D01*
X122049523Y-71497200D02*
X121906666Y-71544819D01*
X121906666Y-71544819D02*
X121811428Y-71544819D01*
X121811428Y-71544819D02*
X121668571Y-71497200D01*
X121668571Y-71497200D02*
X121573333Y-71401961D01*
X121573333Y-71401961D02*
X121525714Y-71306723D01*
X121525714Y-71306723D02*
X121478095Y-71116247D01*
X121478095Y-71116247D02*
X121478095Y-70973390D01*
X121478095Y-70973390D02*
X121525714Y-70782914D01*
X121525714Y-70782914D02*
X121573333Y-70687676D01*
X121573333Y-70687676D02*
X121668571Y-70592438D01*
X121668571Y-70592438D02*
X121811428Y-70544819D01*
X121811428Y-70544819D02*
X121906666Y-70544819D01*
X121906666Y-70544819D02*
X122049523Y-70592438D01*
X122049523Y-70592438D02*
X122097142Y-70640057D01*
X122430476Y-70544819D02*
X123049523Y-70544819D01*
X123049523Y-70544819D02*
X122716190Y-70925771D01*
X122716190Y-70925771D02*
X122859047Y-70925771D01*
X122859047Y-70925771D02*
X122954285Y-70973390D01*
X122954285Y-70973390D02*
X123001904Y-71021009D01*
X123001904Y-71021009D02*
X123049523Y-71116247D01*
X123049523Y-71116247D02*
X123049523Y-71354342D01*
X123049523Y-71354342D02*
X123001904Y-71449580D01*
X123001904Y-71449580D02*
X122954285Y-71497200D01*
X122954285Y-71497200D02*
X122859047Y-71544819D01*
X122859047Y-71544819D02*
X122573333Y-71544819D01*
X122573333Y-71544819D02*
X122478095Y-71497200D01*
X122478095Y-71497200D02*
X122430476Y-71449580D01*
X123382857Y-70544819D02*
X124001904Y-70544819D01*
X124001904Y-70544819D02*
X123668571Y-70925771D01*
X123668571Y-70925771D02*
X123811428Y-70925771D01*
X123811428Y-70925771D02*
X123906666Y-70973390D01*
X123906666Y-70973390D02*
X123954285Y-71021009D01*
X123954285Y-71021009D02*
X124001904Y-71116247D01*
X124001904Y-71116247D02*
X124001904Y-71354342D01*
X124001904Y-71354342D02*
X123954285Y-71449580D01*
X123954285Y-71449580D02*
X123906666Y-71497200D01*
X123906666Y-71497200D02*
X123811428Y-71544819D01*
X123811428Y-71544819D02*
X123525714Y-71544819D01*
X123525714Y-71544819D02*
X123430476Y-71497200D01*
X123430476Y-71497200D02*
X123382857Y-71449580D01*
X74054819Y-55342857D02*
X73578628Y-55676190D01*
X74054819Y-55914285D02*
X73054819Y-55914285D01*
X73054819Y-55914285D02*
X73054819Y-55533333D01*
X73054819Y-55533333D02*
X73102438Y-55438095D01*
X73102438Y-55438095D02*
X73150057Y-55390476D01*
X73150057Y-55390476D02*
X73245295Y-55342857D01*
X73245295Y-55342857D02*
X73388152Y-55342857D01*
X73388152Y-55342857D02*
X73483390Y-55390476D01*
X73483390Y-55390476D02*
X73531009Y-55438095D01*
X73531009Y-55438095D02*
X73578628Y-55533333D01*
X73578628Y-55533333D02*
X73578628Y-55914285D01*
X74054819Y-54390476D02*
X74054819Y-54961904D01*
X74054819Y-54676190D02*
X73054819Y-54676190D01*
X73054819Y-54676190D02*
X73197676Y-54771428D01*
X73197676Y-54771428D02*
X73292914Y-54866666D01*
X73292914Y-54866666D02*
X73340533Y-54961904D01*
X73054819Y-53485714D02*
X73054819Y-53961904D01*
X73054819Y-53961904D02*
X73531009Y-54009523D01*
X73531009Y-54009523D02*
X73483390Y-53961904D01*
X73483390Y-53961904D02*
X73435771Y-53866666D01*
X73435771Y-53866666D02*
X73435771Y-53628571D01*
X73435771Y-53628571D02*
X73483390Y-53533333D01*
X73483390Y-53533333D02*
X73531009Y-53485714D01*
X73531009Y-53485714D02*
X73626247Y-53438095D01*
X73626247Y-53438095D02*
X73864342Y-53438095D01*
X73864342Y-53438095D02*
X73959580Y-53485714D01*
X73959580Y-53485714D02*
X74007200Y-53533333D01*
X74007200Y-53533333D02*
X74054819Y-53628571D01*
X74054819Y-53628571D02*
X74054819Y-53866666D01*
X74054819Y-53866666D02*
X74007200Y-53961904D01*
X74007200Y-53961904D02*
X73959580Y-54009523D01*
X76966666Y-85914819D02*
X76966666Y-86629104D01*
X76966666Y-86629104D02*
X76919047Y-86771961D01*
X76919047Y-86771961D02*
X76823809Y-86867200D01*
X76823809Y-86867200D02*
X76680952Y-86914819D01*
X76680952Y-86914819D02*
X76585714Y-86914819D01*
X77871428Y-85914819D02*
X77680952Y-85914819D01*
X77680952Y-85914819D02*
X77585714Y-85962438D01*
X77585714Y-85962438D02*
X77538095Y-86010057D01*
X77538095Y-86010057D02*
X77442857Y-86152914D01*
X77442857Y-86152914D02*
X77395238Y-86343390D01*
X77395238Y-86343390D02*
X77395238Y-86724342D01*
X77395238Y-86724342D02*
X77442857Y-86819580D01*
X77442857Y-86819580D02*
X77490476Y-86867200D01*
X77490476Y-86867200D02*
X77585714Y-86914819D01*
X77585714Y-86914819D02*
X77776190Y-86914819D01*
X77776190Y-86914819D02*
X77871428Y-86867200D01*
X77871428Y-86867200D02*
X77919047Y-86819580D01*
X77919047Y-86819580D02*
X77966666Y-86724342D01*
X77966666Y-86724342D02*
X77966666Y-86486247D01*
X77966666Y-86486247D02*
X77919047Y-86391009D01*
X77919047Y-86391009D02*
X77871428Y-86343390D01*
X77871428Y-86343390D02*
X77776190Y-86295771D01*
X77776190Y-86295771D02*
X77585714Y-86295771D01*
X77585714Y-86295771D02*
X77490476Y-86343390D01*
X77490476Y-86343390D02*
X77442857Y-86391009D01*
X77442857Y-86391009D02*
X77395238Y-86486247D01*
X119539405Y-69734819D02*
X119539405Y-68734819D01*
X119539405Y-68734819D02*
X119777500Y-68734819D01*
X119777500Y-68734819D02*
X119920357Y-68782438D01*
X119920357Y-68782438D02*
X120015595Y-68877676D01*
X120015595Y-68877676D02*
X120063214Y-68972914D01*
X120063214Y-68972914D02*
X120110833Y-69163390D01*
X120110833Y-69163390D02*
X120110833Y-69306247D01*
X120110833Y-69306247D02*
X120063214Y-69496723D01*
X120063214Y-69496723D02*
X120015595Y-69591961D01*
X120015595Y-69591961D02*
X119920357Y-69687200D01*
X119920357Y-69687200D02*
X119777500Y-69734819D01*
X119777500Y-69734819D02*
X119539405Y-69734819D01*
X120444167Y-68734819D02*
X121063214Y-68734819D01*
X121063214Y-68734819D02*
X120729881Y-69115771D01*
X120729881Y-69115771D02*
X120872738Y-69115771D01*
X120872738Y-69115771D02*
X120967976Y-69163390D01*
X120967976Y-69163390D02*
X121015595Y-69211009D01*
X121015595Y-69211009D02*
X121063214Y-69306247D01*
X121063214Y-69306247D02*
X121063214Y-69544342D01*
X121063214Y-69544342D02*
X121015595Y-69639580D01*
X121015595Y-69639580D02*
X120967976Y-69687200D01*
X120967976Y-69687200D02*
X120872738Y-69734819D01*
X120872738Y-69734819D02*
X120587024Y-69734819D01*
X120587024Y-69734819D02*
X120491786Y-69687200D01*
X120491786Y-69687200D02*
X120444167Y-69639580D01*
X125007142Y-61514819D02*
X124673809Y-61038628D01*
X124435714Y-61514819D02*
X124435714Y-60514819D01*
X124435714Y-60514819D02*
X124816666Y-60514819D01*
X124816666Y-60514819D02*
X124911904Y-60562438D01*
X124911904Y-60562438D02*
X124959523Y-60610057D01*
X124959523Y-60610057D02*
X125007142Y-60705295D01*
X125007142Y-60705295D02*
X125007142Y-60848152D01*
X125007142Y-60848152D02*
X124959523Y-60943390D01*
X124959523Y-60943390D02*
X124911904Y-60991009D01*
X124911904Y-60991009D02*
X124816666Y-61038628D01*
X124816666Y-61038628D02*
X124435714Y-61038628D01*
X125959523Y-61514819D02*
X125388095Y-61514819D01*
X125673809Y-61514819D02*
X125673809Y-60514819D01*
X125673809Y-60514819D02*
X125578571Y-60657676D01*
X125578571Y-60657676D02*
X125483333Y-60752914D01*
X125483333Y-60752914D02*
X125388095Y-60800533D01*
X126911904Y-61514819D02*
X126340476Y-61514819D01*
X126626190Y-61514819D02*
X126626190Y-60514819D01*
X126626190Y-60514819D02*
X126530952Y-60657676D01*
X126530952Y-60657676D02*
X126435714Y-60752914D01*
X126435714Y-60752914D02*
X126340476Y-60800533D01*
X81827142Y-55224819D02*
X81493809Y-54748628D01*
X81255714Y-55224819D02*
X81255714Y-54224819D01*
X81255714Y-54224819D02*
X81636666Y-54224819D01*
X81636666Y-54224819D02*
X81731904Y-54272438D01*
X81731904Y-54272438D02*
X81779523Y-54320057D01*
X81779523Y-54320057D02*
X81827142Y-54415295D01*
X81827142Y-54415295D02*
X81827142Y-54558152D01*
X81827142Y-54558152D02*
X81779523Y-54653390D01*
X81779523Y-54653390D02*
X81731904Y-54701009D01*
X81731904Y-54701009D02*
X81636666Y-54748628D01*
X81636666Y-54748628D02*
X81255714Y-54748628D01*
X82779523Y-55224819D02*
X82208095Y-55224819D01*
X82493809Y-55224819D02*
X82493809Y-54224819D01*
X82493809Y-54224819D02*
X82398571Y-54367676D01*
X82398571Y-54367676D02*
X82303333Y-54462914D01*
X82303333Y-54462914D02*
X82208095Y-54510533D01*
X83350952Y-54653390D02*
X83255714Y-54605771D01*
X83255714Y-54605771D02*
X83208095Y-54558152D01*
X83208095Y-54558152D02*
X83160476Y-54462914D01*
X83160476Y-54462914D02*
X83160476Y-54415295D01*
X83160476Y-54415295D02*
X83208095Y-54320057D01*
X83208095Y-54320057D02*
X83255714Y-54272438D01*
X83255714Y-54272438D02*
X83350952Y-54224819D01*
X83350952Y-54224819D02*
X83541428Y-54224819D01*
X83541428Y-54224819D02*
X83636666Y-54272438D01*
X83636666Y-54272438D02*
X83684285Y-54320057D01*
X83684285Y-54320057D02*
X83731904Y-54415295D01*
X83731904Y-54415295D02*
X83731904Y-54462914D01*
X83731904Y-54462914D02*
X83684285Y-54558152D01*
X83684285Y-54558152D02*
X83636666Y-54605771D01*
X83636666Y-54605771D02*
X83541428Y-54653390D01*
X83541428Y-54653390D02*
X83350952Y-54653390D01*
X83350952Y-54653390D02*
X83255714Y-54701009D01*
X83255714Y-54701009D02*
X83208095Y-54748628D01*
X83208095Y-54748628D02*
X83160476Y-54843866D01*
X83160476Y-54843866D02*
X83160476Y-55034342D01*
X83160476Y-55034342D02*
X83208095Y-55129580D01*
X83208095Y-55129580D02*
X83255714Y-55177200D01*
X83255714Y-55177200D02*
X83350952Y-55224819D01*
X83350952Y-55224819D02*
X83541428Y-55224819D01*
X83541428Y-55224819D02*
X83636666Y-55177200D01*
X83636666Y-55177200D02*
X83684285Y-55129580D01*
X83684285Y-55129580D02*
X83731904Y-55034342D01*
X83731904Y-55034342D02*
X83731904Y-54843866D01*
X83731904Y-54843866D02*
X83684285Y-54748628D01*
X83684285Y-54748628D02*
X83636666Y-54701009D01*
X83636666Y-54701009D02*
X83541428Y-54653390D01*
X128437142Y-83944819D02*
X128103809Y-83468628D01*
X127865714Y-83944819D02*
X127865714Y-82944819D01*
X127865714Y-82944819D02*
X128246666Y-82944819D01*
X128246666Y-82944819D02*
X128341904Y-82992438D01*
X128341904Y-82992438D02*
X128389523Y-83040057D01*
X128389523Y-83040057D02*
X128437142Y-83135295D01*
X128437142Y-83135295D02*
X128437142Y-83278152D01*
X128437142Y-83278152D02*
X128389523Y-83373390D01*
X128389523Y-83373390D02*
X128341904Y-83421009D01*
X128341904Y-83421009D02*
X128246666Y-83468628D01*
X128246666Y-83468628D02*
X127865714Y-83468628D01*
X128818095Y-83040057D02*
X128865714Y-82992438D01*
X128865714Y-82992438D02*
X128960952Y-82944819D01*
X128960952Y-82944819D02*
X129199047Y-82944819D01*
X129199047Y-82944819D02*
X129294285Y-82992438D01*
X129294285Y-82992438D02*
X129341904Y-83040057D01*
X129341904Y-83040057D02*
X129389523Y-83135295D01*
X129389523Y-83135295D02*
X129389523Y-83230533D01*
X129389523Y-83230533D02*
X129341904Y-83373390D01*
X129341904Y-83373390D02*
X128770476Y-83944819D01*
X128770476Y-83944819D02*
X129389523Y-83944819D01*
X129770476Y-83040057D02*
X129818095Y-82992438D01*
X129818095Y-82992438D02*
X129913333Y-82944819D01*
X129913333Y-82944819D02*
X130151428Y-82944819D01*
X130151428Y-82944819D02*
X130246666Y-82992438D01*
X130246666Y-82992438D02*
X130294285Y-83040057D01*
X130294285Y-83040057D02*
X130341904Y-83135295D01*
X130341904Y-83135295D02*
X130341904Y-83230533D01*
X130341904Y-83230533D02*
X130294285Y-83373390D01*
X130294285Y-83373390D02*
X129722857Y-83944819D01*
X129722857Y-83944819D02*
X130341904Y-83944819D01*
X119485833Y-57354819D02*
X119009643Y-57354819D01*
X119009643Y-57354819D02*
X119009643Y-56354819D01*
X119771548Y-56450057D02*
X119819167Y-56402438D01*
X119819167Y-56402438D02*
X119914405Y-56354819D01*
X119914405Y-56354819D02*
X120152500Y-56354819D01*
X120152500Y-56354819D02*
X120247738Y-56402438D01*
X120247738Y-56402438D02*
X120295357Y-56450057D01*
X120295357Y-56450057D02*
X120342976Y-56545295D01*
X120342976Y-56545295D02*
X120342976Y-56640533D01*
X120342976Y-56640533D02*
X120295357Y-56783390D01*
X120295357Y-56783390D02*
X119723929Y-57354819D01*
X119723929Y-57354819D02*
X120342976Y-57354819D01*
X122834642Y-63449580D02*
X122787023Y-63497200D01*
X122787023Y-63497200D02*
X122644166Y-63544819D01*
X122644166Y-63544819D02*
X122548928Y-63544819D01*
X122548928Y-63544819D02*
X122406071Y-63497200D01*
X122406071Y-63497200D02*
X122310833Y-63401961D01*
X122310833Y-63401961D02*
X122263214Y-63306723D01*
X122263214Y-63306723D02*
X122215595Y-63116247D01*
X122215595Y-63116247D02*
X122215595Y-62973390D01*
X122215595Y-62973390D02*
X122263214Y-62782914D01*
X122263214Y-62782914D02*
X122310833Y-62687676D01*
X122310833Y-62687676D02*
X122406071Y-62592438D01*
X122406071Y-62592438D02*
X122548928Y-62544819D01*
X122548928Y-62544819D02*
X122644166Y-62544819D01*
X122644166Y-62544819D02*
X122787023Y-62592438D01*
X122787023Y-62592438D02*
X122834642Y-62640057D01*
X123215595Y-62640057D02*
X123263214Y-62592438D01*
X123263214Y-62592438D02*
X123358452Y-62544819D01*
X123358452Y-62544819D02*
X123596547Y-62544819D01*
X123596547Y-62544819D02*
X123691785Y-62592438D01*
X123691785Y-62592438D02*
X123739404Y-62640057D01*
X123739404Y-62640057D02*
X123787023Y-62735295D01*
X123787023Y-62735295D02*
X123787023Y-62830533D01*
X123787023Y-62830533D02*
X123739404Y-62973390D01*
X123739404Y-62973390D02*
X123167976Y-63544819D01*
X123167976Y-63544819D02*
X123787023Y-63544819D01*
X124263214Y-63544819D02*
X124453690Y-63544819D01*
X124453690Y-63544819D02*
X124548928Y-63497200D01*
X124548928Y-63497200D02*
X124596547Y-63449580D01*
X124596547Y-63449580D02*
X124691785Y-63306723D01*
X124691785Y-63306723D02*
X124739404Y-63116247D01*
X124739404Y-63116247D02*
X124739404Y-62735295D01*
X124739404Y-62735295D02*
X124691785Y-62640057D01*
X124691785Y-62640057D02*
X124644166Y-62592438D01*
X124644166Y-62592438D02*
X124548928Y-62544819D01*
X124548928Y-62544819D02*
X124358452Y-62544819D01*
X124358452Y-62544819D02*
X124263214Y-62592438D01*
X124263214Y-62592438D02*
X124215595Y-62640057D01*
X124215595Y-62640057D02*
X124167976Y-62735295D01*
X124167976Y-62735295D02*
X124167976Y-62973390D01*
X124167976Y-62973390D02*
X124215595Y-63068628D01*
X124215595Y-63068628D02*
X124263214Y-63116247D01*
X124263214Y-63116247D02*
X124358452Y-63163866D01*
X124358452Y-63163866D02*
X124548928Y-63163866D01*
X124548928Y-63163866D02*
X124644166Y-63116247D01*
X124644166Y-63116247D02*
X124691785Y-63068628D01*
X124691785Y-63068628D02*
X124739404Y-62973390D01*
X107027142Y-98729580D02*
X106979523Y-98777200D01*
X106979523Y-98777200D02*
X106836666Y-98824819D01*
X106836666Y-98824819D02*
X106741428Y-98824819D01*
X106741428Y-98824819D02*
X106598571Y-98777200D01*
X106598571Y-98777200D02*
X106503333Y-98681961D01*
X106503333Y-98681961D02*
X106455714Y-98586723D01*
X106455714Y-98586723D02*
X106408095Y-98396247D01*
X106408095Y-98396247D02*
X106408095Y-98253390D01*
X106408095Y-98253390D02*
X106455714Y-98062914D01*
X106455714Y-98062914D02*
X106503333Y-97967676D01*
X106503333Y-97967676D02*
X106598571Y-97872438D01*
X106598571Y-97872438D02*
X106741428Y-97824819D01*
X106741428Y-97824819D02*
X106836666Y-97824819D01*
X106836666Y-97824819D02*
X106979523Y-97872438D01*
X106979523Y-97872438D02*
X107027142Y-97920057D01*
X107979523Y-98824819D02*
X107408095Y-98824819D01*
X107693809Y-98824819D02*
X107693809Y-97824819D01*
X107693809Y-97824819D02*
X107598571Y-97967676D01*
X107598571Y-97967676D02*
X107503333Y-98062914D01*
X107503333Y-98062914D02*
X107408095Y-98110533D01*
X108931904Y-98824819D02*
X108360476Y-98824819D01*
X108646190Y-98824819D02*
X108646190Y-97824819D01*
X108646190Y-97824819D02*
X108550952Y-97967676D01*
X108550952Y-97967676D02*
X108455714Y-98062914D01*
X108455714Y-98062914D02*
X108360476Y-98110533D01*
X81304761Y-52140057D02*
X81209523Y-52092438D01*
X81209523Y-52092438D02*
X81114285Y-51997200D01*
X81114285Y-51997200D02*
X80971428Y-51854342D01*
X80971428Y-51854342D02*
X80876190Y-51806723D01*
X80876190Y-51806723D02*
X80780952Y-51806723D01*
X80828571Y-52044819D02*
X80733333Y-51997200D01*
X80733333Y-51997200D02*
X80638095Y-51901961D01*
X80638095Y-51901961D02*
X80590476Y-51711485D01*
X80590476Y-51711485D02*
X80590476Y-51378152D01*
X80590476Y-51378152D02*
X80638095Y-51187676D01*
X80638095Y-51187676D02*
X80733333Y-51092438D01*
X80733333Y-51092438D02*
X80828571Y-51044819D01*
X80828571Y-51044819D02*
X81019047Y-51044819D01*
X81019047Y-51044819D02*
X81114285Y-51092438D01*
X81114285Y-51092438D02*
X81209523Y-51187676D01*
X81209523Y-51187676D02*
X81257142Y-51378152D01*
X81257142Y-51378152D02*
X81257142Y-51711485D01*
X81257142Y-51711485D02*
X81209523Y-51901961D01*
X81209523Y-51901961D02*
X81114285Y-51997200D01*
X81114285Y-51997200D02*
X81019047Y-52044819D01*
X81019047Y-52044819D02*
X80828571Y-52044819D01*
X82209523Y-52044819D02*
X81638095Y-52044819D01*
X81923809Y-52044819D02*
X81923809Y-51044819D01*
X81923809Y-51044819D02*
X81828571Y-51187676D01*
X81828571Y-51187676D02*
X81733333Y-51282914D01*
X81733333Y-51282914D02*
X81638095Y-51330533D01*
X78637142Y-58334819D02*
X78303809Y-57858628D01*
X78065714Y-58334819D02*
X78065714Y-57334819D01*
X78065714Y-57334819D02*
X78446666Y-57334819D01*
X78446666Y-57334819D02*
X78541904Y-57382438D01*
X78541904Y-57382438D02*
X78589523Y-57430057D01*
X78589523Y-57430057D02*
X78637142Y-57525295D01*
X78637142Y-57525295D02*
X78637142Y-57668152D01*
X78637142Y-57668152D02*
X78589523Y-57763390D01*
X78589523Y-57763390D02*
X78541904Y-57811009D01*
X78541904Y-57811009D02*
X78446666Y-57858628D01*
X78446666Y-57858628D02*
X78065714Y-57858628D01*
X79589523Y-58334819D02*
X79018095Y-58334819D01*
X79303809Y-58334819D02*
X79303809Y-57334819D01*
X79303809Y-57334819D02*
X79208571Y-57477676D01*
X79208571Y-57477676D02*
X79113333Y-57572914D01*
X79113333Y-57572914D02*
X79018095Y-57620533D01*
X80065714Y-58334819D02*
X80256190Y-58334819D01*
X80256190Y-58334819D02*
X80351428Y-58287200D01*
X80351428Y-58287200D02*
X80399047Y-58239580D01*
X80399047Y-58239580D02*
X80494285Y-58096723D01*
X80494285Y-58096723D02*
X80541904Y-57906247D01*
X80541904Y-57906247D02*
X80541904Y-57525295D01*
X80541904Y-57525295D02*
X80494285Y-57430057D01*
X80494285Y-57430057D02*
X80446666Y-57382438D01*
X80446666Y-57382438D02*
X80351428Y-57334819D01*
X80351428Y-57334819D02*
X80160952Y-57334819D01*
X80160952Y-57334819D02*
X80065714Y-57382438D01*
X80065714Y-57382438D02*
X80018095Y-57430057D01*
X80018095Y-57430057D02*
X79970476Y-57525295D01*
X79970476Y-57525295D02*
X79970476Y-57763390D01*
X79970476Y-57763390D02*
X80018095Y-57858628D01*
X80018095Y-57858628D02*
X80065714Y-57906247D01*
X80065714Y-57906247D02*
X80160952Y-57953866D01*
X80160952Y-57953866D02*
X80351428Y-57953866D01*
X80351428Y-57953866D02*
X80446666Y-57906247D01*
X80446666Y-57906247D02*
X80494285Y-57858628D01*
X80494285Y-57858628D02*
X80541904Y-57763390D01*
X82537200Y-63793332D02*
X82584819Y-63650475D01*
X82584819Y-63650475D02*
X82584819Y-63412380D01*
X82584819Y-63412380D02*
X82537200Y-63317142D01*
X82537200Y-63317142D02*
X82489580Y-63269523D01*
X82489580Y-63269523D02*
X82394342Y-63221904D01*
X82394342Y-63221904D02*
X82299104Y-63221904D01*
X82299104Y-63221904D02*
X82203866Y-63269523D01*
X82203866Y-63269523D02*
X82156247Y-63317142D01*
X82156247Y-63317142D02*
X82108628Y-63412380D01*
X82108628Y-63412380D02*
X82061009Y-63602856D01*
X82061009Y-63602856D02*
X82013390Y-63698094D01*
X82013390Y-63698094D02*
X81965771Y-63745713D01*
X81965771Y-63745713D02*
X81870533Y-63793332D01*
X81870533Y-63793332D02*
X81775295Y-63793332D01*
X81775295Y-63793332D02*
X81680057Y-63745713D01*
X81680057Y-63745713D02*
X81632438Y-63698094D01*
X81632438Y-63698094D02*
X81584819Y-63602856D01*
X81584819Y-63602856D02*
X81584819Y-63364761D01*
X81584819Y-63364761D02*
X81632438Y-63221904D01*
X81584819Y-62888570D02*
X82584819Y-62650475D01*
X82584819Y-62650475D02*
X81870533Y-62459999D01*
X81870533Y-62459999D02*
X82584819Y-62269523D01*
X82584819Y-62269523D02*
X81584819Y-62031428D01*
X82584819Y-61126666D02*
X82584819Y-61698094D01*
X82584819Y-61412380D02*
X81584819Y-61412380D01*
X81584819Y-61412380D02*
X81727676Y-61507618D01*
X81727676Y-61507618D02*
X81822914Y-61602856D01*
X81822914Y-61602856D02*
X81870533Y-61698094D01*
X91827142Y-63124819D02*
X91493809Y-62648628D01*
X91255714Y-63124819D02*
X91255714Y-62124819D01*
X91255714Y-62124819D02*
X91636666Y-62124819D01*
X91636666Y-62124819D02*
X91731904Y-62172438D01*
X91731904Y-62172438D02*
X91779523Y-62220057D01*
X91779523Y-62220057D02*
X91827142Y-62315295D01*
X91827142Y-62315295D02*
X91827142Y-62458152D01*
X91827142Y-62458152D02*
X91779523Y-62553390D01*
X91779523Y-62553390D02*
X91731904Y-62601009D01*
X91731904Y-62601009D02*
X91636666Y-62648628D01*
X91636666Y-62648628D02*
X91255714Y-62648628D01*
X92779523Y-63124819D02*
X92208095Y-63124819D01*
X92493809Y-63124819D02*
X92493809Y-62124819D01*
X92493809Y-62124819D02*
X92398571Y-62267676D01*
X92398571Y-62267676D02*
X92303333Y-62362914D01*
X92303333Y-62362914D02*
X92208095Y-62410533D01*
X93160476Y-62220057D02*
X93208095Y-62172438D01*
X93208095Y-62172438D02*
X93303333Y-62124819D01*
X93303333Y-62124819D02*
X93541428Y-62124819D01*
X93541428Y-62124819D02*
X93636666Y-62172438D01*
X93636666Y-62172438D02*
X93684285Y-62220057D01*
X93684285Y-62220057D02*
X93731904Y-62315295D01*
X93731904Y-62315295D02*
X93731904Y-62410533D01*
X93731904Y-62410533D02*
X93684285Y-62553390D01*
X93684285Y-62553390D02*
X93112857Y-63124819D01*
X93112857Y-63124819D02*
X93731904Y-63124819D01*
X105817142Y-57769580D02*
X105769523Y-57817200D01*
X105769523Y-57817200D02*
X105626666Y-57864819D01*
X105626666Y-57864819D02*
X105531428Y-57864819D01*
X105531428Y-57864819D02*
X105388571Y-57817200D01*
X105388571Y-57817200D02*
X105293333Y-57721961D01*
X105293333Y-57721961D02*
X105245714Y-57626723D01*
X105245714Y-57626723D02*
X105198095Y-57436247D01*
X105198095Y-57436247D02*
X105198095Y-57293390D01*
X105198095Y-57293390D02*
X105245714Y-57102914D01*
X105245714Y-57102914D02*
X105293333Y-57007676D01*
X105293333Y-57007676D02*
X105388571Y-56912438D01*
X105388571Y-56912438D02*
X105531428Y-56864819D01*
X105531428Y-56864819D02*
X105626666Y-56864819D01*
X105626666Y-56864819D02*
X105769523Y-56912438D01*
X105769523Y-56912438D02*
X105817142Y-56960057D01*
X106769523Y-57864819D02*
X106198095Y-57864819D01*
X106483809Y-57864819D02*
X106483809Y-56864819D01*
X106483809Y-56864819D02*
X106388571Y-57007676D01*
X106388571Y-57007676D02*
X106293333Y-57102914D01*
X106293333Y-57102914D02*
X106198095Y-57150533D01*
X107102857Y-56864819D02*
X107769523Y-56864819D01*
X107769523Y-56864819D02*
X107340952Y-57864819D01*
X118749642Y-61239580D02*
X118702023Y-61287200D01*
X118702023Y-61287200D02*
X118559166Y-61334819D01*
X118559166Y-61334819D02*
X118463928Y-61334819D01*
X118463928Y-61334819D02*
X118321071Y-61287200D01*
X118321071Y-61287200D02*
X118225833Y-61191961D01*
X118225833Y-61191961D02*
X118178214Y-61096723D01*
X118178214Y-61096723D02*
X118130595Y-60906247D01*
X118130595Y-60906247D02*
X118130595Y-60763390D01*
X118130595Y-60763390D02*
X118178214Y-60572914D01*
X118178214Y-60572914D02*
X118225833Y-60477676D01*
X118225833Y-60477676D02*
X118321071Y-60382438D01*
X118321071Y-60382438D02*
X118463928Y-60334819D01*
X118463928Y-60334819D02*
X118559166Y-60334819D01*
X118559166Y-60334819D02*
X118702023Y-60382438D01*
X118702023Y-60382438D02*
X118749642Y-60430057D01*
X119130595Y-60430057D02*
X119178214Y-60382438D01*
X119178214Y-60382438D02*
X119273452Y-60334819D01*
X119273452Y-60334819D02*
X119511547Y-60334819D01*
X119511547Y-60334819D02*
X119606785Y-60382438D01*
X119606785Y-60382438D02*
X119654404Y-60430057D01*
X119654404Y-60430057D02*
X119702023Y-60525295D01*
X119702023Y-60525295D02*
X119702023Y-60620533D01*
X119702023Y-60620533D02*
X119654404Y-60763390D01*
X119654404Y-60763390D02*
X119082976Y-61334819D01*
X119082976Y-61334819D02*
X119702023Y-61334819D01*
X120559166Y-60668152D02*
X120559166Y-61334819D01*
X120321071Y-60287200D02*
X120082976Y-61001485D01*
X120082976Y-61001485D02*
X120702023Y-61001485D01*
X116897141Y-96119580D02*
X116849522Y-96167200D01*
X116849522Y-96167200D02*
X116706665Y-96214819D01*
X116706665Y-96214819D02*
X116611427Y-96214819D01*
X116611427Y-96214819D02*
X116468570Y-96167200D01*
X116468570Y-96167200D02*
X116373332Y-96071961D01*
X116373332Y-96071961D02*
X116325713Y-95976723D01*
X116325713Y-95976723D02*
X116278094Y-95786247D01*
X116278094Y-95786247D02*
X116278094Y-95643390D01*
X116278094Y-95643390D02*
X116325713Y-95452914D01*
X116325713Y-95452914D02*
X116373332Y-95357676D01*
X116373332Y-95357676D02*
X116468570Y-95262438D01*
X116468570Y-95262438D02*
X116611427Y-95214819D01*
X116611427Y-95214819D02*
X116706665Y-95214819D01*
X116706665Y-95214819D02*
X116849522Y-95262438D01*
X116849522Y-95262438D02*
X116897141Y-95310057D01*
X117849522Y-96214819D02*
X117278094Y-96214819D01*
X117563808Y-96214819D02*
X117563808Y-95214819D01*
X117563808Y-95214819D02*
X117468570Y-95357676D01*
X117468570Y-95357676D02*
X117373332Y-95452914D01*
X117373332Y-95452914D02*
X117278094Y-95500533D01*
X118754284Y-95214819D02*
X118278094Y-95214819D01*
X118278094Y-95214819D02*
X118230475Y-95691009D01*
X118230475Y-95691009D02*
X118278094Y-95643390D01*
X118278094Y-95643390D02*
X118373332Y-95595771D01*
X118373332Y-95595771D02*
X118611427Y-95595771D01*
X118611427Y-95595771D02*
X118706665Y-95643390D01*
X118706665Y-95643390D02*
X118754284Y-95691009D01*
X118754284Y-95691009D02*
X118801903Y-95786247D01*
X118801903Y-95786247D02*
X118801903Y-96024342D01*
X118801903Y-96024342D02*
X118754284Y-96119580D01*
X118754284Y-96119580D02*
X118706665Y-96167200D01*
X118706665Y-96167200D02*
X118611427Y-96214819D01*
X118611427Y-96214819D02*
X118373332Y-96214819D01*
X118373332Y-96214819D02*
X118278094Y-96167200D01*
X118278094Y-96167200D02*
X118230475Y-96119580D01*
X99573333Y-89599580D02*
X99525714Y-89647200D01*
X99525714Y-89647200D02*
X99382857Y-89694819D01*
X99382857Y-89694819D02*
X99287619Y-89694819D01*
X99287619Y-89694819D02*
X99144762Y-89647200D01*
X99144762Y-89647200D02*
X99049524Y-89551961D01*
X99049524Y-89551961D02*
X99001905Y-89456723D01*
X99001905Y-89456723D02*
X98954286Y-89266247D01*
X98954286Y-89266247D02*
X98954286Y-89123390D01*
X98954286Y-89123390D02*
X99001905Y-88932914D01*
X99001905Y-88932914D02*
X99049524Y-88837676D01*
X99049524Y-88837676D02*
X99144762Y-88742438D01*
X99144762Y-88742438D02*
X99287619Y-88694819D01*
X99287619Y-88694819D02*
X99382857Y-88694819D01*
X99382857Y-88694819D02*
X99525714Y-88742438D01*
X99525714Y-88742438D02*
X99573333Y-88790057D01*
X99906667Y-88694819D02*
X100573333Y-88694819D01*
X100573333Y-88694819D02*
X100144762Y-89694819D01*
X91727142Y-67864819D02*
X91393809Y-67388628D01*
X91155714Y-67864819D02*
X91155714Y-66864819D01*
X91155714Y-66864819D02*
X91536666Y-66864819D01*
X91536666Y-66864819D02*
X91631904Y-66912438D01*
X91631904Y-66912438D02*
X91679523Y-66960057D01*
X91679523Y-66960057D02*
X91727142Y-67055295D01*
X91727142Y-67055295D02*
X91727142Y-67198152D01*
X91727142Y-67198152D02*
X91679523Y-67293390D01*
X91679523Y-67293390D02*
X91631904Y-67341009D01*
X91631904Y-67341009D02*
X91536666Y-67388628D01*
X91536666Y-67388628D02*
X91155714Y-67388628D01*
X92679523Y-67864819D02*
X92108095Y-67864819D01*
X92393809Y-67864819D02*
X92393809Y-66864819D01*
X92393809Y-66864819D02*
X92298571Y-67007676D01*
X92298571Y-67007676D02*
X92203333Y-67102914D01*
X92203333Y-67102914D02*
X92108095Y-67150533D01*
X93536666Y-67198152D02*
X93536666Y-67864819D01*
X93298571Y-66817200D02*
X93060476Y-67531485D01*
X93060476Y-67531485D02*
X93679523Y-67531485D01*
X73036666Y-96954819D02*
X73036666Y-97669104D01*
X73036666Y-97669104D02*
X72989047Y-97811961D01*
X72989047Y-97811961D02*
X72893809Y-97907200D01*
X72893809Y-97907200D02*
X72750952Y-97954819D01*
X72750952Y-97954819D02*
X72655714Y-97954819D01*
X74036666Y-97954819D02*
X73465238Y-97954819D01*
X73750952Y-97954819D02*
X73750952Y-96954819D01*
X73750952Y-96954819D02*
X73655714Y-97097676D01*
X73655714Y-97097676D02*
X73560476Y-97192914D01*
X73560476Y-97192914D02*
X73465238Y-97240533D01*
X116897142Y-91889580D02*
X116849523Y-91937200D01*
X116849523Y-91937200D02*
X116706666Y-91984819D01*
X116706666Y-91984819D02*
X116611428Y-91984819D01*
X116611428Y-91984819D02*
X116468571Y-91937200D01*
X116468571Y-91937200D02*
X116373333Y-91841961D01*
X116373333Y-91841961D02*
X116325714Y-91746723D01*
X116325714Y-91746723D02*
X116278095Y-91556247D01*
X116278095Y-91556247D02*
X116278095Y-91413390D01*
X116278095Y-91413390D02*
X116325714Y-91222914D01*
X116325714Y-91222914D02*
X116373333Y-91127676D01*
X116373333Y-91127676D02*
X116468571Y-91032438D01*
X116468571Y-91032438D02*
X116611428Y-90984819D01*
X116611428Y-90984819D02*
X116706666Y-90984819D01*
X116706666Y-90984819D02*
X116849523Y-91032438D01*
X116849523Y-91032438D02*
X116897142Y-91080057D01*
X117849523Y-91984819D02*
X117278095Y-91984819D01*
X117563809Y-91984819D02*
X117563809Y-90984819D01*
X117563809Y-90984819D02*
X117468571Y-91127676D01*
X117468571Y-91127676D02*
X117373333Y-91222914D01*
X117373333Y-91222914D02*
X117278095Y-91270533D01*
X118182857Y-90984819D02*
X118801904Y-90984819D01*
X118801904Y-90984819D02*
X118468571Y-91365771D01*
X118468571Y-91365771D02*
X118611428Y-91365771D01*
X118611428Y-91365771D02*
X118706666Y-91413390D01*
X118706666Y-91413390D02*
X118754285Y-91461009D01*
X118754285Y-91461009D02*
X118801904Y-91556247D01*
X118801904Y-91556247D02*
X118801904Y-91794342D01*
X118801904Y-91794342D02*
X118754285Y-91889580D01*
X118754285Y-91889580D02*
X118706666Y-91937200D01*
X118706666Y-91937200D02*
X118611428Y-91984819D01*
X118611428Y-91984819D02*
X118325714Y-91984819D01*
X118325714Y-91984819D02*
X118230476Y-91937200D01*
X118230476Y-91937200D02*
X118182857Y-91889580D01*
X86476666Y-90021009D02*
X86143333Y-90021009D01*
X86143333Y-90544819D02*
X86143333Y-89544819D01*
X86143333Y-89544819D02*
X86619523Y-89544819D01*
X87524285Y-90544819D02*
X86952857Y-90544819D01*
X87238571Y-90544819D02*
X87238571Y-89544819D01*
X87238571Y-89544819D02*
X87143333Y-89687676D01*
X87143333Y-89687676D02*
X87048095Y-89782914D01*
X87048095Y-89782914D02*
X86952857Y-89830533D01*
X79827142Y-73169580D02*
X79779523Y-73217200D01*
X79779523Y-73217200D02*
X79636666Y-73264819D01*
X79636666Y-73264819D02*
X79541428Y-73264819D01*
X79541428Y-73264819D02*
X79398571Y-73217200D01*
X79398571Y-73217200D02*
X79303333Y-73121961D01*
X79303333Y-73121961D02*
X79255714Y-73026723D01*
X79255714Y-73026723D02*
X79208095Y-72836247D01*
X79208095Y-72836247D02*
X79208095Y-72693390D01*
X79208095Y-72693390D02*
X79255714Y-72502914D01*
X79255714Y-72502914D02*
X79303333Y-72407676D01*
X79303333Y-72407676D02*
X79398571Y-72312438D01*
X79398571Y-72312438D02*
X79541428Y-72264819D01*
X79541428Y-72264819D02*
X79636666Y-72264819D01*
X79636666Y-72264819D02*
X79779523Y-72312438D01*
X79779523Y-72312438D02*
X79827142Y-72360057D01*
X80160476Y-72264819D02*
X80779523Y-72264819D01*
X80779523Y-72264819D02*
X80446190Y-72645771D01*
X80446190Y-72645771D02*
X80589047Y-72645771D01*
X80589047Y-72645771D02*
X80684285Y-72693390D01*
X80684285Y-72693390D02*
X80731904Y-72741009D01*
X80731904Y-72741009D02*
X80779523Y-72836247D01*
X80779523Y-72836247D02*
X80779523Y-73074342D01*
X80779523Y-73074342D02*
X80731904Y-73169580D01*
X80731904Y-73169580D02*
X80684285Y-73217200D01*
X80684285Y-73217200D02*
X80589047Y-73264819D01*
X80589047Y-73264819D02*
X80303333Y-73264819D01*
X80303333Y-73264819D02*
X80208095Y-73217200D01*
X80208095Y-73217200D02*
X80160476Y-73169580D01*
X81112857Y-72264819D02*
X81779523Y-72264819D01*
X81779523Y-72264819D02*
X81350952Y-73264819D01*
X116897142Y-89789580D02*
X116849523Y-89837200D01*
X116849523Y-89837200D02*
X116706666Y-89884819D01*
X116706666Y-89884819D02*
X116611428Y-89884819D01*
X116611428Y-89884819D02*
X116468571Y-89837200D01*
X116468571Y-89837200D02*
X116373333Y-89741961D01*
X116373333Y-89741961D02*
X116325714Y-89646723D01*
X116325714Y-89646723D02*
X116278095Y-89456247D01*
X116278095Y-89456247D02*
X116278095Y-89313390D01*
X116278095Y-89313390D02*
X116325714Y-89122914D01*
X116325714Y-89122914D02*
X116373333Y-89027676D01*
X116373333Y-89027676D02*
X116468571Y-88932438D01*
X116468571Y-88932438D02*
X116611428Y-88884819D01*
X116611428Y-88884819D02*
X116706666Y-88884819D01*
X116706666Y-88884819D02*
X116849523Y-88932438D01*
X116849523Y-88932438D02*
X116897142Y-88980057D01*
X117849523Y-89884819D02*
X117278095Y-89884819D01*
X117563809Y-89884819D02*
X117563809Y-88884819D01*
X117563809Y-88884819D02*
X117468571Y-89027676D01*
X117468571Y-89027676D02*
X117373333Y-89122914D01*
X117373333Y-89122914D02*
X117278095Y-89170533D01*
X118230476Y-88980057D02*
X118278095Y-88932438D01*
X118278095Y-88932438D02*
X118373333Y-88884819D01*
X118373333Y-88884819D02*
X118611428Y-88884819D01*
X118611428Y-88884819D02*
X118706666Y-88932438D01*
X118706666Y-88932438D02*
X118754285Y-88980057D01*
X118754285Y-88980057D02*
X118801904Y-89075295D01*
X118801904Y-89075295D02*
X118801904Y-89170533D01*
X118801904Y-89170533D02*
X118754285Y-89313390D01*
X118754285Y-89313390D02*
X118182857Y-89884819D01*
X118182857Y-89884819D02*
X118801904Y-89884819D01*
X124498095Y-57814819D02*
X124498095Y-58624342D01*
X124498095Y-58624342D02*
X124545714Y-58719580D01*
X124545714Y-58719580D02*
X124593333Y-58767200D01*
X124593333Y-58767200D02*
X124688571Y-58814819D01*
X124688571Y-58814819D02*
X124879047Y-58814819D01*
X124879047Y-58814819D02*
X124974285Y-58767200D01*
X124974285Y-58767200D02*
X125021904Y-58719580D01*
X125021904Y-58719580D02*
X125069523Y-58624342D01*
X125069523Y-58624342D02*
X125069523Y-57814819D01*
X125450476Y-57814819D02*
X126069523Y-57814819D01*
X126069523Y-57814819D02*
X125736190Y-58195771D01*
X125736190Y-58195771D02*
X125879047Y-58195771D01*
X125879047Y-58195771D02*
X125974285Y-58243390D01*
X125974285Y-58243390D02*
X126021904Y-58291009D01*
X126021904Y-58291009D02*
X126069523Y-58386247D01*
X126069523Y-58386247D02*
X126069523Y-58624342D01*
X126069523Y-58624342D02*
X126021904Y-58719580D01*
X126021904Y-58719580D02*
X125974285Y-58767200D01*
X125974285Y-58767200D02*
X125879047Y-58814819D01*
X125879047Y-58814819D02*
X125593333Y-58814819D01*
X125593333Y-58814819D02*
X125498095Y-58767200D01*
X125498095Y-58767200D02*
X125450476Y-58719580D01*
X122827142Y-65009580D02*
X122779523Y-65057200D01*
X122779523Y-65057200D02*
X122636666Y-65104819D01*
X122636666Y-65104819D02*
X122541428Y-65104819D01*
X122541428Y-65104819D02*
X122398571Y-65057200D01*
X122398571Y-65057200D02*
X122303333Y-64961961D01*
X122303333Y-64961961D02*
X122255714Y-64866723D01*
X122255714Y-64866723D02*
X122208095Y-64676247D01*
X122208095Y-64676247D02*
X122208095Y-64533390D01*
X122208095Y-64533390D02*
X122255714Y-64342914D01*
X122255714Y-64342914D02*
X122303333Y-64247676D01*
X122303333Y-64247676D02*
X122398571Y-64152438D01*
X122398571Y-64152438D02*
X122541428Y-64104819D01*
X122541428Y-64104819D02*
X122636666Y-64104819D01*
X122636666Y-64104819D02*
X122779523Y-64152438D01*
X122779523Y-64152438D02*
X122827142Y-64200057D01*
X123160476Y-64104819D02*
X123779523Y-64104819D01*
X123779523Y-64104819D02*
X123446190Y-64485771D01*
X123446190Y-64485771D02*
X123589047Y-64485771D01*
X123589047Y-64485771D02*
X123684285Y-64533390D01*
X123684285Y-64533390D02*
X123731904Y-64581009D01*
X123731904Y-64581009D02*
X123779523Y-64676247D01*
X123779523Y-64676247D02*
X123779523Y-64914342D01*
X123779523Y-64914342D02*
X123731904Y-65009580D01*
X123731904Y-65009580D02*
X123684285Y-65057200D01*
X123684285Y-65057200D02*
X123589047Y-65104819D01*
X123589047Y-65104819D02*
X123303333Y-65104819D01*
X123303333Y-65104819D02*
X123208095Y-65057200D01*
X123208095Y-65057200D02*
X123160476Y-65009580D01*
X124731904Y-65104819D02*
X124160476Y-65104819D01*
X124446190Y-65104819D02*
X124446190Y-64104819D01*
X124446190Y-64104819D02*
X124350952Y-64247676D01*
X124350952Y-64247676D02*
X124255714Y-64342914D01*
X124255714Y-64342914D02*
X124160476Y-64390533D01*
X123267142Y-69794819D02*
X122933809Y-69318628D01*
X122695714Y-69794819D02*
X122695714Y-68794819D01*
X122695714Y-68794819D02*
X123076666Y-68794819D01*
X123076666Y-68794819D02*
X123171904Y-68842438D01*
X123171904Y-68842438D02*
X123219523Y-68890057D01*
X123219523Y-68890057D02*
X123267142Y-68985295D01*
X123267142Y-68985295D02*
X123267142Y-69128152D01*
X123267142Y-69128152D02*
X123219523Y-69223390D01*
X123219523Y-69223390D02*
X123171904Y-69271009D01*
X123171904Y-69271009D02*
X123076666Y-69318628D01*
X123076666Y-69318628D02*
X122695714Y-69318628D01*
X124219523Y-69794819D02*
X123648095Y-69794819D01*
X123933809Y-69794819D02*
X123933809Y-68794819D01*
X123933809Y-68794819D02*
X123838571Y-68937676D01*
X123838571Y-68937676D02*
X123743333Y-69032914D01*
X123743333Y-69032914D02*
X123648095Y-69080533D01*
X124552857Y-68794819D02*
X125171904Y-68794819D01*
X125171904Y-68794819D02*
X124838571Y-69175771D01*
X124838571Y-69175771D02*
X124981428Y-69175771D01*
X124981428Y-69175771D02*
X125076666Y-69223390D01*
X125076666Y-69223390D02*
X125124285Y-69271009D01*
X125124285Y-69271009D02*
X125171904Y-69366247D01*
X125171904Y-69366247D02*
X125171904Y-69604342D01*
X125171904Y-69604342D02*
X125124285Y-69699580D01*
X125124285Y-69699580D02*
X125076666Y-69747200D01*
X125076666Y-69747200D02*
X124981428Y-69794819D01*
X124981428Y-69794819D02*
X124695714Y-69794819D01*
X124695714Y-69794819D02*
X124600476Y-69747200D01*
X124600476Y-69747200D02*
X124552857Y-69699580D01*
X101070595Y-90619819D02*
X101070595Y-91429342D01*
X101070595Y-91429342D02*
X101118214Y-91524580D01*
X101118214Y-91524580D02*
X101165833Y-91572200D01*
X101165833Y-91572200D02*
X101261071Y-91619819D01*
X101261071Y-91619819D02*
X101451547Y-91619819D01*
X101451547Y-91619819D02*
X101546785Y-91572200D01*
X101546785Y-91572200D02*
X101594404Y-91524580D01*
X101594404Y-91524580D02*
X101642023Y-91429342D01*
X101642023Y-91429342D02*
X101642023Y-90619819D01*
X102642023Y-91619819D02*
X102070595Y-91619819D01*
X102356309Y-91619819D02*
X102356309Y-90619819D01*
X102356309Y-90619819D02*
X102261071Y-90762676D01*
X102261071Y-90762676D02*
X102165833Y-90857914D01*
X102165833Y-90857914D02*
X102070595Y-90905533D01*
X94863333Y-99629580D02*
X94815714Y-99677200D01*
X94815714Y-99677200D02*
X94672857Y-99724819D01*
X94672857Y-99724819D02*
X94577619Y-99724819D01*
X94577619Y-99724819D02*
X94434762Y-99677200D01*
X94434762Y-99677200D02*
X94339524Y-99581961D01*
X94339524Y-99581961D02*
X94291905Y-99486723D01*
X94291905Y-99486723D02*
X94244286Y-99296247D01*
X94244286Y-99296247D02*
X94244286Y-99153390D01*
X94244286Y-99153390D02*
X94291905Y-98962914D01*
X94291905Y-98962914D02*
X94339524Y-98867676D01*
X94339524Y-98867676D02*
X94434762Y-98772438D01*
X94434762Y-98772438D02*
X94577619Y-98724819D01*
X94577619Y-98724819D02*
X94672857Y-98724819D01*
X94672857Y-98724819D02*
X94815714Y-98772438D01*
X94815714Y-98772438D02*
X94863333Y-98820057D01*
X95720476Y-98724819D02*
X95530000Y-98724819D01*
X95530000Y-98724819D02*
X95434762Y-98772438D01*
X95434762Y-98772438D02*
X95387143Y-98820057D01*
X95387143Y-98820057D02*
X95291905Y-98962914D01*
X95291905Y-98962914D02*
X95244286Y-99153390D01*
X95244286Y-99153390D02*
X95244286Y-99534342D01*
X95244286Y-99534342D02*
X95291905Y-99629580D01*
X95291905Y-99629580D02*
X95339524Y-99677200D01*
X95339524Y-99677200D02*
X95434762Y-99724819D01*
X95434762Y-99724819D02*
X95625238Y-99724819D01*
X95625238Y-99724819D02*
X95720476Y-99677200D01*
X95720476Y-99677200D02*
X95768095Y-99629580D01*
X95768095Y-99629580D02*
X95815714Y-99534342D01*
X95815714Y-99534342D02*
X95815714Y-99296247D01*
X95815714Y-99296247D02*
X95768095Y-99201009D01*
X95768095Y-99201009D02*
X95720476Y-99153390D01*
X95720476Y-99153390D02*
X95625238Y-99105771D01*
X95625238Y-99105771D02*
X95434762Y-99105771D01*
X95434762Y-99105771D02*
X95339524Y-99153390D01*
X95339524Y-99153390D02*
X95291905Y-99201009D01*
X95291905Y-99201009D02*
X95244286Y-99296247D01*
X106373333Y-94389580D02*
X106325714Y-94437200D01*
X106325714Y-94437200D02*
X106182857Y-94484819D01*
X106182857Y-94484819D02*
X106087619Y-94484819D01*
X106087619Y-94484819D02*
X105944762Y-94437200D01*
X105944762Y-94437200D02*
X105849524Y-94341961D01*
X105849524Y-94341961D02*
X105801905Y-94246723D01*
X105801905Y-94246723D02*
X105754286Y-94056247D01*
X105754286Y-94056247D02*
X105754286Y-93913390D01*
X105754286Y-93913390D02*
X105801905Y-93722914D01*
X105801905Y-93722914D02*
X105849524Y-93627676D01*
X105849524Y-93627676D02*
X105944762Y-93532438D01*
X105944762Y-93532438D02*
X106087619Y-93484819D01*
X106087619Y-93484819D02*
X106182857Y-93484819D01*
X106182857Y-93484819D02*
X106325714Y-93532438D01*
X106325714Y-93532438D02*
X106373333Y-93580057D01*
X106849524Y-94484819D02*
X107040000Y-94484819D01*
X107040000Y-94484819D02*
X107135238Y-94437200D01*
X107135238Y-94437200D02*
X107182857Y-94389580D01*
X107182857Y-94389580D02*
X107278095Y-94246723D01*
X107278095Y-94246723D02*
X107325714Y-94056247D01*
X107325714Y-94056247D02*
X107325714Y-93675295D01*
X107325714Y-93675295D02*
X107278095Y-93580057D01*
X107278095Y-93580057D02*
X107230476Y-93532438D01*
X107230476Y-93532438D02*
X107135238Y-93484819D01*
X107135238Y-93484819D02*
X106944762Y-93484819D01*
X106944762Y-93484819D02*
X106849524Y-93532438D01*
X106849524Y-93532438D02*
X106801905Y-93580057D01*
X106801905Y-93580057D02*
X106754286Y-93675295D01*
X106754286Y-93675295D02*
X106754286Y-93913390D01*
X106754286Y-93913390D02*
X106801905Y-94008628D01*
X106801905Y-94008628D02*
X106849524Y-94056247D01*
X106849524Y-94056247D02*
X106944762Y-94103866D01*
X106944762Y-94103866D02*
X107135238Y-94103866D01*
X107135238Y-94103866D02*
X107230476Y-94056247D01*
X107230476Y-94056247D02*
X107278095Y-94008628D01*
X107278095Y-94008628D02*
X107325714Y-93913390D01*
X125011905Y-46174819D02*
X125011905Y-45174819D01*
X125011905Y-45174819D02*
X125250000Y-45174819D01*
X125250000Y-45174819D02*
X125392857Y-45222438D01*
X125392857Y-45222438D02*
X125488095Y-45317676D01*
X125488095Y-45317676D02*
X125535714Y-45412914D01*
X125535714Y-45412914D02*
X125583333Y-45603390D01*
X125583333Y-45603390D02*
X125583333Y-45746247D01*
X125583333Y-45746247D02*
X125535714Y-45936723D01*
X125535714Y-45936723D02*
X125488095Y-46031961D01*
X125488095Y-46031961D02*
X125392857Y-46127200D01*
X125392857Y-46127200D02*
X125250000Y-46174819D01*
X125250000Y-46174819D02*
X125011905Y-46174819D01*
X125964286Y-45270057D02*
X126011905Y-45222438D01*
X126011905Y-45222438D02*
X126107143Y-45174819D01*
X126107143Y-45174819D02*
X126345238Y-45174819D01*
X126345238Y-45174819D02*
X126440476Y-45222438D01*
X126440476Y-45222438D02*
X126488095Y-45270057D01*
X126488095Y-45270057D02*
X126535714Y-45365295D01*
X126535714Y-45365295D02*
X126535714Y-45460533D01*
X126535714Y-45460533D02*
X126488095Y-45603390D01*
X126488095Y-45603390D02*
X125916667Y-46174819D01*
X125916667Y-46174819D02*
X126535714Y-46174819D01*
X122787142Y-66559580D02*
X122739523Y-66607200D01*
X122739523Y-66607200D02*
X122596666Y-66654819D01*
X122596666Y-66654819D02*
X122501428Y-66654819D01*
X122501428Y-66654819D02*
X122358571Y-66607200D01*
X122358571Y-66607200D02*
X122263333Y-66511961D01*
X122263333Y-66511961D02*
X122215714Y-66416723D01*
X122215714Y-66416723D02*
X122168095Y-66226247D01*
X122168095Y-66226247D02*
X122168095Y-66083390D01*
X122168095Y-66083390D02*
X122215714Y-65892914D01*
X122215714Y-65892914D02*
X122263333Y-65797676D01*
X122263333Y-65797676D02*
X122358571Y-65702438D01*
X122358571Y-65702438D02*
X122501428Y-65654819D01*
X122501428Y-65654819D02*
X122596666Y-65654819D01*
X122596666Y-65654819D02*
X122739523Y-65702438D01*
X122739523Y-65702438D02*
X122787142Y-65750057D01*
X123168095Y-65750057D02*
X123215714Y-65702438D01*
X123215714Y-65702438D02*
X123310952Y-65654819D01*
X123310952Y-65654819D02*
X123549047Y-65654819D01*
X123549047Y-65654819D02*
X123644285Y-65702438D01*
X123644285Y-65702438D02*
X123691904Y-65750057D01*
X123691904Y-65750057D02*
X123739523Y-65845295D01*
X123739523Y-65845295D02*
X123739523Y-65940533D01*
X123739523Y-65940533D02*
X123691904Y-66083390D01*
X123691904Y-66083390D02*
X123120476Y-66654819D01*
X123120476Y-66654819D02*
X123739523Y-66654819D01*
X124072857Y-65654819D02*
X124691904Y-65654819D01*
X124691904Y-65654819D02*
X124358571Y-66035771D01*
X124358571Y-66035771D02*
X124501428Y-66035771D01*
X124501428Y-66035771D02*
X124596666Y-66083390D01*
X124596666Y-66083390D02*
X124644285Y-66131009D01*
X124644285Y-66131009D02*
X124691904Y-66226247D01*
X124691904Y-66226247D02*
X124691904Y-66464342D01*
X124691904Y-66464342D02*
X124644285Y-66559580D01*
X124644285Y-66559580D02*
X124596666Y-66607200D01*
X124596666Y-66607200D02*
X124501428Y-66654819D01*
X124501428Y-66654819D02*
X124215714Y-66654819D01*
X124215714Y-66654819D02*
X124120476Y-66607200D01*
X124120476Y-66607200D02*
X124072857Y-66559580D01*
X128637142Y-61649580D02*
X128589523Y-61697200D01*
X128589523Y-61697200D02*
X128446666Y-61744819D01*
X128446666Y-61744819D02*
X128351428Y-61744819D01*
X128351428Y-61744819D02*
X128208571Y-61697200D01*
X128208571Y-61697200D02*
X128113333Y-61601961D01*
X128113333Y-61601961D02*
X128065714Y-61506723D01*
X128065714Y-61506723D02*
X128018095Y-61316247D01*
X128018095Y-61316247D02*
X128018095Y-61173390D01*
X128018095Y-61173390D02*
X128065714Y-60982914D01*
X128065714Y-60982914D02*
X128113333Y-60887676D01*
X128113333Y-60887676D02*
X128208571Y-60792438D01*
X128208571Y-60792438D02*
X128351428Y-60744819D01*
X128351428Y-60744819D02*
X128446666Y-60744819D01*
X128446666Y-60744819D02*
X128589523Y-60792438D01*
X128589523Y-60792438D02*
X128637142Y-60840057D01*
X129589523Y-61744819D02*
X129018095Y-61744819D01*
X129303809Y-61744819D02*
X129303809Y-60744819D01*
X129303809Y-60744819D02*
X129208571Y-60887676D01*
X129208571Y-60887676D02*
X129113333Y-60982914D01*
X129113333Y-60982914D02*
X129018095Y-61030533D01*
X130065714Y-61744819D02*
X130256190Y-61744819D01*
X130256190Y-61744819D02*
X130351428Y-61697200D01*
X130351428Y-61697200D02*
X130399047Y-61649580D01*
X130399047Y-61649580D02*
X130494285Y-61506723D01*
X130494285Y-61506723D02*
X130541904Y-61316247D01*
X130541904Y-61316247D02*
X130541904Y-60935295D01*
X130541904Y-60935295D02*
X130494285Y-60840057D01*
X130494285Y-60840057D02*
X130446666Y-60792438D01*
X130446666Y-60792438D02*
X130351428Y-60744819D01*
X130351428Y-60744819D02*
X130160952Y-60744819D01*
X130160952Y-60744819D02*
X130065714Y-60792438D01*
X130065714Y-60792438D02*
X130018095Y-60840057D01*
X130018095Y-60840057D02*
X129970476Y-60935295D01*
X129970476Y-60935295D02*
X129970476Y-61173390D01*
X129970476Y-61173390D02*
X130018095Y-61268628D01*
X130018095Y-61268628D02*
X130065714Y-61316247D01*
X130065714Y-61316247D02*
X130160952Y-61363866D01*
X130160952Y-61363866D02*
X130351428Y-61363866D01*
X130351428Y-61363866D02*
X130446666Y-61316247D01*
X130446666Y-61316247D02*
X130494285Y-61268628D01*
X130494285Y-61268628D02*
X130541904Y-61173390D01*
X103743333Y-89604819D02*
X103410000Y-89128628D01*
X103171905Y-89604819D02*
X103171905Y-88604819D01*
X103171905Y-88604819D02*
X103552857Y-88604819D01*
X103552857Y-88604819D02*
X103648095Y-88652438D01*
X103648095Y-88652438D02*
X103695714Y-88700057D01*
X103695714Y-88700057D02*
X103743333Y-88795295D01*
X103743333Y-88795295D02*
X103743333Y-88938152D01*
X103743333Y-88938152D02*
X103695714Y-89033390D01*
X103695714Y-89033390D02*
X103648095Y-89081009D01*
X103648095Y-89081009D02*
X103552857Y-89128628D01*
X103552857Y-89128628D02*
X103171905Y-89128628D01*
X104695714Y-89604819D02*
X104124286Y-89604819D01*
X104410000Y-89604819D02*
X104410000Y-88604819D01*
X104410000Y-88604819D02*
X104314762Y-88747676D01*
X104314762Y-88747676D02*
X104219524Y-88842914D01*
X104219524Y-88842914D02*
X104124286Y-88890533D01*
X102167142Y-66179580D02*
X102119523Y-66227200D01*
X102119523Y-66227200D02*
X101976666Y-66274819D01*
X101976666Y-66274819D02*
X101881428Y-66274819D01*
X101881428Y-66274819D02*
X101738571Y-66227200D01*
X101738571Y-66227200D02*
X101643333Y-66131961D01*
X101643333Y-66131961D02*
X101595714Y-66036723D01*
X101595714Y-66036723D02*
X101548095Y-65846247D01*
X101548095Y-65846247D02*
X101548095Y-65703390D01*
X101548095Y-65703390D02*
X101595714Y-65512914D01*
X101595714Y-65512914D02*
X101643333Y-65417676D01*
X101643333Y-65417676D02*
X101738571Y-65322438D01*
X101738571Y-65322438D02*
X101881428Y-65274819D01*
X101881428Y-65274819D02*
X101976666Y-65274819D01*
X101976666Y-65274819D02*
X102119523Y-65322438D01*
X102119523Y-65322438D02*
X102167142Y-65370057D01*
X102548095Y-65370057D02*
X102595714Y-65322438D01*
X102595714Y-65322438D02*
X102690952Y-65274819D01*
X102690952Y-65274819D02*
X102929047Y-65274819D01*
X102929047Y-65274819D02*
X103024285Y-65322438D01*
X103024285Y-65322438D02*
X103071904Y-65370057D01*
X103071904Y-65370057D02*
X103119523Y-65465295D01*
X103119523Y-65465295D02*
X103119523Y-65560533D01*
X103119523Y-65560533D02*
X103071904Y-65703390D01*
X103071904Y-65703390D02*
X102500476Y-66274819D01*
X102500476Y-66274819D02*
X103119523Y-66274819D01*
X103452857Y-65274819D02*
X104119523Y-65274819D01*
X104119523Y-65274819D02*
X103690952Y-66274819D01*
X86303395Y-82656819D02*
X86303395Y-83466342D01*
X86303395Y-83466342D02*
X86351014Y-83561580D01*
X86351014Y-83561580D02*
X86398633Y-83609200D01*
X86398633Y-83609200D02*
X86493871Y-83656819D01*
X86493871Y-83656819D02*
X86684347Y-83656819D01*
X86684347Y-83656819D02*
X86779585Y-83609200D01*
X86779585Y-83609200D02*
X86827204Y-83561580D01*
X86827204Y-83561580D02*
X86874823Y-83466342D01*
X86874823Y-83466342D02*
X86874823Y-82656819D01*
X87779585Y-82656819D02*
X87589109Y-82656819D01*
X87589109Y-82656819D02*
X87493871Y-82704438D01*
X87493871Y-82704438D02*
X87446252Y-82752057D01*
X87446252Y-82752057D02*
X87351014Y-82894914D01*
X87351014Y-82894914D02*
X87303395Y-83085390D01*
X87303395Y-83085390D02*
X87303395Y-83466342D01*
X87303395Y-83466342D02*
X87351014Y-83561580D01*
X87351014Y-83561580D02*
X87398633Y-83609200D01*
X87398633Y-83609200D02*
X87493871Y-83656819D01*
X87493871Y-83656819D02*
X87684347Y-83656819D01*
X87684347Y-83656819D02*
X87779585Y-83609200D01*
X87779585Y-83609200D02*
X87827204Y-83561580D01*
X87827204Y-83561580D02*
X87874823Y-83466342D01*
X87874823Y-83466342D02*
X87874823Y-83228247D01*
X87874823Y-83228247D02*
X87827204Y-83133009D01*
X87827204Y-83133009D02*
X87779585Y-83085390D01*
X87779585Y-83085390D02*
X87684347Y-83037771D01*
X87684347Y-83037771D02*
X87493871Y-83037771D01*
X87493871Y-83037771D02*
X87398633Y-83085390D01*
X87398633Y-83085390D02*
X87351014Y-83133009D01*
X87351014Y-83133009D02*
X87303395Y-83228247D01*
X91757142Y-66314819D02*
X91423809Y-65838628D01*
X91185714Y-66314819D02*
X91185714Y-65314819D01*
X91185714Y-65314819D02*
X91566666Y-65314819D01*
X91566666Y-65314819D02*
X91661904Y-65362438D01*
X91661904Y-65362438D02*
X91709523Y-65410057D01*
X91709523Y-65410057D02*
X91757142Y-65505295D01*
X91757142Y-65505295D02*
X91757142Y-65648152D01*
X91757142Y-65648152D02*
X91709523Y-65743390D01*
X91709523Y-65743390D02*
X91661904Y-65791009D01*
X91661904Y-65791009D02*
X91566666Y-65838628D01*
X91566666Y-65838628D02*
X91185714Y-65838628D01*
X92709523Y-66314819D02*
X92138095Y-66314819D01*
X92423809Y-66314819D02*
X92423809Y-65314819D01*
X92423809Y-65314819D02*
X92328571Y-65457676D01*
X92328571Y-65457676D02*
X92233333Y-65552914D01*
X92233333Y-65552914D02*
X92138095Y-65600533D01*
X93042857Y-65314819D02*
X93709523Y-65314819D01*
X93709523Y-65314819D02*
X93280952Y-66314819D01*
X113813333Y-83714819D02*
X113480000Y-83238628D01*
X113241905Y-83714819D02*
X113241905Y-82714819D01*
X113241905Y-82714819D02*
X113622857Y-82714819D01*
X113622857Y-82714819D02*
X113718095Y-82762438D01*
X113718095Y-82762438D02*
X113765714Y-82810057D01*
X113765714Y-82810057D02*
X113813333Y-82905295D01*
X113813333Y-82905295D02*
X113813333Y-83048152D01*
X113813333Y-83048152D02*
X113765714Y-83143390D01*
X113765714Y-83143390D02*
X113718095Y-83191009D01*
X113718095Y-83191009D02*
X113622857Y-83238628D01*
X113622857Y-83238628D02*
X113241905Y-83238628D01*
X114146667Y-82714819D02*
X114813333Y-82714819D01*
X114813333Y-82714819D02*
X114384762Y-83714819D01*
X100287142Y-70749580D02*
X100239523Y-70797200D01*
X100239523Y-70797200D02*
X100096666Y-70844819D01*
X100096666Y-70844819D02*
X100001428Y-70844819D01*
X100001428Y-70844819D02*
X99858571Y-70797200D01*
X99858571Y-70797200D02*
X99763333Y-70701961D01*
X99763333Y-70701961D02*
X99715714Y-70606723D01*
X99715714Y-70606723D02*
X99668095Y-70416247D01*
X99668095Y-70416247D02*
X99668095Y-70273390D01*
X99668095Y-70273390D02*
X99715714Y-70082914D01*
X99715714Y-70082914D02*
X99763333Y-69987676D01*
X99763333Y-69987676D02*
X99858571Y-69892438D01*
X99858571Y-69892438D02*
X100001428Y-69844819D01*
X100001428Y-69844819D02*
X100096666Y-69844819D01*
X100096666Y-69844819D02*
X100239523Y-69892438D01*
X100239523Y-69892438D02*
X100287142Y-69940057D01*
X100668095Y-69940057D02*
X100715714Y-69892438D01*
X100715714Y-69892438D02*
X100810952Y-69844819D01*
X100810952Y-69844819D02*
X101049047Y-69844819D01*
X101049047Y-69844819D02*
X101144285Y-69892438D01*
X101144285Y-69892438D02*
X101191904Y-69940057D01*
X101191904Y-69940057D02*
X101239523Y-70035295D01*
X101239523Y-70035295D02*
X101239523Y-70130533D01*
X101239523Y-70130533D02*
X101191904Y-70273390D01*
X101191904Y-70273390D02*
X100620476Y-70844819D01*
X100620476Y-70844819D02*
X101239523Y-70844819D01*
X102096666Y-69844819D02*
X101906190Y-69844819D01*
X101906190Y-69844819D02*
X101810952Y-69892438D01*
X101810952Y-69892438D02*
X101763333Y-69940057D01*
X101763333Y-69940057D02*
X101668095Y-70082914D01*
X101668095Y-70082914D02*
X101620476Y-70273390D01*
X101620476Y-70273390D02*
X101620476Y-70654342D01*
X101620476Y-70654342D02*
X101668095Y-70749580D01*
X101668095Y-70749580D02*
X101715714Y-70797200D01*
X101715714Y-70797200D02*
X101810952Y-70844819D01*
X101810952Y-70844819D02*
X102001428Y-70844819D01*
X102001428Y-70844819D02*
X102096666Y-70797200D01*
X102096666Y-70797200D02*
X102144285Y-70749580D01*
X102144285Y-70749580D02*
X102191904Y-70654342D01*
X102191904Y-70654342D02*
X102191904Y-70416247D01*
X102191904Y-70416247D02*
X102144285Y-70321009D01*
X102144285Y-70321009D02*
X102096666Y-70273390D01*
X102096666Y-70273390D02*
X102001428Y-70225771D01*
X102001428Y-70225771D02*
X101810952Y-70225771D01*
X101810952Y-70225771D02*
X101715714Y-70273390D01*
X101715714Y-70273390D02*
X101668095Y-70321009D01*
X101668095Y-70321009D02*
X101620476Y-70416247D01*
X102337142Y-62969580D02*
X102289523Y-63017200D01*
X102289523Y-63017200D02*
X102146666Y-63064819D01*
X102146666Y-63064819D02*
X102051428Y-63064819D01*
X102051428Y-63064819D02*
X101908571Y-63017200D01*
X101908571Y-63017200D02*
X101813333Y-62921961D01*
X101813333Y-62921961D02*
X101765714Y-62826723D01*
X101765714Y-62826723D02*
X101718095Y-62636247D01*
X101718095Y-62636247D02*
X101718095Y-62493390D01*
X101718095Y-62493390D02*
X101765714Y-62302914D01*
X101765714Y-62302914D02*
X101813333Y-62207676D01*
X101813333Y-62207676D02*
X101908571Y-62112438D01*
X101908571Y-62112438D02*
X102051428Y-62064819D01*
X102051428Y-62064819D02*
X102146666Y-62064819D01*
X102146666Y-62064819D02*
X102289523Y-62112438D01*
X102289523Y-62112438D02*
X102337142Y-62160057D01*
X102718095Y-62160057D02*
X102765714Y-62112438D01*
X102765714Y-62112438D02*
X102860952Y-62064819D01*
X102860952Y-62064819D02*
X103099047Y-62064819D01*
X103099047Y-62064819D02*
X103194285Y-62112438D01*
X103194285Y-62112438D02*
X103241904Y-62160057D01*
X103241904Y-62160057D02*
X103289523Y-62255295D01*
X103289523Y-62255295D02*
X103289523Y-62350533D01*
X103289523Y-62350533D02*
X103241904Y-62493390D01*
X103241904Y-62493390D02*
X102670476Y-63064819D01*
X102670476Y-63064819D02*
X103289523Y-63064819D01*
X104241904Y-63064819D02*
X103670476Y-63064819D01*
X103956190Y-63064819D02*
X103956190Y-62064819D01*
X103956190Y-62064819D02*
X103860952Y-62207676D01*
X103860952Y-62207676D02*
X103765714Y-62302914D01*
X103765714Y-62302914D02*
X103670476Y-62350533D01*
X128437142Y-81404819D02*
X128103809Y-80928628D01*
X127865714Y-81404819D02*
X127865714Y-80404819D01*
X127865714Y-80404819D02*
X128246666Y-80404819D01*
X128246666Y-80404819D02*
X128341904Y-80452438D01*
X128341904Y-80452438D02*
X128389523Y-80500057D01*
X128389523Y-80500057D02*
X128437142Y-80595295D01*
X128437142Y-80595295D02*
X128437142Y-80738152D01*
X128437142Y-80738152D02*
X128389523Y-80833390D01*
X128389523Y-80833390D02*
X128341904Y-80881009D01*
X128341904Y-80881009D02*
X128246666Y-80928628D01*
X128246666Y-80928628D02*
X127865714Y-80928628D01*
X128818095Y-80500057D02*
X128865714Y-80452438D01*
X128865714Y-80452438D02*
X128960952Y-80404819D01*
X128960952Y-80404819D02*
X129199047Y-80404819D01*
X129199047Y-80404819D02*
X129294285Y-80452438D01*
X129294285Y-80452438D02*
X129341904Y-80500057D01*
X129341904Y-80500057D02*
X129389523Y-80595295D01*
X129389523Y-80595295D02*
X129389523Y-80690533D01*
X129389523Y-80690533D02*
X129341904Y-80833390D01*
X129341904Y-80833390D02*
X128770476Y-81404819D01*
X128770476Y-81404819D02*
X129389523Y-81404819D01*
X130341904Y-81404819D02*
X129770476Y-81404819D01*
X130056190Y-81404819D02*
X130056190Y-80404819D01*
X130056190Y-80404819D02*
X129960952Y-80547676D01*
X129960952Y-80547676D02*
X129865714Y-80642914D01*
X129865714Y-80642914D02*
X129770476Y-80690533D01*
X109773333Y-99674819D02*
X109440000Y-99198628D01*
X109201905Y-99674819D02*
X109201905Y-98674819D01*
X109201905Y-98674819D02*
X109582857Y-98674819D01*
X109582857Y-98674819D02*
X109678095Y-98722438D01*
X109678095Y-98722438D02*
X109725714Y-98770057D01*
X109725714Y-98770057D02*
X109773333Y-98865295D01*
X109773333Y-98865295D02*
X109773333Y-99008152D01*
X109773333Y-99008152D02*
X109725714Y-99103390D01*
X109725714Y-99103390D02*
X109678095Y-99151009D01*
X109678095Y-99151009D02*
X109582857Y-99198628D01*
X109582857Y-99198628D02*
X109201905Y-99198628D01*
X110106667Y-98674819D02*
X110725714Y-98674819D01*
X110725714Y-98674819D02*
X110392381Y-99055771D01*
X110392381Y-99055771D02*
X110535238Y-99055771D01*
X110535238Y-99055771D02*
X110630476Y-99103390D01*
X110630476Y-99103390D02*
X110678095Y-99151009D01*
X110678095Y-99151009D02*
X110725714Y-99246247D01*
X110725714Y-99246247D02*
X110725714Y-99484342D01*
X110725714Y-99484342D02*
X110678095Y-99579580D01*
X110678095Y-99579580D02*
X110630476Y-99627200D01*
X110630476Y-99627200D02*
X110535238Y-99674819D01*
X110535238Y-99674819D02*
X110249524Y-99674819D01*
X110249524Y-99674819D02*
X110154286Y-99627200D01*
X110154286Y-99627200D02*
X110106667Y-99579580D01*
X120687142Y-89819580D02*
X120639523Y-89867200D01*
X120639523Y-89867200D02*
X120496666Y-89914819D01*
X120496666Y-89914819D02*
X120401428Y-89914819D01*
X120401428Y-89914819D02*
X120258571Y-89867200D01*
X120258571Y-89867200D02*
X120163333Y-89771961D01*
X120163333Y-89771961D02*
X120115714Y-89676723D01*
X120115714Y-89676723D02*
X120068095Y-89486247D01*
X120068095Y-89486247D02*
X120068095Y-89343390D01*
X120068095Y-89343390D02*
X120115714Y-89152914D01*
X120115714Y-89152914D02*
X120163333Y-89057676D01*
X120163333Y-89057676D02*
X120258571Y-88962438D01*
X120258571Y-88962438D02*
X120401428Y-88914819D01*
X120401428Y-88914819D02*
X120496666Y-88914819D01*
X120496666Y-88914819D02*
X120639523Y-88962438D01*
X120639523Y-88962438D02*
X120687142Y-89010057D01*
X121639523Y-89914819D02*
X121068095Y-89914819D01*
X121353809Y-89914819D02*
X121353809Y-88914819D01*
X121353809Y-88914819D02*
X121258571Y-89057676D01*
X121258571Y-89057676D02*
X121163333Y-89152914D01*
X121163333Y-89152914D02*
X121068095Y-89200533D01*
X122496666Y-88914819D02*
X122306190Y-88914819D01*
X122306190Y-88914819D02*
X122210952Y-88962438D01*
X122210952Y-88962438D02*
X122163333Y-89010057D01*
X122163333Y-89010057D02*
X122068095Y-89152914D01*
X122068095Y-89152914D02*
X122020476Y-89343390D01*
X122020476Y-89343390D02*
X122020476Y-89724342D01*
X122020476Y-89724342D02*
X122068095Y-89819580D01*
X122068095Y-89819580D02*
X122115714Y-89867200D01*
X122115714Y-89867200D02*
X122210952Y-89914819D01*
X122210952Y-89914819D02*
X122401428Y-89914819D01*
X122401428Y-89914819D02*
X122496666Y-89867200D01*
X122496666Y-89867200D02*
X122544285Y-89819580D01*
X122544285Y-89819580D02*
X122591904Y-89724342D01*
X122591904Y-89724342D02*
X122591904Y-89486247D01*
X122591904Y-89486247D02*
X122544285Y-89391009D01*
X122544285Y-89391009D02*
X122496666Y-89343390D01*
X122496666Y-89343390D02*
X122401428Y-89295771D01*
X122401428Y-89295771D02*
X122210952Y-89295771D01*
X122210952Y-89295771D02*
X122115714Y-89343390D01*
X122115714Y-89343390D02*
X122068095Y-89391009D01*
X122068095Y-89391009D02*
X122020476Y-89486247D01*
X98748095Y-61064819D02*
X98748095Y-61874342D01*
X98748095Y-61874342D02*
X98795714Y-61969580D01*
X98795714Y-61969580D02*
X98843333Y-62017200D01*
X98843333Y-62017200D02*
X98938571Y-62064819D01*
X98938571Y-62064819D02*
X99129047Y-62064819D01*
X99129047Y-62064819D02*
X99224285Y-62017200D01*
X99224285Y-62017200D02*
X99271904Y-61969580D01*
X99271904Y-61969580D02*
X99319523Y-61874342D01*
X99319523Y-61874342D02*
X99319523Y-61064819D01*
X99748095Y-61160057D02*
X99795714Y-61112438D01*
X99795714Y-61112438D02*
X99890952Y-61064819D01*
X99890952Y-61064819D02*
X100129047Y-61064819D01*
X100129047Y-61064819D02*
X100224285Y-61112438D01*
X100224285Y-61112438D02*
X100271904Y-61160057D01*
X100271904Y-61160057D02*
X100319523Y-61255295D01*
X100319523Y-61255295D02*
X100319523Y-61350533D01*
X100319523Y-61350533D02*
X100271904Y-61493390D01*
X100271904Y-61493390D02*
X99700476Y-62064819D01*
X99700476Y-62064819D02*
X100319523Y-62064819D01*
X116897142Y-93999580D02*
X116849523Y-94047200D01*
X116849523Y-94047200D02*
X116706666Y-94094819D01*
X116706666Y-94094819D02*
X116611428Y-94094819D01*
X116611428Y-94094819D02*
X116468571Y-94047200D01*
X116468571Y-94047200D02*
X116373333Y-93951961D01*
X116373333Y-93951961D02*
X116325714Y-93856723D01*
X116325714Y-93856723D02*
X116278095Y-93666247D01*
X116278095Y-93666247D02*
X116278095Y-93523390D01*
X116278095Y-93523390D02*
X116325714Y-93332914D01*
X116325714Y-93332914D02*
X116373333Y-93237676D01*
X116373333Y-93237676D02*
X116468571Y-93142438D01*
X116468571Y-93142438D02*
X116611428Y-93094819D01*
X116611428Y-93094819D02*
X116706666Y-93094819D01*
X116706666Y-93094819D02*
X116849523Y-93142438D01*
X116849523Y-93142438D02*
X116897142Y-93190057D01*
X117849523Y-94094819D02*
X117278095Y-94094819D01*
X117563809Y-94094819D02*
X117563809Y-93094819D01*
X117563809Y-93094819D02*
X117468571Y-93237676D01*
X117468571Y-93237676D02*
X117373333Y-93332914D01*
X117373333Y-93332914D02*
X117278095Y-93380533D01*
X118706666Y-93428152D02*
X118706666Y-94094819D01*
X118468571Y-93047200D02*
X118230476Y-93761485D01*
X118230476Y-93761485D02*
X118849523Y-93761485D01*
X108023809Y-79418628D02*
X108023809Y-79894819D01*
X107690476Y-78894819D02*
X108023809Y-79418628D01*
X108023809Y-79418628D02*
X108357142Y-78894819D01*
X109214285Y-79894819D02*
X108642857Y-79894819D01*
X108928571Y-79894819D02*
X108928571Y-78894819D01*
X108928571Y-78894819D02*
X108833333Y-79037676D01*
X108833333Y-79037676D02*
X108738095Y-79132914D01*
X108738095Y-79132914D02*
X108642857Y-79180533D01*
%TO.C,R8*%
D11*
X85655276Y-57067500D02*
X86164724Y-57067500D01*
X85655276Y-58112500D02*
X86164724Y-58112500D01*
%TO.C,C38*%
X81381252Y-79840000D02*
X79958748Y-79840000D01*
X81381252Y-81660000D02*
X79958748Y-81660000D01*
%TO.C,M1*%
D12*
X83457300Y-41140000D02*
X83457300Y-54340000D01*
X83457300Y-54340000D02*
X110357300Y-54340000D01*
X110357300Y-41140000D02*
X83457300Y-41140000D01*
X110357300Y-54340000D02*
X110357300Y-41140000D01*
%TO.C,C35*%
D11*
X110980000Y-76713733D02*
X110980000Y-77006267D01*
X112000000Y-76713733D02*
X112000000Y-77006267D01*
%TO.C,R6*%
X91664724Y-57067500D02*
X91155276Y-57067500D01*
X91664724Y-58112500D02*
X91155276Y-58112500D01*
%TO.C,R23*%
X110754724Y-73447500D02*
X110245276Y-73447500D01*
X110754724Y-74492500D02*
X110245276Y-74492500D01*
%TO.C,J2*%
X114120000Y-43470000D02*
X114120000Y-45020000D01*
X114420000Y-40670000D02*
X114420000Y-43470000D01*
X114420000Y-43470000D02*
X114120000Y-43470000D01*
X119170000Y-46720000D02*
X119570000Y-46270000D01*
X119570000Y-46270000D02*
X119970000Y-46720000D01*
X119970000Y-46720000D02*
X119170000Y-46720000D01*
X122120000Y-40670000D02*
X122120000Y-43470000D01*
X122420000Y-43470000D02*
X122120000Y-43470000D01*
X122420000Y-43470000D02*
X122420000Y-45020000D01*
%TO.C,R10*%
X111440000Y-57714724D02*
X111440000Y-57205276D01*
X112485000Y-57714724D02*
X112485000Y-57205276D01*
%TO.C,D4*%
X96950000Y-85445000D02*
X96950000Y-86915000D01*
X96950000Y-86915000D02*
X99410000Y-86915000D01*
X99410000Y-85445000D02*
X96950000Y-85445000D01*
%TO.C,L1*%
X105840000Y-85160000D02*
X106290000Y-85160000D01*
X105840000Y-91360000D02*
X105840000Y-85160000D01*
X105840000Y-91360000D02*
X106290000Y-91360000D01*
X112040000Y-85160000D02*
X111590000Y-85160000D01*
X112040000Y-85160000D02*
X112040000Y-91360000D01*
X112040000Y-91360000D02*
X111590000Y-91360000D01*
%TO.C,C3*%
X92125000Y-93251252D02*
X92125000Y-92728748D01*
X93595000Y-93251252D02*
X93595000Y-92728748D01*
%TO.C,C10*%
X110612164Y-94840000D02*
X110827836Y-94840000D01*
X110612164Y-95560000D02*
X110827836Y-95560000D01*
%TO.C,J4*%
X73430000Y-72780000D02*
X73430000Y-70130000D01*
X76190000Y-70130000D02*
X73430000Y-70130000D01*
X76190000Y-72780000D02*
X73430000Y-72780000D01*
X76190000Y-72780000D02*
X76190000Y-70130000D01*
X76190000Y-74050000D02*
X76190000Y-75430000D01*
X76190000Y-75430000D02*
X74810000Y-75430000D01*
%TO.C,C8*%
X98897836Y-97690000D02*
X98682164Y-97690000D01*
X98897836Y-98410000D02*
X98682164Y-98410000D01*
%TO.C,R16*%
X95904724Y-63737500D02*
X95395276Y-63737500D01*
X95904724Y-64782500D02*
X95395276Y-64782500D01*
%TO.C,C28*%
X109872500Y-57606267D02*
X109872500Y-57313733D01*
X110892500Y-57606267D02*
X110892500Y-57313733D01*
%TO.C,U5*%
D13*
X85053100Y-69458800D02*
X89053100Y-69458800D01*
X85553100Y-72458800D02*
X85053100Y-72458800D01*
X88553100Y-72458800D02*
X85553100Y-72458800D01*
X89053100Y-72458800D02*
X88553100Y-72458800D01*
D11*
X89223100Y-71948800D02*
X89553100Y-71708800D01*
X89553100Y-72188800D01*
X89223100Y-71948800D01*
G36*
X89553100Y-72188800D02*
G01*
X89223100Y-71948800D01*
X89553100Y-71708800D01*
X89553100Y-72188800D01*
G37*
%TO.C,R2*%
X108346359Y-94820000D02*
X108653641Y-94820000D01*
X108346359Y-95580000D02*
X108653641Y-95580000D01*
%TO.C,D1*%
X84070000Y-88660000D02*
X75560000Y-88660000D01*
X84070000Y-88660000D02*
X84070000Y-95160000D01*
X84070000Y-95160000D02*
X75560000Y-95160000D01*
%TO.C,C2*%
X90005000Y-96578748D02*
X90005000Y-97101252D01*
X91475000Y-96578748D02*
X91475000Y-97101252D01*
%TO.C,C25*%
X116106233Y-58760000D02*
X116398767Y-58760000D01*
X116106233Y-59780000D02*
X116398767Y-59780000D01*
%TO.C,C36*%
X104226267Y-68350000D02*
X103933733Y-68350000D01*
X104226267Y-69370000D02*
X103933733Y-69370000D01*
%TO.C,C22*%
X112570000Y-73643733D02*
X112570000Y-73936267D01*
X113590000Y-73643733D02*
X113590000Y-73936267D01*
%TO.C,J5*%
X73450000Y-66550000D02*
X73450000Y-63900000D01*
X76210000Y-63900000D02*
X73450000Y-63900000D01*
X76210000Y-66550000D02*
X73450000Y-66550000D01*
X76210000Y-66550000D02*
X76210000Y-63900000D01*
X76210000Y-67820000D02*
X76210000Y-69200000D01*
X76210000Y-69200000D02*
X74830000Y-69200000D01*
%TO.C,C20*%
X122363733Y-59030000D02*
X122656267Y-59030000D01*
X122363733Y-60050000D02*
X122656267Y-60050000D01*
%TO.C,R20*%
X128825276Y-79317500D02*
X129334724Y-79317500D01*
X128825276Y-80362500D02*
X129334724Y-80362500D01*
%TO.C,C5*%
X94285000Y-93251252D02*
X94285000Y-92728748D01*
X95755000Y-93251252D02*
X95755000Y-92728748D01*
%TO.C,C18*%
X129550000Y-52548748D02*
X129550000Y-53971252D01*
X131370000Y-52548748D02*
X131370000Y-53971252D01*
%TO.C,C32*%
X107166267Y-73440000D02*
X106873733Y-73440000D01*
X107166267Y-74460000D02*
X106873733Y-74460000D01*
%TO.C,C1*%
X90005000Y-93251252D02*
X90005000Y-92728748D01*
X91475000Y-93251252D02*
X91475000Y-92728748D01*
%TO.C,R5*%
X91155276Y-55357500D02*
X91664724Y-55357500D01*
X91155276Y-56402500D02*
X91664724Y-56402500D01*
%TO.C,C4*%
X92125000Y-96578748D02*
X92125000Y-97101252D01*
X93595000Y-96578748D02*
X93595000Y-97101252D01*
%TO.C,J3*%
X123660000Y-73380000D02*
X125040000Y-73380000D01*
X123660000Y-74760000D02*
X123660000Y-73380000D01*
X123660000Y-76030000D02*
X123660000Y-86300000D01*
X123660000Y-76030000D02*
X126420000Y-76030000D01*
X123660000Y-86300000D02*
X126420000Y-86300000D01*
X126420000Y-76030000D02*
X126420000Y-86300000D01*
%TO.C,R24*%
X103434724Y-85657500D02*
X102925276Y-85657500D01*
X103434724Y-86702500D02*
X102925276Y-86702500D01*
%TO.C,C34*%
X109026267Y-71400000D02*
X108733733Y-71400000D01*
X109026267Y-72420000D02*
X108733733Y-72420000D01*
%TO.C,R9*%
X113010000Y-57215276D02*
X113010000Y-57724724D01*
X114055000Y-57215276D02*
X114055000Y-57724724D01*
%TO.C,SW2*%
X115280000Y-79470000D02*
X115280000Y-85970000D01*
X115280000Y-85970000D02*
X115930000Y-85970000D01*
X115930000Y-79470000D02*
X115280000Y-79470000D01*
X117430000Y-79470000D02*
X119930000Y-79470000D01*
X117430000Y-85970000D02*
X119930000Y-85970000D01*
X121430000Y-79470000D02*
X122080000Y-79470000D01*
X122080000Y-79470000D02*
X122080000Y-85970000D01*
X122080000Y-85970000D02*
X121430000Y-85970000D01*
%TO.C,R4*%
X104020000Y-98256359D02*
X104020000Y-98563641D01*
X104780000Y-98256359D02*
X104780000Y-98563641D01*
%TO.C,C30*%
X129176267Y-76790000D02*
X128883733Y-76790000D01*
X129176267Y-77810000D02*
X128883733Y-77810000D01*
%TO.C,U4*%
X109470000Y-63020000D02*
X109920000Y-63020000D01*
X109470000Y-63470000D02*
X109470000Y-63020000D01*
X109470000Y-70240000D02*
X109470000Y-69790000D01*
X109920000Y-70240000D02*
X109470000Y-70240000D01*
X116240000Y-63020000D02*
X116690000Y-63020000D01*
X116690000Y-63020000D02*
X116690000Y-63470000D01*
X116690000Y-69790000D02*
X116690000Y-70240000D01*
X116690000Y-70240000D02*
X116240000Y-70240000D01*
X108970000Y-63830000D02*
X108640000Y-64070000D01*
X108640000Y-63590000D01*
X108970000Y-63830000D01*
G36*
X108970000Y-63830000D02*
G01*
X108640000Y-64070000D01*
X108640000Y-63590000D01*
X108970000Y-63830000D01*
G37*
%TO.C,J7*%
X73430000Y-78985000D02*
X73430000Y-76335000D01*
X76190000Y-76335000D02*
X73430000Y-76335000D01*
X76190000Y-78985000D02*
X73430000Y-78985000D01*
X76190000Y-78985000D02*
X76190000Y-76335000D01*
X76190000Y-80255000D02*
X76190000Y-81635000D01*
X76190000Y-81635000D02*
X74810000Y-81635000D01*
%TO.C,C33*%
X119353733Y-70580000D02*
X119646267Y-70580000D01*
X119353733Y-71600000D02*
X119646267Y-71600000D01*
%TO.C,R15*%
X74507500Y-54954724D02*
X74507500Y-54445276D01*
X75552500Y-54954724D02*
X75552500Y-54445276D01*
%TO.C,J6*%
X73410000Y-85215000D02*
X73410000Y-82565000D01*
X76170000Y-82565000D02*
X73410000Y-82565000D01*
X76170000Y-85215000D02*
X73410000Y-85215000D01*
X76170000Y-85215000D02*
X76170000Y-82565000D01*
X76170000Y-86485000D02*
X76170000Y-87865000D01*
X76170000Y-87865000D02*
X74790000Y-87865000D01*
%TO.C,D3*%
X119477500Y-68585000D02*
X121937500Y-68585000D01*
X121937500Y-67115000D02*
X119477500Y-67115000D01*
X121937500Y-68585000D02*
X121937500Y-67115000D01*
%TO.C,R11*%
X122302776Y-60557500D02*
X122812224Y-60557500D01*
X122302776Y-61602500D02*
X122812224Y-61602500D01*
%TO.C,R18*%
X79534724Y-54207500D02*
X79025276Y-54207500D01*
X79534724Y-55252500D02*
X79025276Y-55252500D01*
%TO.C,R22*%
X128825276Y-84397500D02*
X129334724Y-84397500D01*
X128825276Y-85442500D02*
X129334724Y-85442500D01*
%TO.C,L2*%
X116813752Y-55810000D02*
X116291248Y-55810000D01*
X116813752Y-58030000D02*
X116291248Y-58030000D01*
%TO.C,C29*%
X120133733Y-62550000D02*
X120426267Y-62550000D01*
X120133733Y-63570000D02*
X120426267Y-63570000D01*
%TO.C,C11*%
X105330000Y-98487836D02*
X105330000Y-98272164D01*
X106050000Y-98487836D02*
X106050000Y-98272164D01*
%TO.C,Q1*%
X76830000Y-50900000D02*
X77830000Y-50900000D01*
X76830000Y-52420000D02*
X76830000Y-50900000D01*
X76880000Y-52420000D02*
X76830000Y-52420000D01*
X78780000Y-52420000D02*
X78000000Y-52420000D01*
X78950000Y-50900000D02*
X79950000Y-50900000D01*
X79950000Y-50900000D02*
X79950000Y-52420000D01*
X79950000Y-52420000D02*
X79900000Y-52420000D01*
X78010000Y-52960000D02*
X78340000Y-52720000D01*
X78340000Y-53200000D01*
X78010000Y-52960000D01*
G36*
X78340000Y-53200000D02*
G01*
X78010000Y-52960000D01*
X78340000Y-52720000D01*
X78340000Y-53200000D01*
G37*
%TO.C,R19*%
X79035276Y-55877500D02*
X79544724Y-55877500D01*
X79035276Y-56922500D02*
X79544724Y-56922500D01*
%TO.C,SW1*%
X78880000Y-59060000D02*
X85380000Y-59060000D01*
X78880000Y-59710000D02*
X78880000Y-59060000D01*
X78880000Y-63710000D02*
X78880000Y-61210000D01*
X78880000Y-65210000D02*
X78880000Y-65860000D01*
X78880000Y-65860000D02*
X85380000Y-65860000D01*
X85380000Y-59060000D02*
X85380000Y-59710000D01*
X85380000Y-63710000D02*
X85380000Y-61210000D01*
X85380000Y-65860000D02*
X85380000Y-65210000D01*
%TO.C,R12*%
X95395276Y-62147500D02*
X95904724Y-62147500D01*
X95395276Y-63192500D02*
X95904724Y-63192500D01*
%TO.C,C17*%
X106283733Y-55370000D02*
X106576267Y-55370000D01*
X106283733Y-56390000D02*
X106576267Y-56390000D01*
%TO.C,C24*%
X116106233Y-60410000D02*
X116398767Y-60410000D01*
X116106233Y-61430000D02*
X116398767Y-61430000D01*
%TO.C,C15*%
X114038747Y-95005000D02*
X114561251Y-95005000D01*
X114038747Y-96475000D02*
X114561251Y-96475000D01*
%TO.C,C7*%
X99857836Y-89970000D02*
X99642164Y-89970000D01*
X99857836Y-90690000D02*
X99642164Y-90690000D01*
%TO.C,R14*%
X95385276Y-66877500D02*
X95894724Y-66877500D01*
X95385276Y-67922500D02*
X95894724Y-67922500D01*
%TO.C,J1*%
X74370000Y-98880000D02*
X74370000Y-97500000D01*
X75750000Y-98880000D02*
X74370000Y-98880000D01*
X77020000Y-96120000D02*
X79670000Y-96120000D01*
X77020000Y-98880000D02*
X77020000Y-96120000D01*
X77020000Y-98880000D02*
X79670000Y-98880000D01*
X79670000Y-98880000D02*
X79670000Y-96120000D01*
%TO.C,C13*%
X114038748Y-90775000D02*
X114561252Y-90775000D01*
X114038748Y-92245000D02*
X114561252Y-92245000D01*
%TO.C,F1*%
X85100000Y-92837936D02*
X85100000Y-96942064D01*
X88520000Y-92837936D02*
X88520000Y-96942064D01*
%TO.C,C37*%
X81181252Y-70050000D02*
X79758748Y-70050000D01*
X81181252Y-71870000D02*
X79758748Y-71870000D01*
%TO.C,C12*%
X114038748Y-88675000D02*
X114561252Y-88675000D01*
X114038748Y-90145000D02*
X114561252Y-90145000D01*
%TO.C,U3*%
X122720000Y-50590000D02*
X122720000Y-51850000D01*
X122720000Y-57410000D02*
X122720000Y-56150000D01*
X126480000Y-50590000D02*
X122720000Y-50590000D01*
X126480000Y-57410000D02*
X122720000Y-57410000D01*
X127760000Y-57310000D02*
X128000000Y-57640000D01*
X127520000Y-57640000D01*
X127760000Y-57310000D01*
G36*
X128000000Y-57640000D02*
G01*
X127520000Y-57640000D01*
X127760000Y-57310000D01*
X128000000Y-57640000D01*
G37*
%TO.C,C31*%
X120133733Y-64150000D02*
X120426267Y-64150000D01*
X120133733Y-65170000D02*
X120426267Y-65170000D01*
%TO.C,R13*%
X123675276Y-67327500D02*
X124184724Y-67327500D01*
X123675276Y-68372500D02*
X124184724Y-68372500D01*
%TO.C,U1*%
X99772500Y-92005000D02*
X100097500Y-92005000D01*
X99772500Y-92100000D02*
X99772500Y-92005000D01*
X99772500Y-97125000D02*
X99772500Y-97030000D01*
X100097500Y-97125000D02*
X99772500Y-97125000D01*
X103567500Y-92005000D02*
X103892500Y-92005000D01*
X103892500Y-92005000D02*
X103892500Y-92100000D01*
X103892500Y-97030000D02*
X103892500Y-97125000D01*
X103892500Y-97125000D02*
X103567500Y-97125000D01*
X99232500Y-92095000D02*
X98992500Y-91765000D01*
X99472500Y-91765000D01*
X99232500Y-92095000D01*
G36*
X99232500Y-92095000D02*
G01*
X98992500Y-91765000D01*
X99472500Y-91765000D01*
X99232500Y-92095000D01*
G37*
%TO.C,C6*%
X94285000Y-96578748D02*
X94285000Y-97101252D01*
X95755000Y-96578748D02*
X95755000Y-97101252D01*
%TO.C,C9*%
X106480000Y-95572164D02*
X106480000Y-95787836D01*
X107200000Y-95572164D02*
X107200000Y-95787836D01*
%TO.C,D2*%
X129277500Y-46630000D02*
X123767500Y-46630000D01*
X129277500Y-49930000D02*
X123767500Y-49930000D01*
X129277500Y-49930000D02*
X129277500Y-46630000D01*
%TO.C,C23*%
X120133733Y-65710000D02*
X120426267Y-65710000D01*
X120133733Y-66730000D02*
X120426267Y-66730000D01*
%TO.C,C19*%
X128618748Y-58290000D02*
X130041252Y-58290000D01*
X128618748Y-60110000D02*
X130041252Y-60110000D01*
%TO.C,R1*%
X104073641Y-89950000D02*
X103766359Y-89950000D01*
X104073641Y-90710000D02*
X103766359Y-90710000D01*
%TO.C,C27*%
X106226267Y-65320000D02*
X105933733Y-65320000D01*
X106226267Y-66340000D02*
X105933733Y-66340000D01*
%TO.C,U6*%
D13*
X85047500Y-79250000D02*
X89047500Y-79250000D01*
X85547500Y-82250000D02*
X85047500Y-82250000D01*
X88547500Y-82250000D02*
X85547500Y-82250000D01*
X89047500Y-82250000D02*
X88547500Y-82250000D01*
D11*
X89217500Y-81740000D02*
X89547500Y-81500000D01*
X89547500Y-81980000D01*
X89217500Y-81740000D01*
G36*
X89547500Y-81980000D02*
G01*
X89217500Y-81740000D01*
X89547500Y-81500000D01*
X89547500Y-81980000D01*
G37*
%TO.C,R17*%
X95894724Y-65317500D02*
X95385276Y-65317500D01*
X95894724Y-66362500D02*
X95385276Y-66362500D01*
%TO.C,R7*%
X113457500Y-80495276D02*
X113457500Y-81004724D01*
X114502500Y-80495276D02*
X114502500Y-81004724D01*
%TO.C,C26*%
X104226267Y-69880000D02*
X103933733Y-69880000D01*
X104226267Y-70900000D02*
X103933733Y-70900000D01*
%TO.C,C21*%
X106276267Y-62110000D02*
X105983733Y-62110000D01*
X106276267Y-63130000D02*
X105983733Y-63130000D01*
%TO.C,R21*%
X128825276Y-81857500D02*
X129334724Y-81857500D01*
X128825276Y-82902500D02*
X129334724Y-82902500D01*
%TO.C,R3*%
X110093641Y-97520000D02*
X109786359Y-97520000D01*
X110093641Y-98280000D02*
X109786359Y-98280000D01*
%TO.C,C16*%
X119110000Y-90565000D02*
X119110000Y-98630000D01*
X123630000Y-90565000D02*
X119110000Y-90565000D01*
X123630000Y-98630000D02*
X123630000Y-90565000D01*
%TO.C,U2*%
X96730000Y-55030000D02*
X102250000Y-55030000D01*
X96730000Y-55300000D02*
X96730000Y-55030000D01*
X96730000Y-60550000D02*
X96730000Y-60280000D01*
X102250000Y-55030000D02*
X102250000Y-55300000D01*
X102250000Y-60280000D02*
X102250000Y-60550000D01*
X102250000Y-60550000D02*
X96730000Y-60550000D01*
X95900000Y-55290000D02*
X95560000Y-54820000D01*
X96240000Y-54820000D01*
X95900000Y-55290000D01*
G36*
X95900000Y-55290000D02*
G01*
X95560000Y-54820000D01*
X96240000Y-54820000D01*
X95900000Y-55290000D01*
G37*
%TO.C,C14*%
X114038748Y-92885000D02*
X114561252Y-92885000D01*
X114038748Y-94355000D02*
X114561252Y-94355000D01*
%TO.C,Y1*%
X106430000Y-75130000D02*
X106430000Y-78450000D01*
X106430000Y-78450000D02*
X110550000Y-78450000D01*
%TD*%
M02*
