%TF.GenerationSoftware,KiCad,Pcbnew,10.0.4*%
%TF.CreationDate,2026-09-20T08:38:35+05:30*%
%TF.ProjectId,CAR RX,43415220-5258-42e6-9b69-6361645f7063,rev?*%
%TF.SameCoordinates,Original*%
%TF.FileFunction,Paste,Top*%
%TF.FilePolarity,Positive*%
%FSLAX46Y46*%
G04 Gerber Fmt 4.6, Leading zero omitted, Abs format (unit mm)*
G04 Created by KiCad (PCBNEW 10.0.4) date 2026-09-20 08:38:35*
%MOMM*%
%LPD*%
G01*
G04 APERTURE LIST*
G04 Aperture macros list*
%AMRoundRect*
0 Rectangle with rounded corners*
0 $1 Rounding radius*
0 $2 $3 $4 $5 $6 $7 $8 $9 X,Y pos of 4 corners*
0 Add a 4 corners polygon primitive as box body*
4,1,4,$2,$3,$4,$5,$6,$7,$8,$9,$2,$3,0*
0 Add four circle primitives for the rounded corners*
1,1,$1+$1,$2,$3*
1,1,$1+$1,$4,$5*
1,1,$1+$1,$6,$7*
1,1,$1+$1,$8,$9*
0 Add four rect primitives between the rounded corners*
20,1,$1+$1,$2,$3,$4,$5,0*
20,1,$1+$1,$4,$5,$6,$7,0*
20,1,$1+$1,$6,$7,$8,$9,0*
20,1,$1+$1,$8,$9,$2,$3,0*%
G04 Aperture macros list end*
%ADD10RoundRect,0.237500X-0.250000X-0.237500X0.250000X-0.237500X0.250000X0.237500X-0.250000X0.237500X0*%
%ADD11RoundRect,0.250000X0.412500X0.650000X-0.412500X0.650000X-0.412500X-0.650000X0.412500X-0.650000X0*%
%ADD12O,3.810000X1.905000*%
%ADD13C,1.930400*%
%ADD14O,3.860800X1.930400*%
%ADD15RoundRect,0.237500X-0.237500X0.300000X-0.237500X-0.300000X0.237500X-0.300000X0.237500X0.300000X0*%
%ADD16RoundRect,0.237500X0.250000X0.237500X-0.250000X0.237500X-0.250000X-0.237500X0.250000X-0.237500X0*%
%ADD17R,0.400000X1.650000*%
%ADD18R,1.430000X2.500000*%
%ADD19R,1.825000X0.700000*%
%ADD20R,2.000000X1.500000*%
%ADD21R,1.350000X2.000000*%
%ADD22RoundRect,0.237500X0.237500X-0.250000X0.237500X0.250000X-0.237500X0.250000X-0.237500X-0.250000X0*%
%ADD23RoundRect,0.237500X-0.287500X-0.237500X0.287500X-0.237500X0.287500X0.237500X-0.287500X0.237500X0*%
%ADD24R,5.100000X2.350000*%
%ADD25RoundRect,0.250000X0.475000X-0.250000X0.475000X0.250000X-0.475000X0.250000X-0.475000X-0.250000X0*%
%ADD26RoundRect,0.140000X-0.140000X-0.170000X0.140000X-0.170000X0.140000X0.170000X-0.140000X0.170000X0*%
%ADD27RoundRect,0.140000X0.140000X0.170000X-0.140000X0.170000X-0.140000X-0.170000X0.140000X-0.170000X0*%
%ADD28RoundRect,0.237500X0.237500X-0.300000X0.237500X0.300000X-0.237500X0.300000X-0.237500X-0.300000X0*%
%ADD29R,0.711200X0.254000*%
%ADD30R,1.651000X2.387600*%
%ADD31RoundRect,0.135000X-0.135000X-0.185000X0.135000X-0.185000X0.135000X0.185000X-0.135000X0.185000X0*%
%ADD32RoundRect,0.250000X-1.000000X1.400000X-1.000000X-1.400000X1.000000X-1.400000X1.000000X1.400000X0*%
%ADD33RoundRect,0.250000X-0.475000X0.250000X-0.475000X-0.250000X0.475000X-0.250000X0.475000X0.250000X0*%
%ADD34RoundRect,0.237500X-0.300000X-0.237500X0.300000X-0.237500X0.300000X0.237500X-0.300000X0.237500X0*%
%ADD35RoundRect,0.237500X0.300000X0.237500X-0.300000X0.237500X-0.300000X-0.237500X0.300000X-0.237500X0*%
%ADD36RoundRect,0.250000X-0.650000X0.412500X-0.650000X-0.412500X0.650000X-0.412500X0.650000X0.412500X0*%
%ADD37RoundRect,0.237500X-0.237500X0.250000X-0.237500X-0.250000X0.237500X-0.250000X0.237500X0.250000X0*%
%ADD38R,1.000000X2.750000*%
%ADD39RoundRect,0.135000X-0.185000X0.135000X-0.185000X-0.135000X0.185000X-0.135000X0.185000X0.135000X0*%
%ADD40RoundRect,0.250000X-0.410000X-0.410000X0.410000X-0.410000X0.410000X0.410000X-0.410000X0.410000X0*%
%ADD41RoundRect,0.050000X-0.350000X-0.050000X0.350000X-0.050000X0.350000X0.050000X-0.350000X0.050000X0*%
%ADD42RoundRect,0.050000X-0.050000X-0.350000X0.050000X-0.350000X0.050000X0.350000X-0.050000X0.350000X0*%
%ADD43RoundRect,0.237500X0.287500X0.237500X-0.287500X0.237500X-0.287500X-0.237500X0.287500X-0.237500X0*%
%ADD44RoundRect,0.250001X0.462499X0.849999X-0.462499X0.849999X-0.462499X-0.849999X0.462499X-0.849999X0*%
%ADD45RoundRect,0.140000X0.170000X-0.140000X0.170000X0.140000X-0.170000X0.140000X-0.170000X-0.140000X0*%
%ADD46RoundRect,0.150000X0.150000X-0.587500X0.150000X0.587500X-0.150000X0.587500X-0.150000X-0.587500X0*%
%ADD47R,2.750000X1.000000*%
%ADD48RoundRect,0.250000X-0.250000X-0.475000X0.250000X-0.475000X0.250000X0.475000X-0.250000X0.475000X0*%
%ADD49RoundRect,0.249999X-1.425001X0.512501X-1.425001X-0.512501X1.425001X-0.512501X1.425001X0.512501X0*%
%ADD50RoundRect,0.375000X0.625000X0.375000X-0.625000X0.375000X-0.625000X-0.375000X0.625000X-0.375000X0*%
%ADD51RoundRect,0.500000X0.500000X1.400000X-0.500000X1.400000X-0.500000X-1.400000X0.500000X-1.400000X0*%
%ADD52RoundRect,0.250000X-0.295000X-0.435000X0.295000X-0.435000X0.295000X0.435000X-0.295000X0.435000X0*%
%ADD53RoundRect,0.150000X-0.737500X-0.150000X0.737500X-0.150000X0.737500X0.150000X-0.737500X0.150000X0*%
%ADD54RoundRect,0.140000X-0.170000X0.140000X-0.170000X-0.140000X0.170000X-0.140000X0.170000X0.140000X0*%
%ADD55RoundRect,0.250000X1.000000X0.650000X-1.000000X0.650000X-1.000000X-0.650000X1.000000X-0.650000X0*%
%ADD56RoundRect,0.250000X-0.412500X-0.650000X0.412500X-0.650000X0.412500X0.650000X-0.412500X0.650000X0*%
%ADD57RoundRect,0.135000X0.135000X0.185000X-0.135000X0.185000X-0.135000X-0.185000X0.135000X-0.185000X0*%
%ADD58RoundRect,0.250000X-1.045000X0.785000X-1.045000X-0.785000X1.045000X-0.785000X1.045000X0.785000X0*%
%ADD59RoundRect,0.162500X-0.650000X-0.162500X0.650000X-0.162500X0.650000X0.162500X-0.650000X0.162500X0*%
%ADD60RoundRect,0.250000X-0.450000X-0.350000X0.450000X-0.350000X0.450000X0.350000X-0.450000X0.350000X0*%
G04 APERTURE END LIST*
D10*
%TO.C,R8*%
X84997500Y-57590000D03*
X86822500Y-57590000D03*
%TD*%
D11*
%TO.C,C38*%
X82232500Y-80750000D03*
X79107500Y-80750000D03*
%TD*%
D12*
%TO.C,M1*%
X84757300Y-42660000D03*
X84757300Y-45200000D03*
X84757300Y-47740000D03*
X84757300Y-50280000D03*
X84757300Y-52820000D03*
D13*
X109357300Y-46040000D03*
D14*
X110357300Y-43440000D03*
X110357300Y-48640000D03*
%TD*%
D15*
%TO.C,C35*%
X111490000Y-75997500D03*
X111490000Y-77722500D03*
%TD*%
D16*
%TO.C,R6*%
X92322500Y-57590000D03*
X90497500Y-57590000D03*
%TD*%
%TO.C,R23*%
X111412500Y-73970000D03*
X109587500Y-73970000D03*
%TD*%
D17*
%TO.C,J2*%
X119570000Y-45170000D03*
X118920000Y-45170000D03*
X118270000Y-45170000D03*
X117620000Y-45170000D03*
X116970000Y-45170000D03*
D18*
X119230000Y-42020000D03*
X117310000Y-42020000D03*
D19*
X121220000Y-43970000D03*
D20*
X121120000Y-45270000D03*
D21*
X121000000Y-43220000D03*
X115520000Y-43220000D03*
D20*
X115370000Y-45290000D03*
D19*
X115270000Y-43970000D03*
%TD*%
D22*
%TO.C,R10*%
X111962500Y-58372500D03*
X111962500Y-56547500D03*
%TD*%
D23*
%TO.C,D4*%
X97735000Y-86180000D03*
X99485000Y-86180000D03*
%TD*%
D24*
%TO.C,L1*%
X108940000Y-90335000D03*
X108940000Y-86185000D03*
%TD*%
D25*
%TO.C,C3*%
X92860000Y-93940000D03*
X92860000Y-92040000D03*
%TD*%
D26*
%TO.C,C10*%
X110240000Y-95200000D03*
X111200000Y-95200000D03*
%TD*%
D27*
%TO.C,C8*%
X99270000Y-98050000D03*
X98310000Y-98050000D03*
%TD*%
D16*
%TO.C,R16*%
X96562500Y-64260000D03*
X94737500Y-64260000D03*
%TD*%
D28*
%TO.C,C28*%
X110382500Y-58322500D03*
X110382500Y-56597500D03*
%TD*%
D29*
%TO.C,U5*%
X88500900Y-71949400D03*
X88500900Y-71466800D03*
X88500900Y-70958800D03*
X88500900Y-70450800D03*
X88500900Y-69968200D03*
X85605300Y-69968200D03*
X85605300Y-70450800D03*
X85605300Y-70958800D03*
X85605300Y-71466800D03*
X85605300Y-71949400D03*
D30*
X87053100Y-70958800D03*
%TD*%
D31*
%TO.C,R2*%
X107990000Y-95200000D03*
X109010000Y-95200000D03*
%TD*%
D32*
%TO.C,D1*%
X82560000Y-91910000D03*
X75760000Y-91910000D03*
%TD*%
D33*
%TO.C,C2*%
X90740000Y-95890000D03*
X90740000Y-97790000D03*
%TD*%
D34*
%TO.C,C25*%
X115390000Y-59270000D03*
X117115000Y-59270000D03*
%TD*%
D35*
%TO.C,C36*%
X104942500Y-68860000D03*
X103217500Y-68860000D03*
%TD*%
D15*
%TO.C,C22*%
X113080000Y-72927500D03*
X113080000Y-74652500D03*
%TD*%
D34*
%TO.C,C20*%
X121647500Y-59540000D03*
X123372500Y-59540000D03*
%TD*%
D10*
%TO.C,R20*%
X128167500Y-79840000D03*
X129992500Y-79840000D03*
%TD*%
D25*
%TO.C,C5*%
X95020000Y-93940000D03*
X95020000Y-92040000D03*
%TD*%
D36*
%TO.C,C18*%
X130460000Y-51697500D03*
X130460000Y-54822500D03*
%TD*%
D35*
%TO.C,C32*%
X107882500Y-73950000D03*
X106157500Y-73950000D03*
%TD*%
D25*
%TO.C,C1*%
X90740000Y-93940000D03*
X90740000Y-92040000D03*
%TD*%
D10*
%TO.C,R5*%
X90497500Y-55880000D03*
X92322500Y-55880000D03*
%TD*%
D33*
%TO.C,C4*%
X92860000Y-95890000D03*
X92860000Y-97790000D03*
%TD*%
D16*
%TO.C,R24*%
X104092500Y-86180000D03*
X102267500Y-86180000D03*
%TD*%
D35*
%TO.C,C34*%
X109742500Y-71910000D03*
X108017500Y-71910000D03*
%TD*%
D37*
%TO.C,R9*%
X113532500Y-56557500D03*
X113532500Y-58382500D03*
%TD*%
D38*
%TO.C,SW2*%
X116680000Y-85600000D03*
X116680000Y-79840000D03*
X120680000Y-85600000D03*
X120680000Y-79840000D03*
%TD*%
D39*
%TO.C,R4*%
X104400000Y-97900000D03*
X104400000Y-98920000D03*
%TD*%
D35*
%TO.C,C30*%
X129892500Y-77300000D03*
X128167500Y-77300000D03*
%TD*%
D40*
%TO.C,U4*%
X112230000Y-65780000D03*
X112230000Y-67480000D03*
X113930000Y-65780000D03*
X113930000Y-67480000D03*
D41*
X109630000Y-63830000D03*
X109630000Y-64230000D03*
X109630000Y-64630000D03*
X109630000Y-65030000D03*
X109630000Y-65430000D03*
X109630000Y-65830000D03*
X109630000Y-66230000D03*
X109630000Y-66630000D03*
X109630000Y-67030000D03*
X109630000Y-67430000D03*
X109630000Y-67830000D03*
X109630000Y-68230000D03*
X109630000Y-68630000D03*
X109630000Y-69030000D03*
X109630000Y-69430000D03*
D42*
X110280000Y-70080000D03*
X110680000Y-70080000D03*
X111080000Y-70080000D03*
X111480000Y-70080000D03*
X111880000Y-70080000D03*
X112280000Y-70080000D03*
X112680000Y-70080000D03*
X113080000Y-70080000D03*
X113480000Y-70080000D03*
X113880000Y-70080000D03*
X114280000Y-70080000D03*
X114680000Y-70080000D03*
X115080000Y-70080000D03*
X115480000Y-70080000D03*
X115880000Y-70080000D03*
D41*
X116530000Y-69430000D03*
X116530000Y-69030000D03*
X116530000Y-68630000D03*
X116530000Y-68230000D03*
X116530000Y-67830000D03*
X116530000Y-67430000D03*
X116530000Y-67030000D03*
X116530000Y-66630000D03*
X116530000Y-66230000D03*
X116530000Y-65830000D03*
X116530000Y-65430000D03*
X116530000Y-65030000D03*
X116530000Y-64630000D03*
X116530000Y-64230000D03*
X116530000Y-63830000D03*
D42*
X115880000Y-63180000D03*
X115480000Y-63180000D03*
X115080000Y-63180000D03*
X114680000Y-63180000D03*
X114280000Y-63180000D03*
X113880000Y-63180000D03*
X113480000Y-63180000D03*
X113080000Y-63180000D03*
X112680000Y-63180000D03*
X112280000Y-63180000D03*
X111880000Y-63180000D03*
X111480000Y-63180000D03*
X111080000Y-63180000D03*
X110680000Y-63180000D03*
X110280000Y-63180000D03*
%TD*%
D34*
%TO.C,C33*%
X118637500Y-71090000D03*
X120362500Y-71090000D03*
%TD*%
D22*
%TO.C,R15*%
X75030000Y-55612500D03*
X75030000Y-53787500D03*
%TD*%
D43*
%TO.C,D3*%
X121152500Y-67850000D03*
X119402500Y-67850000D03*
%TD*%
D10*
%TO.C,R11*%
X121645000Y-61080000D03*
X123470000Y-61080000D03*
%TD*%
D16*
%TO.C,R18*%
X80192500Y-54730000D03*
X78367500Y-54730000D03*
%TD*%
D10*
%TO.C,R22*%
X128167500Y-84920000D03*
X129992500Y-84920000D03*
%TD*%
D44*
%TO.C,L2*%
X117715000Y-56920000D03*
X115390000Y-56920000D03*
%TD*%
D34*
%TO.C,C29*%
X119417500Y-63060000D03*
X121142500Y-63060000D03*
%TD*%
D45*
%TO.C,C11*%
X105690000Y-98860000D03*
X105690000Y-97900000D03*
%TD*%
D46*
%TO.C,Q1*%
X77440000Y-52597500D03*
X79340000Y-52597500D03*
X78390000Y-50722500D03*
%TD*%
D10*
%TO.C,R19*%
X78377500Y-56400000D03*
X80202500Y-56400000D03*
%TD*%
D47*
%TO.C,SW1*%
X85010000Y-64460000D03*
X79250000Y-64460000D03*
X85010000Y-60460000D03*
X79250000Y-60460000D03*
%TD*%
D10*
%TO.C,R12*%
X94737500Y-62670000D03*
X96562500Y-62670000D03*
%TD*%
D34*
%TO.C,C17*%
X105567500Y-55880000D03*
X107292500Y-55880000D03*
%TD*%
%TO.C,C24*%
X115390000Y-60920000D03*
X117115000Y-60920000D03*
%TD*%
D48*
%TO.C,C15*%
X113349999Y-95740000D03*
X115249999Y-95740000D03*
%TD*%
D27*
%TO.C,C7*%
X100230000Y-90330000D03*
X99270000Y-90330000D03*
%TD*%
D10*
%TO.C,R14*%
X94727500Y-67400000D03*
X96552500Y-67400000D03*
%TD*%
D48*
%TO.C,C13*%
X113350000Y-91510000D03*
X115250000Y-91510000D03*
%TD*%
D49*
%TO.C,F1*%
X86810000Y-91902500D03*
X86810000Y-97877500D03*
%TD*%
D11*
%TO.C,C37*%
X82032500Y-70960000D03*
X78907500Y-70960000D03*
%TD*%
D48*
%TO.C,C12*%
X113350000Y-89410000D03*
X115250000Y-89410000D03*
%TD*%
D50*
%TO.C,U3*%
X127780000Y-56300000D03*
X127780000Y-54000000D03*
D51*
X121480000Y-54000000D03*
D50*
X127780000Y-51700000D03*
%TD*%
D34*
%TO.C,C31*%
X119417500Y-64660000D03*
X121142500Y-64660000D03*
%TD*%
D10*
%TO.C,R13*%
X123017500Y-67850000D03*
X124842500Y-67850000D03*
%TD*%
D52*
%TO.C,U1*%
X101152500Y-93715000D03*
X101152500Y-95415000D03*
X102512500Y-93715000D03*
X102512500Y-95415000D03*
D53*
X99270000Y-92660000D03*
X99270000Y-93930000D03*
X99270000Y-95200000D03*
X99270000Y-96470000D03*
X104395000Y-96470000D03*
X104395000Y-95200000D03*
X104395000Y-93930000D03*
X104395000Y-92660000D03*
%TD*%
D33*
%TO.C,C6*%
X95020000Y-95890000D03*
X95020000Y-97790000D03*
%TD*%
D54*
%TO.C,C9*%
X106840000Y-95200000D03*
X106840000Y-96160000D03*
%TD*%
D55*
%TO.C,D2*%
X127767500Y-48280000D03*
X123767500Y-48280000D03*
%TD*%
D34*
%TO.C,C23*%
X119417500Y-66220000D03*
X121142500Y-66220000D03*
%TD*%
D56*
%TO.C,C19*%
X127767500Y-59200000D03*
X130892500Y-59200000D03*
%TD*%
D57*
%TO.C,R1*%
X104430000Y-90330000D03*
X103410000Y-90330000D03*
%TD*%
D35*
%TO.C,C27*%
X106942500Y-65830000D03*
X105217500Y-65830000D03*
%TD*%
D29*
%TO.C,U6*%
X88495300Y-81740600D03*
X88495300Y-81258000D03*
X88495300Y-80750000D03*
X88495300Y-80242000D03*
X88495300Y-79759400D03*
X85599700Y-79759400D03*
X85599700Y-80242000D03*
X85599700Y-80750000D03*
X85599700Y-81258000D03*
X85599700Y-81740600D03*
D30*
X87047500Y-80750000D03*
%TD*%
D16*
%TO.C,R17*%
X96552500Y-65840000D03*
X94727500Y-65840000D03*
%TD*%
D37*
%TO.C,R7*%
X113980000Y-79837500D03*
X113980000Y-81662500D03*
%TD*%
D35*
%TO.C,C26*%
X104942500Y-70390000D03*
X103217500Y-70390000D03*
%TD*%
%TO.C,C21*%
X106992500Y-62620000D03*
X105267500Y-62620000D03*
%TD*%
D10*
%TO.C,R21*%
X128167500Y-82380000D03*
X129992500Y-82380000D03*
%TD*%
D57*
%TO.C,R3*%
X110450000Y-97900000D03*
X109430000Y-97900000D03*
%TD*%
D58*
%TO.C,C16*%
X121370000Y-91860000D03*
X121370000Y-98100000D03*
%TD*%
D59*
%TO.C,U2*%
X95902500Y-55885000D03*
X95902500Y-57155000D03*
X95902500Y-58425000D03*
X95902500Y-59695000D03*
X103077500Y-59695000D03*
X103077500Y-58425000D03*
X103077500Y-57155000D03*
X103077500Y-55885000D03*
%TD*%
D48*
%TO.C,C14*%
X113350000Y-93620000D03*
X115250000Y-93620000D03*
%TD*%
D60*
%TO.C,Y1*%
X107390000Y-77590000D03*
X109590000Y-77590000D03*
X109590000Y-75990000D03*
X107390000Y-75990000D03*
%TD*%
M02*
