%TF.GenerationSoftware,KiCad,Pcbnew,10.0.4*%
%TF.CreationDate,2026-09-20T08:38:35+05:30*%
%TF.ProjectId,CAR RX,43415220-5258-42e6-9b69-6361645f7063,rev?*%
%TF.SameCoordinates,Original*%
%TF.FileFunction,Copper,L2,Bot*%
%TF.FilePolarity,Positive*%
%FSLAX46Y46*%
G04 Gerber Fmt 4.6, Leading zero omitted, Abs format (unit mm)*
G04 Created by KiCad (PCBNEW 10.0.4) date 2026-09-20 08:38:35*
%MOMM*%
%LPD*%
G01*
G04 APERTURE LIST*
%TA.AperFunction,ComponentPad*%
%ADD10O,1.350000X1.700000*%
%TD*%
%TA.AperFunction,ComponentPad*%
%ADD11O,1.100000X1.500000*%
%TD*%
%TA.AperFunction,ComponentPad*%
%ADD12R,1.700000X1.700000*%
%TD*%
%TA.AperFunction,ComponentPad*%
%ADD13C,1.700000*%
%TD*%
%TA.AperFunction,HeatsinkPad*%
%ADD14C,0.500000*%
%TD*%
%TA.AperFunction,HeatsinkPad*%
%ADD15R,3.400000X3.400000*%
%TD*%
%TA.AperFunction,HeatsinkPad*%
%ADD16R,1.800000X4.400000*%
%TD*%
%TA.AperFunction,ComponentPad*%
%ADD17C,5.600000*%
%TD*%
%TA.AperFunction,ViaPad*%
%ADD18C,0.600000*%
%TD*%
%TA.AperFunction,ViaPad*%
%ADD19C,0.450000*%
%TD*%
%TA.AperFunction,Conductor*%
%ADD20C,0.600000*%
%TD*%
%TA.AperFunction,Conductor*%
%ADD21C,0.150000*%
%TD*%
%TA.AperFunction,Conductor*%
%ADD22C,0.450000*%
%TD*%
%TA.AperFunction,Conductor*%
%ADD23C,0.250000*%
%TD*%
G04 APERTURE END LIST*
D10*
%TO.P,J2,SH,Shield_SH*%
%TO.N,GND*%
X121000000Y-42290000D03*
D11*
X120690000Y-45290000D03*
X115850000Y-45290000D03*
D10*
X115540000Y-42290000D03*
%TD*%
D12*
%TO.P,J4,1,Pin_1_1*%
%TO.N,Net-(J4-Pin_1)*%
X74810000Y-74050000D03*
D13*
%TO.P,J4,2,Pin_2_2*%
%TO.N,Net-(J4-Pin_2)*%
X74810000Y-71510000D03*
%TD*%
D12*
%TO.P,J5,1,Pin_1_1*%
%TO.N,Net-(J5-Pin_1)*%
X74830000Y-67820000D03*
D13*
%TO.P,J5,2,Pin_2_2*%
%TO.N,Net-(J5-Pin_2)*%
X74830000Y-65280000D03*
%TD*%
D12*
%TO.P,J3,1,Pin_1_1*%
%TO.N,+3V3*%
X125040000Y-74760000D03*
D13*
%TO.P,J3,2,Pin_2_2*%
%TO.N,GND*%
X125040000Y-77300000D03*
%TO.P,J3,3,Pin_3_3*%
%TO.N,/MCU/RUN*%
X125040000Y-79840000D03*
%TO.P,J3,4,Pin_4_4*%
%TO.N,/MCU/SWD*%
X125040000Y-82380000D03*
%TO.P,J3,5,Pin_5_5*%
%TO.N,/MCU/SWCLK*%
X125040000Y-84920000D03*
%TD*%
D14*
%TO.P,U4,61,GND_61*%
%TO.N,GND*%
X111630000Y-65180000D03*
X111630000Y-66630000D03*
X111630000Y-68080000D03*
X113080000Y-65180000D03*
X113080000Y-66630000D03*
D15*
X113080000Y-66630000D03*
D14*
X113080000Y-68080000D03*
X114530000Y-65180000D03*
X114530000Y-66630000D03*
X114530000Y-68080000D03*
%TD*%
D12*
%TO.P,J7,1,Pin_1_1*%
%TO.N,Net-(J7-Pin_1)*%
X74810000Y-80255000D03*
D13*
%TO.P,J7,2,Pin_2_2*%
%TO.N,Net-(J7-Pin_2)*%
X74810000Y-77715000D03*
%TD*%
D12*
%TO.P,J6,1,Pin_1_1*%
%TO.N,Net-(J6-Pin_1)*%
X74790000Y-86485000D03*
D13*
%TO.P,J6,2,Pin_2_2*%
%TO.N,Net-(J6-Pin_2)*%
X74790000Y-83945000D03*
%TD*%
D12*
%TO.P,J1,1,Pin_1_1*%
%TO.N,Net-(D1-A)*%
X75750000Y-97500000D03*
D13*
%TO.P,J1,2,Pin_2_2*%
%TO.N,GND*%
X78290000Y-97500000D03*
%TD*%
D14*
%TO.P,U1,9,EP_9*%
%TO.N,GND*%
X101182500Y-92615000D03*
X101182500Y-93915000D03*
X101182500Y-95215000D03*
X101182500Y-96515000D03*
D16*
X101832500Y-94565000D03*
D14*
X102482500Y-92615000D03*
X102482500Y-93915000D03*
X102482500Y-95215000D03*
X102482500Y-96515000D03*
%TD*%
D17*
%TO.P,H1,1*%
%TO.N,N/C*%
X77750000Y-45000000D03*
%TD*%
%TO.P,H2,1*%
%TO.N,N/C*%
X127500000Y-95000000D03*
%TD*%
D18*
%TO.N,GND*%
X106690000Y-72640000D03*
X101440000Y-70250000D03*
%TO.N,+3V3*%
X123250000Y-53000000D03*
X88730000Y-55880000D03*
X124250000Y-55000000D03*
X121000000Y-57000000D03*
X122000000Y-51000000D03*
X124250000Y-56000000D03*
X123250000Y-57000000D03*
X100970000Y-55880000D03*
X92770000Y-62670000D03*
X123250000Y-56000000D03*
X123250000Y-55000000D03*
X124250000Y-57000000D03*
X123250000Y-51000000D03*
X83700000Y-80750000D03*
X121000000Y-51000000D03*
X92780000Y-67400000D03*
X124250000Y-53000000D03*
X124250000Y-51000000D03*
X123250000Y-52000000D03*
X124250000Y-52000000D03*
X83700000Y-70960000D03*
X122000000Y-57000000D03*
X81760000Y-54730000D03*
%TO.N,GND*%
X82380000Y-76530000D03*
X126320000Y-89670000D03*
X95400000Y-82700000D03*
X74510000Y-62270000D03*
X124600000Y-98840000D03*
X107300000Y-54820000D03*
X80000000Y-75670000D03*
X101220000Y-81830000D03*
X129060000Y-70880000D03*
X129040000Y-45430000D03*
X118290000Y-53690000D03*
X74090000Y-58390000D03*
X96650000Y-78540000D03*
X88200000Y-76360000D03*
X91590000Y-74110000D03*
X97330000Y-92100000D03*
X100940000Y-62540000D03*
X92840000Y-86230000D03*
X103460000Y-65850000D03*
X123920000Y-42370000D03*
X125540000Y-59910000D03*
X100780000Y-87680000D03*
X82910000Y-87260000D03*
X118690000Y-51220000D03*
X86590000Y-78110000D03*
X111590000Y-82170000D03*
X81530000Y-41460000D03*
X88280000Y-68800000D03*
X102060000Y-76570000D03*
X101280000Y-98230000D03*
X130760000Y-42540000D03*
X82290000Y-64780000D03*
X83350000Y-98640000D03*
X96820000Y-98370000D03*
X73640000Y-52480000D03*
X104710000Y-83100000D03*
X84960000Y-67010000D03*
X85210000Y-85610000D03*
X130450000Y-65680000D03*
X85690000Y-74720000D03*
X118830000Y-59240000D03*
X116260000Y-53120000D03*
X74160000Y-41590000D03*
X81150000Y-96800000D03*
X131440000Y-98890000D03*
X77620000Y-75820000D03*
X126830000Y-62980000D03*
X126340000Y-69910000D03*
D19*
%TO.N,+1V1*%
X107990000Y-65830000D03*
X110950000Y-65830000D03*
X114320000Y-60170000D03*
X118430000Y-66230000D03*
X113080000Y-71820000D03*
X114320000Y-64500000D03*
X115205002Y-66230000D03*
X113080000Y-68770000D03*
D18*
%TO.N,/MCU/RUN*%
X119120000Y-79840000D03*
%TD*%
%TO.N,+3V3*%
D20*
X87260000Y-67400000D02*
X83700000Y-70960000D01*
D21*
X92770000Y-62670000D02*
X92780000Y-62680000D01*
D20*
X88730000Y-55880000D02*
X88730000Y-58630000D01*
X92780000Y-62680000D02*
X92780000Y-67400000D01*
X82910000Y-55880000D02*
X88730000Y-55880000D01*
X81760000Y-54730000D02*
X82910000Y-55880000D01*
X88730000Y-55880000D02*
X100970000Y-55880000D01*
X88730000Y-58630000D02*
X92770000Y-62670000D01*
X92780000Y-67400000D02*
X87260000Y-67400000D01*
X83700000Y-70960000D02*
X83700000Y-80750000D01*
%TO.N,+1V1*%
D22*
X114320000Y-64500000D02*
X114320000Y-60170000D01*
X113080000Y-68770000D02*
X113080000Y-71820000D01*
X110950000Y-65830000D02*
X107990000Y-65830000D01*
X118430000Y-66230000D02*
X115205002Y-66230000D01*
%TO.N,/MCU/RUN*%
D23*
X119120000Y-79840000D02*
X125040000Y-79840000D01*
%TD*%
%TA.AperFunction,Conductor*%
%TO.N,+3V3*%
G36*
X125478326Y-50271674D02*
G01*
X125500000Y-50324000D01*
X125500000Y-57676000D01*
X125478326Y-57728326D01*
X125426000Y-57750000D01*
X120074000Y-57750000D01*
X120021674Y-57728326D01*
X120000000Y-57676000D01*
X120000000Y-50324000D01*
X120021674Y-50271674D01*
X120074000Y-50250000D01*
X125426000Y-50250000D01*
X125478326Y-50271674D01*
G37*
%TD.AperFunction*%
%TD*%
%TA.AperFunction,Conductor*%
%TO.N,GND*%
G36*
X131892606Y-40505523D02*
G01*
X131907604Y-40509927D01*
X131922594Y-40519557D01*
X131939675Y-40524567D01*
X131966355Y-40547672D01*
X131967542Y-40549041D01*
X131995018Y-40603902D01*
X131996663Y-40611460D01*
X131999500Y-40637831D01*
X131999500Y-99357670D01*
X131994475Y-99392614D01*
X131990070Y-99407612D01*
X131980439Y-99422601D01*
X131975432Y-99439675D01*
X131952327Y-99466355D01*
X131950958Y-99467542D01*
X131896097Y-99495018D01*
X131888539Y-99496663D01*
X131862168Y-99499500D01*
X73142330Y-99499500D01*
X73107389Y-99494475D01*
X73092390Y-99490070D01*
X73077402Y-99480440D01*
X73060324Y-99475432D01*
X73033644Y-99452327D01*
X73032457Y-99450958D01*
X73004977Y-99396083D01*
X73003332Y-99388521D01*
X73000500Y-99362168D01*
X73000500Y-96602139D01*
X74399500Y-96602139D01*
X74399500Y-98397876D01*
X74399659Y-98399806D01*
X74399885Y-98401454D01*
X74405907Y-98457482D01*
X74433690Y-98531971D01*
X74456202Y-98592328D01*
X74456206Y-98592335D01*
X74499086Y-98649616D01*
X74542450Y-98707542D01*
X74542452Y-98707544D01*
X74542455Y-98707547D01*
X74657664Y-98793793D01*
X74657671Y-98793797D01*
X74792517Y-98844091D01*
X74792516Y-98844091D01*
X74799444Y-98844835D01*
X74852127Y-98850500D01*
X76647872Y-98850499D01*
X76707483Y-98844091D01*
X76842331Y-98793796D01*
X76957546Y-98707546D01*
X77043796Y-98592331D01*
X77094091Y-98457483D01*
X77095998Y-98439749D01*
X77100499Y-98397888D01*
X77100499Y-98397882D01*
X77100500Y-98397873D01*
X77100499Y-98397816D01*
X77100504Y-98397796D01*
X77100677Y-98394565D01*
X77100855Y-98394574D01*
X77100856Y-98394568D01*
X77100977Y-98394581D01*
X77101141Y-98394589D01*
X77102127Y-98389628D01*
X77101209Y-98384540D01*
X77106489Y-98367677D01*
X77109935Y-98350341D01*
X77112472Y-98344212D01*
X77113940Y-98341525D01*
X77114802Y-98338587D01*
X77117343Y-98332453D01*
X77128778Y-98318260D01*
X77144224Y-98292219D01*
X77680297Y-97756147D01*
X77741619Y-97722663D01*
X77811311Y-97727647D01*
X77867244Y-97769519D01*
X77875363Y-97781828D01*
X77889896Y-97807000D01*
X77889899Y-97807004D01*
X77889901Y-97807007D01*
X77982993Y-97900099D01*
X78008169Y-97914634D01*
X78056384Y-97965202D01*
X78069606Y-98033809D01*
X78043638Y-98098673D01*
X78033849Y-98109702D01*
X77528282Y-98615268D01*
X77528282Y-98615269D01*
X77528282Y-98615270D01*
X77582449Y-98654624D01*
X77771782Y-98751095D01*
X77771784Y-98751096D01*
X77973866Y-98816756D01*
X77973867Y-98816756D01*
X77973870Y-98816757D01*
X78183754Y-98850000D01*
X78396245Y-98850000D01*
X78396246Y-98850000D01*
X78509050Y-98832132D01*
X78596487Y-98818284D01*
X78596493Y-98818283D01*
X78606127Y-98816757D01*
X78606130Y-98816757D01*
X78808217Y-98751095D01*
X78997554Y-98654622D01*
X78999976Y-98652862D01*
X79019121Y-98638953D01*
X79045858Y-98629412D01*
X79051717Y-98615269D01*
X78546149Y-98109702D01*
X78512664Y-98048379D01*
X78517648Y-97978688D01*
X78559519Y-97922754D01*
X78571822Y-97914639D01*
X78597007Y-97900099D01*
X78690099Y-97807007D01*
X78704634Y-97781830D01*
X78755199Y-97733616D01*
X78823805Y-97720391D01*
X78888671Y-97746358D01*
X78899702Y-97756149D01*
X79405269Y-98261717D01*
X79405269Y-98261716D01*
X79405270Y-98261717D01*
X79405270Y-98261716D01*
X79418738Y-98256137D01*
X79424955Y-98234967D01*
X79428954Y-98229118D01*
X79444621Y-98207555D01*
X79444622Y-98207554D01*
X79541095Y-98018217D01*
X79606757Y-97816130D01*
X79606757Y-97816127D01*
X79640000Y-97606246D01*
X79640000Y-97393753D01*
X79626260Y-97307007D01*
X79608284Y-97193511D01*
X79608283Y-97193505D01*
X79608283Y-97193506D01*
X79606756Y-97183865D01*
X79579473Y-97099898D01*
X79541095Y-96981782D01*
X79444624Y-96792449D01*
X79405270Y-96738282D01*
X79405269Y-96738282D01*
X79405268Y-96738282D01*
X78899702Y-97243849D01*
X78838379Y-97277334D01*
X78768687Y-97272350D01*
X78712754Y-97230478D01*
X78704634Y-97218169D01*
X78690099Y-97192993D01*
X78597007Y-97099901D01*
X78597004Y-97099899D01*
X78597000Y-97099896D01*
X78571828Y-97085363D01*
X78523613Y-97034796D01*
X78510391Y-96966189D01*
X78536359Y-96901324D01*
X78546135Y-96890310D01*
X78941337Y-96495107D01*
X101082500Y-96495107D01*
X101082500Y-96534892D01*
X101097724Y-96571645D01*
X101125855Y-96599776D01*
X101162609Y-96615000D01*
X101202389Y-96615000D01*
X101202391Y-96615000D01*
X101239145Y-96599776D01*
X101267276Y-96571645D01*
X101282500Y-96534891D01*
X101282500Y-96495109D01*
X101282499Y-96495107D01*
X102382500Y-96495107D01*
X102382500Y-96534892D01*
X102397724Y-96571645D01*
X102425855Y-96599776D01*
X102462609Y-96615000D01*
X102502389Y-96615000D01*
X102502391Y-96615000D01*
X102539145Y-96599776D01*
X102567276Y-96571645D01*
X102582500Y-96534891D01*
X102582500Y-96495109D01*
X102567276Y-96458355D01*
X102539145Y-96430224D01*
X102502392Y-96415000D01*
X102502391Y-96415000D01*
X102462609Y-96415000D01*
X102462607Y-96415000D01*
X102425854Y-96430224D01*
X102397724Y-96458354D01*
X102382500Y-96495107D01*
X101282499Y-96495107D01*
X101267276Y-96458355D01*
X101239145Y-96430224D01*
X101202392Y-96415000D01*
X101202391Y-96415000D01*
X101162609Y-96415000D01*
X101162607Y-96415000D01*
X101125854Y-96430224D01*
X101097724Y-96458354D01*
X101082500Y-96495107D01*
X78941337Y-96495107D01*
X79051716Y-96384728D01*
X78997550Y-96345375D01*
X78990189Y-96341624D01*
X78808214Y-96248902D01*
X78606130Y-96183242D01*
X78396251Y-96150000D01*
X78396246Y-96150000D01*
X78183754Y-96150000D01*
X78183749Y-96150000D01*
X77983513Y-96181715D01*
X77983505Y-96181715D01*
X77983506Y-96181716D01*
X77973865Y-96183242D01*
X77771784Y-96248903D01*
X77582438Y-96345380D01*
X77528282Y-96384727D01*
X77528282Y-96384728D01*
X78033850Y-96890296D01*
X78067335Y-96951619D01*
X78062351Y-97021311D01*
X78020479Y-97077244D01*
X78008173Y-97085362D01*
X77982996Y-97099898D01*
X77982990Y-97099903D01*
X77889903Y-97192990D01*
X77889898Y-97192996D01*
X77875362Y-97218173D01*
X77824793Y-97266387D01*
X77756185Y-97279607D01*
X77691322Y-97253637D01*
X77680296Y-97243850D01*
X77149425Y-96712979D01*
X77149420Y-96712974D01*
X77128273Y-96684723D01*
X77115666Y-96661634D01*
X77101313Y-96605401D01*
X77100900Y-96605423D01*
X77100854Y-96605429D01*
X77100853Y-96605426D01*
X77100676Y-96605436D01*
X77100504Y-96602230D01*
X77100499Y-96602209D01*
X77100499Y-96602129D01*
X77100498Y-96602123D01*
X77100497Y-96602116D01*
X77094091Y-96542517D01*
X77076408Y-96495107D01*
X77062701Y-96458355D01*
X77062701Y-96458354D01*
X77043798Y-96407673D01*
X77043793Y-96407664D01*
X77026623Y-96384728D01*
X76957555Y-96292465D01*
X76957549Y-96292458D01*
X76957547Y-96292455D01*
X76957544Y-96292452D01*
X76957542Y-96292450D01*
X76899369Y-96248902D01*
X76842335Y-96206206D01*
X76842332Y-96206204D01*
X76842330Y-96206203D01*
X76842328Y-96206202D01*
X76707482Y-96155908D01*
X76707483Y-96155908D01*
X76647883Y-96149501D01*
X76647881Y-96149500D01*
X76647873Y-96149500D01*
X76647864Y-96149500D01*
X76646841Y-96149500D01*
X74852123Y-96149500D01*
X74850192Y-96149659D01*
X74848545Y-96149885D01*
X74792516Y-96155908D01*
X74657666Y-96206204D01*
X74657665Y-96206205D01*
X74542456Y-96292450D01*
X74542450Y-96292456D01*
X74456205Y-96407665D01*
X74456203Y-96407668D01*
X74405907Y-96542516D01*
X74399501Y-96602116D01*
X74399500Y-96602139D01*
X73000500Y-96602139D01*
X73000500Y-95195107D01*
X101082500Y-95195107D01*
X101082500Y-95195109D01*
X101082500Y-95234891D01*
X101097724Y-95271645D01*
X101125855Y-95299776D01*
X101162609Y-95315000D01*
X101202389Y-95315000D01*
X101202391Y-95315000D01*
X101239145Y-95299776D01*
X101267276Y-95271645D01*
X101282500Y-95234891D01*
X101282500Y-95195109D01*
X101282499Y-95195107D01*
X102382500Y-95195107D01*
X102382500Y-95195109D01*
X102382500Y-95234891D01*
X102397724Y-95271645D01*
X102425855Y-95299776D01*
X102462609Y-95315000D01*
X102502389Y-95315000D01*
X102502391Y-95315000D01*
X102539145Y-95299776D01*
X102567276Y-95271645D01*
X102582500Y-95234891D01*
X102582500Y-95195109D01*
X102567276Y-95158355D01*
X102539145Y-95130224D01*
X102502392Y-95115000D01*
X102502391Y-95115000D01*
X102462609Y-95115000D01*
X102462607Y-95115000D01*
X102425854Y-95130224D01*
X102397724Y-95158354D01*
X102382500Y-95195107D01*
X101282499Y-95195107D01*
X101267276Y-95158355D01*
X101239145Y-95130224D01*
X101202392Y-95115000D01*
X101202391Y-95115000D01*
X101162609Y-95115000D01*
X101162607Y-95115000D01*
X101125854Y-95130224D01*
X101097724Y-95158354D01*
X101082500Y-95195107D01*
X73000500Y-95195107D01*
X73000500Y-94813296D01*
X123699500Y-94813296D01*
X123699500Y-95186703D01*
X123712136Y-95314999D01*
X123736100Y-95558317D01*
X123736102Y-95558332D01*
X123808949Y-95924552D01*
X123917347Y-96281896D01*
X123969444Y-96407668D01*
X124060243Y-96626876D01*
X124060250Y-96626890D01*
X124148744Y-96792452D01*
X124236264Y-96956192D01*
X124236273Y-96956207D01*
X124443726Y-97266681D01*
X124443736Y-97266695D01*
X124680627Y-97555348D01*
X124944650Y-97819371D01*
X124944655Y-97819375D01*
X124944656Y-97819376D01*
X125233309Y-98056267D01*
X125233315Y-98056271D01*
X125543796Y-98263729D01*
X125873117Y-98439754D01*
X126218106Y-98582653D01*
X126575440Y-98691049D01*
X126941678Y-98763899D01*
X127313293Y-98800500D01*
X127313296Y-98800500D01*
X127686704Y-98800500D01*
X127686707Y-98800500D01*
X128058322Y-98763899D01*
X128424560Y-98691049D01*
X128781894Y-98582653D01*
X129126883Y-98439754D01*
X129456204Y-98263729D01*
X129766685Y-98056271D01*
X129776302Y-98048379D01*
X129856013Y-97982962D01*
X130055338Y-97819381D01*
X130319381Y-97555338D01*
X130556271Y-97266685D01*
X130763729Y-96956204D01*
X130939754Y-96626883D01*
X131082653Y-96281894D01*
X131191049Y-95924560D01*
X131263899Y-95558322D01*
X131300500Y-95186707D01*
X131300500Y-94813293D01*
X131263899Y-94441678D01*
X131191049Y-94075440D01*
X131082653Y-93718106D01*
X130939754Y-93373117D01*
X130763729Y-93043796D01*
X130556271Y-92733315D01*
X130556267Y-92733309D01*
X130556262Y-92733303D01*
X130319371Y-92444650D01*
X130055348Y-92180627D01*
X129766695Y-91943736D01*
X129766694Y-91943735D01*
X129766690Y-91943732D01*
X129456210Y-91736275D01*
X129456209Y-91736274D01*
X129456204Y-91736271D01*
X129456199Y-91736268D01*
X129456192Y-91736264D01*
X129128388Y-91561050D01*
X129127378Y-91560492D01*
X129126890Y-91560249D01*
X129126849Y-91560231D01*
X128781899Y-91417348D01*
X128695268Y-91391069D01*
X128572119Y-91353712D01*
X128572118Y-91353711D01*
X128429169Y-91310348D01*
X128429148Y-91310342D01*
X128424560Y-91308951D01*
X128424557Y-91308950D01*
X128424556Y-91308950D01*
X128419515Y-91307947D01*
X128419494Y-91307942D01*
X128058337Y-91236103D01*
X128058326Y-91236101D01*
X128058324Y-91236101D01*
X128058311Y-91236099D01*
X127777293Y-91208422D01*
X127686707Y-91199500D01*
X127686704Y-91199500D01*
X127313296Y-91199500D01*
X127313293Y-91199500D01*
X127295537Y-91201248D01*
X127229513Y-91207750D01*
X127229514Y-91207751D01*
X126941688Y-91236099D01*
X126941679Y-91236100D01*
X126941666Y-91236102D01*
X126575446Y-91308949D01*
X126218102Y-91417347D01*
X125873152Y-91560231D01*
X125873123Y-91560243D01*
X125873109Y-91560250D01*
X125716784Y-91643806D01*
X125543806Y-91736264D01*
X125543791Y-91736273D01*
X125233317Y-91943726D01*
X125233303Y-91943736D01*
X124944650Y-92180627D01*
X124680627Y-92444650D01*
X124443736Y-92733303D01*
X124443728Y-92733315D01*
X124236273Y-93043791D01*
X124236264Y-93043806D01*
X124060243Y-93373123D01*
X123917347Y-93718102D01*
X123808949Y-94075446D01*
X123736102Y-94441666D01*
X123736100Y-94441681D01*
X123736099Y-94441688D01*
X123699500Y-94813296D01*
X73000500Y-94813296D01*
X73000500Y-93895107D01*
X101082500Y-93895107D01*
X101082500Y-93895109D01*
X101082500Y-93934891D01*
X101097724Y-93971645D01*
X101125855Y-93999776D01*
X101162609Y-94015000D01*
X101202389Y-94015000D01*
X101202391Y-94015000D01*
X101239145Y-93999776D01*
X101267276Y-93971645D01*
X101282500Y-93934891D01*
X101282500Y-93895109D01*
X101282499Y-93895107D01*
X102382500Y-93895107D01*
X102382500Y-93895109D01*
X102382500Y-93934891D01*
X102397724Y-93971645D01*
X102425855Y-93999776D01*
X102462609Y-94015000D01*
X102502389Y-94015000D01*
X102502391Y-94015000D01*
X102539145Y-93999776D01*
X102567276Y-93971645D01*
X102582500Y-93934891D01*
X102582500Y-93895109D01*
X102567276Y-93858355D01*
X102539145Y-93830224D01*
X102502392Y-93815000D01*
X102502391Y-93815000D01*
X102462609Y-93815000D01*
X102462607Y-93815000D01*
X102425854Y-93830224D01*
X102397724Y-93858354D01*
X102382500Y-93895107D01*
X101282499Y-93895107D01*
X101267276Y-93858355D01*
X101239145Y-93830224D01*
X101202392Y-93815000D01*
X101202391Y-93815000D01*
X101162609Y-93815000D01*
X101162607Y-93815000D01*
X101125854Y-93830224D01*
X101097724Y-93858354D01*
X101082500Y-93895107D01*
X73000500Y-93895107D01*
X73000500Y-92595107D01*
X101082500Y-92595107D01*
X101082500Y-92595109D01*
X101082500Y-92634891D01*
X101097724Y-92671645D01*
X101125855Y-92699776D01*
X101162609Y-92715000D01*
X101202389Y-92715000D01*
X101202391Y-92715000D01*
X101239145Y-92699776D01*
X101267276Y-92671645D01*
X101282500Y-92634891D01*
X101282500Y-92595109D01*
X101282499Y-92595107D01*
X102382500Y-92595107D01*
X102382500Y-92595109D01*
X102382500Y-92634891D01*
X102397724Y-92671645D01*
X102425855Y-92699776D01*
X102462609Y-92715000D01*
X102502389Y-92715000D01*
X102502391Y-92715000D01*
X102539145Y-92699776D01*
X102567276Y-92671645D01*
X102582500Y-92634891D01*
X102582500Y-92595109D01*
X102567276Y-92558355D01*
X102539145Y-92530224D01*
X102502392Y-92515000D01*
X102502391Y-92515000D01*
X102462609Y-92515000D01*
X102462607Y-92515000D01*
X102425854Y-92530224D01*
X102397724Y-92558354D01*
X102382500Y-92595107D01*
X101282499Y-92595107D01*
X101267276Y-92558355D01*
X101239145Y-92530224D01*
X101202392Y-92515000D01*
X101202391Y-92515000D01*
X101162609Y-92515000D01*
X101162607Y-92515000D01*
X101125854Y-92530224D01*
X101097724Y-92558354D01*
X101082500Y-92595107D01*
X73000500Y-92595107D01*
X73000500Y-83838707D01*
X73439500Y-83838707D01*
X73439500Y-84051291D01*
X73472752Y-84261239D01*
X73538445Y-84463418D01*
X73631532Y-84646111D01*
X73634951Y-84652820D01*
X73759890Y-84824786D01*
X73860824Y-84925720D01*
X73881973Y-84953971D01*
X73888625Y-84966153D01*
X73903477Y-85034426D01*
X73879061Y-85099891D01*
X73879055Y-85099899D01*
X73876305Y-85103572D01*
X73820376Y-85145436D01*
X73697673Y-85191201D01*
X73697670Y-85191202D01*
X73697669Y-85191203D01*
X73697666Y-85191205D01*
X73697664Y-85191206D01*
X73697661Y-85191208D01*
X73582456Y-85277450D01*
X73582455Y-85277452D01*
X73582452Y-85277455D01*
X73524954Y-85354261D01*
X73496205Y-85392665D01*
X73496203Y-85392668D01*
X73445908Y-85527516D01*
X73439500Y-85587125D01*
X73439500Y-87382876D01*
X73439659Y-87384806D01*
X73439885Y-87386454D01*
X73445907Y-87442482D01*
X73473690Y-87516971D01*
X73496202Y-87577328D01*
X73496203Y-87577330D01*
X73496204Y-87577332D01*
X73496205Y-87577333D01*
X73582450Y-87692542D01*
X73582452Y-87692544D01*
X73582455Y-87692547D01*
X73697664Y-87778793D01*
X73697671Y-87778797D01*
X73832517Y-87829091D01*
X73832516Y-87829091D01*
X73839444Y-87829835D01*
X73892127Y-87835500D01*
X75687872Y-87835499D01*
X75747483Y-87829091D01*
X75882331Y-87778796D01*
X75997546Y-87692546D01*
X76083796Y-87577331D01*
X76134091Y-87442483D01*
X76140500Y-87382873D01*
X76140499Y-85587128D01*
X76134091Y-85527517D01*
X76083796Y-85392669D01*
X76083795Y-85392668D01*
X76083793Y-85392664D01*
X76083782Y-85392649D01*
X76081392Y-85388929D01*
X76081391Y-85388928D01*
X76078489Y-85385579D01*
X75997547Y-85277455D01*
X75997544Y-85277452D01*
X75997542Y-85277450D01*
X75939616Y-85234086D01*
X75882335Y-85191206D01*
X75882332Y-85191204D01*
X75882330Y-85191203D01*
X75882328Y-85191202D01*
X75767621Y-85148419D01*
X75736642Y-85131502D01*
X75725531Y-85123184D01*
X75683661Y-85067250D01*
X75678678Y-84997561D01*
X75679654Y-84993072D01*
X75713136Y-84931758D01*
X75820104Y-84824792D01*
X75945051Y-84652816D01*
X76041557Y-84463412D01*
X76107246Y-84261243D01*
X76140500Y-84051287D01*
X76140500Y-83838713D01*
X76107246Y-83628757D01*
X76041557Y-83426588D01*
X75945051Y-83237184D01*
X75945049Y-83237181D01*
X75945048Y-83237179D01*
X75944702Y-83236703D01*
X75944700Y-83236699D01*
X75820112Y-83065216D01*
X75669788Y-82914892D01*
X75669786Y-82914890D01*
X75497820Y-82789951D01*
X75484167Y-82782994D01*
X75330245Y-82704567D01*
X75330240Y-82704565D01*
X75308414Y-82693444D01*
X75308413Y-82693443D01*
X75308412Y-82693443D01*
X75211550Y-82661970D01*
X75115074Y-82630623D01*
X75110552Y-82628770D01*
X75101362Y-82626600D01*
X75096599Y-82626226D01*
X74944957Y-82602208D01*
X74925489Y-82599124D01*
X74896290Y-82594500D01*
X74896287Y-82594500D01*
X74683713Y-82594500D01*
X74683709Y-82594500D01*
X74644776Y-82600666D01*
X74635042Y-82602208D01*
X74597654Y-82608129D01*
X74473763Y-82627752D01*
X74271582Y-82693445D01*
X74082182Y-82789949D01*
X73910210Y-82914892D01*
X73759892Y-83065210D01*
X73634949Y-83237182D01*
X73538445Y-83426580D01*
X73472752Y-83628759D01*
X73439500Y-83838707D01*
X73000500Y-83838707D01*
X73000500Y-77608707D01*
X73459500Y-77608707D01*
X73459500Y-77608713D01*
X73459500Y-77821287D01*
X73492754Y-78031243D01*
X73502655Y-78061716D01*
X73531676Y-78151033D01*
X73558445Y-78233418D01*
X73626267Y-78366524D01*
X73654951Y-78422820D01*
X73779890Y-78594786D01*
X73880824Y-78695720D01*
X73901973Y-78723971D01*
X73908625Y-78736153D01*
X73923477Y-78804426D01*
X73899061Y-78869891D01*
X73899055Y-78869899D01*
X73896305Y-78873572D01*
X73840376Y-78915436D01*
X73717673Y-78961201D01*
X73717670Y-78961202D01*
X73717669Y-78961203D01*
X73717666Y-78961205D01*
X73717664Y-78961206D01*
X73717661Y-78961208D01*
X73602456Y-79047450D01*
X73602450Y-79047456D01*
X73516205Y-79162665D01*
X73516203Y-79162668D01*
X73465908Y-79297516D01*
X73459500Y-79357125D01*
X73459500Y-81152876D01*
X73459659Y-81154806D01*
X73459885Y-81156454D01*
X73465907Y-81212482D01*
X73483741Y-81260297D01*
X73516202Y-81347328D01*
X73516206Y-81347335D01*
X73559086Y-81404616D01*
X73602450Y-81462542D01*
X73602452Y-81462544D01*
X73602455Y-81462547D01*
X73717664Y-81548793D01*
X73717671Y-81548797D01*
X73852517Y-81599091D01*
X73852516Y-81599091D01*
X73859444Y-81599835D01*
X73912127Y-81605500D01*
X75707872Y-81605499D01*
X75767483Y-81599091D01*
X75902331Y-81548796D01*
X76017546Y-81462546D01*
X76103796Y-81347331D01*
X76154091Y-81212483D01*
X76160500Y-81152873D01*
X76160499Y-79357128D01*
X76154091Y-79297517D01*
X76124511Y-79218210D01*
X76103797Y-79162671D01*
X76103793Y-79162664D01*
X76017547Y-79047455D01*
X76017544Y-79047452D01*
X76017542Y-79047450D01*
X75959616Y-79004086D01*
X75902335Y-78961206D01*
X75902332Y-78961204D01*
X75902330Y-78961203D01*
X75902328Y-78961202D01*
X75787621Y-78918419D01*
X75782275Y-78915500D01*
X75756642Y-78901502D01*
X75745531Y-78893184D01*
X75703661Y-78837250D01*
X75698678Y-78767561D01*
X75699655Y-78763068D01*
X75733138Y-78701757D01*
X75775820Y-78659075D01*
X75840104Y-78594792D01*
X75862179Y-78564409D01*
X75965048Y-78422820D01*
X75965047Y-78422820D01*
X75965051Y-78422816D01*
X75965052Y-78422812D01*
X75985446Y-78394743D01*
X75993730Y-78366529D01*
X76061557Y-78233412D01*
X76127246Y-78031243D01*
X76160500Y-77821287D01*
X76160500Y-77608713D01*
X76127246Y-77398757D01*
X76061557Y-77196588D01*
X75965051Y-77007184D01*
X75965049Y-77007181D01*
X75965048Y-77007179D01*
X75964702Y-77006703D01*
X75964700Y-77006699D01*
X75840112Y-76835216D01*
X75689788Y-76684892D01*
X75689786Y-76684890D01*
X75517820Y-76559951D01*
X75475292Y-76538282D01*
X75350245Y-76474567D01*
X75350240Y-76474565D01*
X75328414Y-76463444D01*
X75328413Y-76463443D01*
X75328412Y-76463443D01*
X75231550Y-76431970D01*
X75135074Y-76400623D01*
X75130552Y-76398770D01*
X75121362Y-76396600D01*
X75116599Y-76396226D01*
X74964957Y-76372208D01*
X74945489Y-76369124D01*
X74916290Y-76364500D01*
X74916287Y-76364500D01*
X74703713Y-76364500D01*
X74703709Y-76364500D01*
X74664776Y-76370666D01*
X74655042Y-76372208D01*
X74617654Y-76378129D01*
X74493763Y-76397752D01*
X74291582Y-76463445D01*
X74102182Y-76559949D01*
X73930210Y-76684892D01*
X73779892Y-76835210D01*
X73779890Y-76835213D01*
X73665256Y-76992996D01*
X73654949Y-77007182D01*
X73558445Y-77196582D01*
X73492752Y-77398762D01*
X73477828Y-77492993D01*
X73459500Y-77608707D01*
X73000500Y-77608707D01*
X73000500Y-71403713D01*
X73459500Y-71403713D01*
X73459500Y-71616287D01*
X73492754Y-71826243D01*
X73513942Y-71891455D01*
X73513943Y-71891456D01*
X73558445Y-72028418D01*
X73651532Y-72211111D01*
X73654951Y-72217820D01*
X73779890Y-72389786D01*
X73880824Y-72490720D01*
X73901973Y-72518971D01*
X73908625Y-72531153D01*
X73923477Y-72599426D01*
X73899061Y-72664891D01*
X73899055Y-72664899D01*
X73896305Y-72668572D01*
X73840376Y-72710436D01*
X73717673Y-72756201D01*
X73717670Y-72756202D01*
X73717669Y-72756203D01*
X73717666Y-72756205D01*
X73717664Y-72756206D01*
X73717661Y-72756208D01*
X73602456Y-72842450D01*
X73602450Y-72842456D01*
X73516205Y-72957665D01*
X73516203Y-72957668D01*
X73465908Y-73092516D01*
X73459500Y-73152125D01*
X73459500Y-74947876D01*
X73459659Y-74949806D01*
X73459885Y-74951454D01*
X73465907Y-75007482D01*
X73493690Y-75081971D01*
X73516202Y-75142328D01*
X73516203Y-75142330D01*
X73516204Y-75142332D01*
X73516205Y-75142333D01*
X73602450Y-75257542D01*
X73602452Y-75257544D01*
X73602455Y-75257547D01*
X73717664Y-75343793D01*
X73717671Y-75343797D01*
X73852517Y-75394091D01*
X73852516Y-75394091D01*
X73859444Y-75394835D01*
X73912127Y-75400500D01*
X75707872Y-75400499D01*
X75767483Y-75394091D01*
X75902331Y-75343796D01*
X76017546Y-75257546D01*
X76103796Y-75142331D01*
X76154091Y-75007483D01*
X76160500Y-74947873D01*
X76160499Y-73152128D01*
X76154091Y-73092517D01*
X76103796Y-72957669D01*
X76103795Y-72957668D01*
X76103793Y-72957664D01*
X76103782Y-72957649D01*
X76101392Y-72953929D01*
X76101391Y-72953928D01*
X76098489Y-72950579D01*
X76017547Y-72842455D01*
X76017544Y-72842452D01*
X76017542Y-72842450D01*
X75959616Y-72799086D01*
X75902335Y-72756206D01*
X75902332Y-72756204D01*
X75902330Y-72756203D01*
X75902328Y-72756202D01*
X75787621Y-72713419D01*
X75756642Y-72696502D01*
X75745531Y-72688184D01*
X75703661Y-72632250D01*
X75698678Y-72562561D01*
X75699654Y-72558072D01*
X75733136Y-72496758D01*
X75840104Y-72389792D01*
X75965051Y-72217816D01*
X76061557Y-72028412D01*
X76127246Y-71826243D01*
X76160500Y-71616287D01*
X76160500Y-71403713D01*
X76127246Y-71193757D01*
X76061557Y-70991588D01*
X75965051Y-70802184D01*
X75965049Y-70802181D01*
X75965048Y-70802179D01*
X75964702Y-70801703D01*
X75964700Y-70801699D01*
X75840112Y-70630216D01*
X75689788Y-70479892D01*
X75689786Y-70479890D01*
X75517820Y-70354951D01*
X75504167Y-70347994D01*
X75350245Y-70269567D01*
X75350240Y-70269565D01*
X75328414Y-70258444D01*
X75328413Y-70258443D01*
X75328412Y-70258443D01*
X75231550Y-70226970D01*
X75135074Y-70195623D01*
X75130552Y-70193770D01*
X75121362Y-70191600D01*
X75116599Y-70191226D01*
X74964957Y-70167208D01*
X74945489Y-70164124D01*
X74916290Y-70159500D01*
X74916287Y-70159500D01*
X74703713Y-70159500D01*
X74703709Y-70159500D01*
X74664776Y-70165666D01*
X74655042Y-70167208D01*
X74617654Y-70173129D01*
X74493763Y-70192752D01*
X74291582Y-70258445D01*
X74102182Y-70354949D01*
X73930210Y-70479892D01*
X73779892Y-70630210D01*
X73654949Y-70802182D01*
X73558445Y-70991580D01*
X73492752Y-71193759D01*
X73492752Y-71193760D01*
X73471835Y-71325835D01*
X73469126Y-71342939D01*
X73459500Y-71403713D01*
X73000500Y-71403713D01*
X73000500Y-65173707D01*
X73479500Y-65173707D01*
X73479500Y-65386291D01*
X73511299Y-65587068D01*
X73511300Y-65587068D01*
X73512753Y-65596240D01*
X73512755Y-65596249D01*
X73565488Y-65758543D01*
X73578442Y-65798410D01*
X73578443Y-65798412D01*
X73670925Y-65979920D01*
X73674951Y-65987820D01*
X73799890Y-66159786D01*
X73900824Y-66260720D01*
X73921972Y-66288970D01*
X73923889Y-66292481D01*
X73928625Y-66301153D01*
X73943477Y-66369426D01*
X73919061Y-66434891D01*
X73919055Y-66434899D01*
X73916305Y-66438572D01*
X73860376Y-66480436D01*
X73737673Y-66526201D01*
X73737670Y-66526202D01*
X73737669Y-66526203D01*
X73737666Y-66526205D01*
X73737664Y-66526206D01*
X73737648Y-66526217D01*
X73622455Y-66612450D01*
X73617976Y-66617813D01*
X73615786Y-66621361D01*
X73536205Y-66727665D01*
X73536203Y-66727667D01*
X73536203Y-66727668D01*
X73485908Y-66862516D01*
X73479500Y-66922125D01*
X73479500Y-68717876D01*
X73479659Y-68719806D01*
X73479885Y-68721454D01*
X73485907Y-68777482D01*
X73513690Y-68851971D01*
X73536202Y-68912328D01*
X73536203Y-68912330D01*
X73536204Y-68912332D01*
X73536205Y-68912333D01*
X73622450Y-69027542D01*
X73622452Y-69027544D01*
X73622455Y-69027547D01*
X73737664Y-69113793D01*
X73737671Y-69113797D01*
X73872517Y-69164091D01*
X73872516Y-69164091D01*
X73879444Y-69164835D01*
X73932127Y-69170500D01*
X75727872Y-69170499D01*
X75787483Y-69164091D01*
X75922331Y-69113796D01*
X76037546Y-69027546D01*
X76123796Y-68912331D01*
X76174091Y-68777483D01*
X76180500Y-68717873D01*
X76180499Y-66922128D01*
X76174091Y-66862517D01*
X76148361Y-66793532D01*
X76123797Y-66727671D01*
X76123793Y-66727664D01*
X76037546Y-66612454D01*
X76037544Y-66612452D01*
X76037542Y-66612450D01*
X75958823Y-66553521D01*
X75922335Y-66526206D01*
X75922332Y-66526204D01*
X75922330Y-66526203D01*
X75922328Y-66526202D01*
X75807621Y-66483419D01*
X75801841Y-66480263D01*
X75776642Y-66466502D01*
X75765531Y-66458184D01*
X75723661Y-66402250D01*
X75718678Y-66332561D01*
X75719655Y-66328068D01*
X75753138Y-66266757D01*
X75762807Y-66257088D01*
X75860104Y-66159792D01*
X75899913Y-66105000D01*
X75985048Y-65987820D01*
X75985047Y-65987820D01*
X75985051Y-65987816D01*
X75985053Y-65987810D01*
X75990784Y-65979923D01*
X75990786Y-65979920D01*
X75990787Y-65979920D01*
X76005446Y-65959743D01*
X76013730Y-65931529D01*
X76081557Y-65798412D01*
X76147246Y-65596243D01*
X76180500Y-65386287D01*
X76180500Y-65173713D01*
X76147246Y-64963757D01*
X76081557Y-64761588D01*
X75985051Y-64572184D01*
X75985049Y-64572181D01*
X75985048Y-64572179D01*
X75984702Y-64571703D01*
X75984700Y-64571699D01*
X75860112Y-64400216D01*
X75709788Y-64249892D01*
X75709786Y-64249890D01*
X75537820Y-64124951D01*
X75524167Y-64117994D01*
X75370245Y-64039567D01*
X75370240Y-64039565D01*
X75348414Y-64028444D01*
X75348413Y-64028443D01*
X75348412Y-64028443D01*
X75251550Y-63996970D01*
X75155074Y-63965623D01*
X75150552Y-63963770D01*
X75141362Y-63961600D01*
X75136599Y-63961226D01*
X74984957Y-63937208D01*
X74965489Y-63934124D01*
X74936290Y-63929500D01*
X74936287Y-63929500D01*
X74723713Y-63929500D01*
X74723709Y-63929500D01*
X74684776Y-63935666D01*
X74675042Y-63937208D01*
X74637654Y-63943129D01*
X74513763Y-63962752D01*
X74311582Y-64028445D01*
X74122182Y-64124949D01*
X73950210Y-64249892D01*
X73799892Y-64400210D01*
X73674949Y-64572182D01*
X73578445Y-64761580D01*
X73512752Y-64963759D01*
X73479500Y-65173707D01*
X73000500Y-65173707D01*
X73000500Y-54808848D01*
X80959499Y-54808848D01*
X80990257Y-54963471D01*
X80990264Y-54963502D01*
X81050598Y-55109165D01*
X81050603Y-55109174D01*
X81050613Y-55109191D01*
X81138211Y-55240290D01*
X81138212Y-55240291D01*
X81138217Y-55240297D01*
X82399701Y-56501781D01*
X82399707Y-56501786D01*
X82399711Y-56501789D01*
X82530814Y-56589390D01*
X82530818Y-56589392D01*
X82530821Y-56589394D01*
X82676503Y-56649738D01*
X82828223Y-56679916D01*
X82830422Y-56680409D01*
X82831155Y-56680500D01*
X82831157Y-56680500D01*
X82831158Y-56680500D01*
X82988843Y-56680500D01*
X87787671Y-56680500D01*
X87822606Y-56685523D01*
X87837604Y-56689927D01*
X87896355Y-56727672D01*
X87896379Y-56727700D01*
X87896382Y-56727702D01*
X87896383Y-56727704D01*
X87897542Y-56729041D01*
X87925018Y-56783902D01*
X87926663Y-56791460D01*
X87929500Y-56817831D01*
X87929500Y-58708846D01*
X87929500Y-58708848D01*
X87929499Y-58708848D01*
X87960257Y-58863471D01*
X87960264Y-58863502D01*
X88020598Y-59009165D01*
X88020603Y-59009174D01*
X88020613Y-59009191D01*
X88108211Y-59140290D01*
X88108212Y-59140291D01*
X88108217Y-59140297D01*
X89066458Y-60098537D01*
X91930574Y-62962652D01*
X91951723Y-62990903D01*
X91964331Y-63013992D01*
X91979500Y-63073421D01*
X91979500Y-66457670D01*
X91974475Y-66492614D01*
X91970070Y-66507612D01*
X91932327Y-66566355D01*
X91930958Y-66567542D01*
X91876097Y-66595018D01*
X91868539Y-66596663D01*
X91842168Y-66599500D01*
X87181153Y-66599500D01*
X87122013Y-66611264D01*
X87122012Y-66611263D01*
X87122008Y-66611265D01*
X87026535Y-66630255D01*
X87026496Y-66630264D01*
X86880833Y-66690598D01*
X86880824Y-66690603D01*
X86880807Y-66690613D01*
X86749716Y-66778205D01*
X86749712Y-66778208D01*
X86749712Y-66778209D01*
X86693962Y-66833960D01*
X86638209Y-66889713D01*
X83172270Y-70355650D01*
X83172270Y-70355651D01*
X83078211Y-70449708D01*
X82990613Y-70580807D01*
X82990603Y-70580824D01*
X82990598Y-70580833D01*
X82930264Y-70726496D01*
X82930257Y-70726527D01*
X82899500Y-70881150D01*
X82899500Y-70881153D01*
X82899500Y-80828846D01*
X82899500Y-80828848D01*
X82899499Y-80828848D01*
X82930257Y-80983471D01*
X82930264Y-80983502D01*
X82990598Y-81129165D01*
X82990603Y-81129174D01*
X82990613Y-81129191D01*
X83078211Y-81260290D01*
X83078212Y-81260291D01*
X83078217Y-81260297D01*
X83189701Y-81371781D01*
X83189707Y-81371786D01*
X83189711Y-81371789D01*
X83320814Y-81459390D01*
X83320827Y-81459397D01*
X83466498Y-81519735D01*
X83466503Y-81519737D01*
X83621153Y-81550499D01*
X83621156Y-81550500D01*
X83621158Y-81550500D01*
X83778844Y-81550500D01*
X83778845Y-81550499D01*
X83933497Y-81519737D01*
X84071567Y-81462547D01*
X84072646Y-81462099D01*
X84072670Y-81462097D01*
X84075383Y-81461150D01*
X84076856Y-81460469D01*
X84081515Y-81458427D01*
X84090789Y-81454585D01*
X84099675Y-81445698D01*
X84210289Y-81371789D01*
X84321789Y-81260289D01*
X84409394Y-81129179D01*
X84469737Y-80983497D01*
X84500500Y-80828842D01*
X84500500Y-79918848D01*
X118319499Y-79918848D01*
X118350257Y-80073471D01*
X118350264Y-80073502D01*
X118410598Y-80219165D01*
X118410603Y-80219174D01*
X118410613Y-80219191D01*
X118498211Y-80350290D01*
X118498212Y-80350291D01*
X118498217Y-80350297D01*
X118609701Y-80461781D01*
X118609707Y-80461786D01*
X118609711Y-80461789D01*
X118740814Y-80549390D01*
X118740827Y-80549397D01*
X118886498Y-80609735D01*
X118886503Y-80609737D01*
X119041153Y-80640499D01*
X119041156Y-80640500D01*
X119041158Y-80640500D01*
X119198844Y-80640500D01*
X119198845Y-80640499D01*
X119353497Y-80609737D01*
X119499179Y-80549394D01*
X119499184Y-80549390D01*
X119499187Y-80549389D01*
X119556469Y-80511114D01*
X119578641Y-80496299D01*
X119610469Y-80481071D01*
X119642111Y-80471163D01*
X119679161Y-80465500D01*
X123749189Y-80465500D01*
X123784125Y-80470523D01*
X123800506Y-80475333D01*
X123857517Y-80511113D01*
X123866446Y-80520982D01*
X123882167Y-80543797D01*
X123882399Y-80543656D01*
X123884951Y-80547821D01*
X124009886Y-80719782D01*
X124009890Y-80719786D01*
X124160213Y-80870109D01*
X124332182Y-80995050D01*
X124332190Y-80995054D01*
X124332693Y-80995363D01*
X124334174Y-80996496D01*
X124336122Y-80997912D01*
X124336086Y-80997960D01*
X124353034Y-81010934D01*
X124363315Y-81020643D01*
X124398541Y-81080983D01*
X124395552Y-81150789D01*
X124359383Y-81204507D01*
X124352227Y-81210708D01*
X124335814Y-81222723D01*
X124332190Y-81224943D01*
X124160210Y-81349892D01*
X124009892Y-81500210D01*
X123884949Y-81672182D01*
X123788445Y-81861580D01*
X123722752Y-82063759D01*
X123689500Y-82273707D01*
X123689500Y-82486291D01*
X123722752Y-82696239D01*
X123788445Y-82898418D01*
X123856267Y-83031524D01*
X123884951Y-83087820D01*
X124009890Y-83259786D01*
X124160213Y-83410109D01*
X124332182Y-83535050D01*
X124332190Y-83535054D01*
X124332693Y-83535363D01*
X124334174Y-83536496D01*
X124336122Y-83537912D01*
X124336086Y-83537960D01*
X124353034Y-83550934D01*
X124363315Y-83560643D01*
X124398541Y-83620983D01*
X124395552Y-83690789D01*
X124359383Y-83744507D01*
X124352227Y-83750708D01*
X124335814Y-83762723D01*
X124332190Y-83764943D01*
X124160210Y-83889892D01*
X124009892Y-84040210D01*
X123884949Y-84212182D01*
X123788445Y-84401580D01*
X123722752Y-84603759D01*
X123689500Y-84813707D01*
X123689500Y-85026290D01*
X123706639Y-85134501D01*
X123722753Y-85236243D01*
X123732860Y-85267346D01*
X123736144Y-85277454D01*
X123763350Y-85361185D01*
X123788445Y-85438418D01*
X123881532Y-85621111D01*
X123884951Y-85627820D01*
X124009890Y-85799786D01*
X124009892Y-85799788D01*
X124160216Y-85950112D01*
X124332169Y-86075042D01*
X124332177Y-86075047D01*
X124332179Y-86075048D01*
X124332181Y-86075049D01*
X124332182Y-86075050D01*
X124332200Y-86075060D01*
X124332442Y-86075182D01*
X124521588Y-86171557D01*
X124723757Y-86237246D01*
X124933713Y-86270500D01*
X124933714Y-86270500D01*
X125146286Y-86270500D01*
X125146287Y-86270500D01*
X125356243Y-86237246D01*
X125558412Y-86171557D01*
X125747816Y-86075051D01*
X125769789Y-86059086D01*
X125919786Y-85950109D01*
X125919786Y-85950108D01*
X125919844Y-85950066D01*
X125920605Y-85949290D01*
X126070104Y-85799792D01*
X126070106Y-85799788D01*
X126070109Y-85799786D01*
X126195048Y-85627820D01*
X126195047Y-85627820D01*
X126195051Y-85627816D01*
X126195053Y-85627810D01*
X126215445Y-85599744D01*
X126223730Y-85571529D01*
X126291557Y-85438412D01*
X126357246Y-85236243D01*
X126390500Y-85026287D01*
X126390500Y-84813713D01*
X126357246Y-84603757D01*
X126291557Y-84401588D01*
X126195051Y-84212184D01*
X126195049Y-84212181D01*
X126195048Y-84212179D01*
X126194702Y-84211703D01*
X126194700Y-84211699D01*
X126070112Y-84040216D01*
X125919782Y-83889886D01*
X125747824Y-83764953D01*
X125747258Y-83764606D01*
X125745627Y-83763357D01*
X125743901Y-83762103D01*
X125743932Y-83762059D01*
X125726960Y-83749062D01*
X125716683Y-83739357D01*
X125681457Y-83679017D01*
X125684445Y-83609212D01*
X125720612Y-83555495D01*
X125727783Y-83549281D01*
X125744194Y-83537269D01*
X125747794Y-83535062D01*
X125747816Y-83535051D01*
X125897108Y-83426585D01*
X125919786Y-83410109D01*
X125919788Y-83410106D01*
X125919792Y-83410104D01*
X125919794Y-83410101D01*
X125919847Y-83410063D01*
X125920605Y-83409290D01*
X126070104Y-83259792D01*
X126070106Y-83259788D01*
X126070109Y-83259786D01*
X126090908Y-83231157D01*
X126189460Y-83095513D01*
X126192529Y-83091286D01*
X126195048Y-83087820D01*
X126195047Y-83087820D01*
X126195051Y-83087816D01*
X126291557Y-82898412D01*
X126357246Y-82696243D01*
X126390500Y-82486287D01*
X126390500Y-82273713D01*
X126357246Y-82063757D01*
X126291557Y-81861588D01*
X126195051Y-81672184D01*
X126195049Y-81672181D01*
X126195048Y-81672179D01*
X126194702Y-81671703D01*
X126194700Y-81671699D01*
X126070112Y-81500216D01*
X125919782Y-81349886D01*
X125747824Y-81224953D01*
X125747258Y-81224606D01*
X125745627Y-81223357D01*
X125743901Y-81222103D01*
X125743932Y-81222059D01*
X125726960Y-81209062D01*
X125716683Y-81199357D01*
X125681457Y-81139017D01*
X125684445Y-81069212D01*
X125720613Y-81015493D01*
X125727783Y-81009281D01*
X125744187Y-80997275D01*
X125747816Y-80995051D01*
X125747817Y-80995050D01*
X125769789Y-80979086D01*
X125919786Y-80870109D01*
X125919787Y-80870106D01*
X125919790Y-80870105D01*
X125919792Y-80870104D01*
X125919793Y-80870102D01*
X125919847Y-80870063D01*
X125920605Y-80869290D01*
X126070104Y-80719792D01*
X126070106Y-80719788D01*
X126070109Y-80719786D01*
X126127714Y-80640499D01*
X126193903Y-80549397D01*
X126193906Y-80549399D01*
X126193923Y-80549367D01*
X126195051Y-80547816D01*
X126291557Y-80358412D01*
X126357246Y-80156243D01*
X126390500Y-79946287D01*
X126390500Y-79733713D01*
X126357246Y-79523757D01*
X126291557Y-79321588D01*
X126195051Y-79132184D01*
X126195049Y-79132181D01*
X126195048Y-79132179D01*
X126194702Y-79131703D01*
X126194700Y-79131699D01*
X126070112Y-78960216D01*
X125919788Y-78809892D01*
X125919786Y-78809890D01*
X125747817Y-78684949D01*
X125747812Y-78684946D01*
X125746584Y-78684194D01*
X125726242Y-78668624D01*
X125716127Y-78659071D01*
X125680906Y-78598734D01*
X125683896Y-78528929D01*
X125720066Y-78475210D01*
X125727122Y-78469096D01*
X125743537Y-78457083D01*
X125747542Y-78454628D01*
X125747555Y-78454622D01*
X125769119Y-78438953D01*
X125795858Y-78429412D01*
X125801717Y-78415269D01*
X125296149Y-77909702D01*
X125262664Y-77848379D01*
X125267648Y-77778688D01*
X125309519Y-77722754D01*
X125321822Y-77714639D01*
X125347007Y-77700099D01*
X125440099Y-77607007D01*
X125454634Y-77581830D01*
X125505199Y-77533616D01*
X125573805Y-77520391D01*
X125638671Y-77546358D01*
X125649702Y-77556149D01*
X126155269Y-78061717D01*
X126155269Y-78061716D01*
X126155270Y-78061717D01*
X126155270Y-78061716D01*
X126168738Y-78056137D01*
X126174955Y-78034967D01*
X126178954Y-78029118D01*
X126194621Y-78007555D01*
X126194625Y-78007548D01*
X126291095Y-77818217D01*
X126356757Y-77616130D01*
X126356757Y-77616127D01*
X126390000Y-77406246D01*
X126390000Y-77193753D01*
X126376260Y-77107007D01*
X126358284Y-76993511D01*
X126358283Y-76993505D01*
X126358283Y-76993506D01*
X126356756Y-76983865D01*
X126329473Y-76899898D01*
X126291095Y-76781782D01*
X126194624Y-76592449D01*
X126155270Y-76538282D01*
X126155269Y-76538282D01*
X126155268Y-76538282D01*
X125649702Y-77043849D01*
X125588379Y-77077334D01*
X125518687Y-77072350D01*
X125462754Y-77030478D01*
X125454634Y-77018169D01*
X125440099Y-76992993D01*
X125347007Y-76899901D01*
X125347004Y-76899899D01*
X125347000Y-76899896D01*
X125321828Y-76885363D01*
X125273613Y-76834796D01*
X125260391Y-76766189D01*
X125286359Y-76701324D01*
X125296133Y-76690312D01*
X125827028Y-76159416D01*
X125855272Y-76138274D01*
X125878364Y-76125666D01*
X125934598Y-76111313D01*
X125934576Y-76110900D01*
X125934571Y-76110854D01*
X125934573Y-76110853D01*
X125934564Y-76110676D01*
X125937767Y-76110504D01*
X125937789Y-76110499D01*
X125937871Y-76110499D01*
X125937872Y-76110499D01*
X125997483Y-76104091D01*
X126132331Y-76053796D01*
X126247546Y-75967546D01*
X126333796Y-75852331D01*
X126384091Y-75717483D01*
X126390500Y-75657873D01*
X126390499Y-73862128D01*
X126384091Y-73802517D01*
X126333796Y-73667669D01*
X126333795Y-73667668D01*
X126333793Y-73667664D01*
X126333782Y-73667649D01*
X126331392Y-73663929D01*
X126331391Y-73663928D01*
X126328489Y-73660579D01*
X126247547Y-73552455D01*
X126247544Y-73552452D01*
X126247542Y-73552450D01*
X126189616Y-73509086D01*
X126132335Y-73466206D01*
X126132332Y-73466204D01*
X126132330Y-73466203D01*
X126132328Y-73466202D01*
X125997482Y-73415908D01*
X125997483Y-73415908D01*
X125937883Y-73409501D01*
X125937881Y-73409500D01*
X125937873Y-73409500D01*
X125937864Y-73409500D01*
X125936841Y-73409500D01*
X124142123Y-73409500D01*
X124140192Y-73409659D01*
X124138545Y-73409885D01*
X124082516Y-73415908D01*
X123947666Y-73466204D01*
X123947665Y-73466205D01*
X123832456Y-73552450D01*
X123832450Y-73552456D01*
X123746205Y-73667665D01*
X123746203Y-73667668D01*
X123695908Y-73802516D01*
X123689500Y-73862125D01*
X123689500Y-75657876D01*
X123689659Y-75659806D01*
X123689885Y-75661454D01*
X123695907Y-75717482D01*
X123723690Y-75791971D01*
X123746202Y-75852328D01*
X123746203Y-75852330D01*
X123746204Y-75852332D01*
X123746205Y-75852333D01*
X123832450Y-75967542D01*
X123832452Y-75967544D01*
X123832455Y-75967547D01*
X123947664Y-76053793D01*
X123947671Y-76053797D01*
X123992618Y-76070561D01*
X124082517Y-76104091D01*
X124082516Y-76104091D01*
X124145432Y-76110856D01*
X124145390Y-76111240D01*
X124168905Y-76115260D01*
X124195031Y-76122930D01*
X124247781Y-76154227D01*
X124783850Y-76690296D01*
X124817335Y-76751619D01*
X124812351Y-76821311D01*
X124770479Y-76877244D01*
X124758173Y-76885362D01*
X124732996Y-76899898D01*
X124732990Y-76899903D01*
X124639903Y-76992990D01*
X124639898Y-76992996D01*
X124625362Y-77018173D01*
X124574793Y-77066387D01*
X124506185Y-77079607D01*
X124441322Y-77053637D01*
X124430296Y-77043850D01*
X123924728Y-76538282D01*
X123924727Y-76538282D01*
X123885380Y-76592438D01*
X123788903Y-76781784D01*
X123723242Y-76983865D01*
X123721798Y-76992990D01*
X123690000Y-77193753D01*
X123690000Y-77406246D01*
X123715860Y-77569519D01*
X123721715Y-77606485D01*
X123721716Y-77606493D01*
X123723242Y-77616133D01*
X123757886Y-77722754D01*
X123788904Y-77818217D01*
X123885374Y-78007548D01*
X123885375Y-78007550D01*
X123920674Y-78056137D01*
X123924728Y-78061716D01*
X124430297Y-77556147D01*
X124491619Y-77522663D01*
X124561311Y-77527647D01*
X124617244Y-77569519D01*
X124625363Y-77581828D01*
X124639896Y-77607000D01*
X124639899Y-77607004D01*
X124639901Y-77607007D01*
X124732993Y-77700099D01*
X124758169Y-77714634D01*
X124806384Y-77765202D01*
X124819606Y-77833809D01*
X124793638Y-77898673D01*
X124783849Y-77909702D01*
X124278321Y-78415229D01*
X124278282Y-78415269D01*
X124278282Y-78415270D01*
X124332452Y-78454626D01*
X124332451Y-78454626D01*
X124334115Y-78455474D01*
X124341857Y-78461058D01*
X124344490Y-78464448D01*
X124354450Y-78471469D01*
X124363868Y-78480363D01*
X124399092Y-78540700D01*
X124396104Y-78610505D01*
X124359932Y-78664229D01*
X124352929Y-78670297D01*
X124335944Y-78681776D01*
X124336331Y-78682407D01*
X124332172Y-78684955D01*
X124160216Y-78809886D01*
X124009890Y-78960212D01*
X123884948Y-79132182D01*
X123882405Y-79136334D01*
X123881964Y-79136064D01*
X123866529Y-79157958D01*
X123865259Y-79159760D01*
X123853540Y-79172168D01*
X123795769Y-79206723D01*
X123782922Y-79210198D01*
X123750545Y-79214500D01*
X119680180Y-79214500D01*
X119645245Y-79209477D01*
X119613436Y-79200137D01*
X119579482Y-79184263D01*
X119499184Y-79130609D01*
X119499172Y-79130602D01*
X119499168Y-79130600D01*
X119499160Y-79130596D01*
X119353502Y-79070264D01*
X119353471Y-79070257D01*
X119198847Y-79039500D01*
X119198845Y-79039500D01*
X119198842Y-79039500D01*
X119041158Y-79039500D01*
X119041155Y-79039500D01*
X119041153Y-79039500D01*
X118886527Y-79070257D01*
X118886496Y-79070264D01*
X118740833Y-79130598D01*
X118740824Y-79130603D01*
X118740807Y-79130613D01*
X118609715Y-79218207D01*
X118609707Y-79218212D01*
X118609701Y-79218217D01*
X118498217Y-79329701D01*
X118498212Y-79329707D01*
X118498211Y-79329708D01*
X118410613Y-79460807D01*
X118410603Y-79460824D01*
X118410598Y-79460833D01*
X118350264Y-79606496D01*
X118350257Y-79606527D01*
X118319500Y-79761150D01*
X118319500Y-79761153D01*
X118319500Y-79918846D01*
X118319500Y-79918848D01*
X118319499Y-79918848D01*
X84500500Y-79918848D01*
X84500500Y-71865008D01*
X112349237Y-71865008D01*
X112382376Y-72031602D01*
X112382377Y-72031608D01*
X112382384Y-72031629D01*
X112437065Y-72163644D01*
X112437070Y-72163654D01*
X112516468Y-72282480D01*
X112516469Y-72282481D01*
X112516474Y-72282487D01*
X112617511Y-72383524D01*
X112617517Y-72383529D01*
X112617521Y-72383532D01*
X112736340Y-72462925D01*
X112736346Y-72462928D01*
X112736347Y-72462929D01*
X112863423Y-72515566D01*
X112863949Y-72515790D01*
X112864127Y-72515937D01*
X112867179Y-72517380D01*
X113008539Y-72545500D01*
X113008542Y-72545500D01*
X113008545Y-72545500D01*
X113151457Y-72545500D01*
X113245751Y-72526742D01*
X113291620Y-72517619D01*
X113423653Y-72462929D01*
X113542479Y-72383532D01*
X113643532Y-72282479D01*
X113722929Y-72163653D01*
X113777619Y-72031620D01*
X113805500Y-71891455D01*
X113805500Y-68698545D01*
X113805500Y-68698542D01*
X113805500Y-68698539D01*
X113777410Y-68557329D01*
X113775790Y-68553949D01*
X113775566Y-68553423D01*
X113722929Y-68426347D01*
X113722928Y-68426346D01*
X113722925Y-68426340D01*
X113643532Y-68307521D01*
X113643529Y-68307517D01*
X113643524Y-68307511D01*
X113542487Y-68206474D01*
X113542481Y-68206469D01*
X113542480Y-68206468D01*
X113459464Y-68150998D01*
X113423653Y-68127070D01*
X113423654Y-68127070D01*
X113423644Y-68127065D01*
X113291629Y-68072384D01*
X113291602Y-68072375D01*
X113231368Y-68060394D01*
X113230819Y-68060107D01*
X114430000Y-68060107D01*
X114430000Y-68099892D01*
X114445224Y-68136645D01*
X114473355Y-68164776D01*
X114510109Y-68180000D01*
X114549889Y-68180000D01*
X114549891Y-68180000D01*
X114586645Y-68164776D01*
X114614776Y-68136645D01*
X114630000Y-68099891D01*
X114630000Y-68060109D01*
X114614776Y-68023355D01*
X114586645Y-67995224D01*
X114549892Y-67980000D01*
X114549891Y-67980000D01*
X114510109Y-67980000D01*
X114510107Y-67980000D01*
X114473354Y-67995224D01*
X114445224Y-68023354D01*
X114430000Y-68060107D01*
X113230819Y-68060107D01*
X113169457Y-68028008D01*
X113167879Y-68026458D01*
X113136645Y-67995224D01*
X113099892Y-67980000D01*
X113099891Y-67980000D01*
X113060109Y-67980000D01*
X113060107Y-67980000D01*
X113023354Y-67995224D01*
X113023352Y-67995225D01*
X112992117Y-68026460D01*
X112930793Y-68059944D01*
X112928631Y-68060394D01*
X112868393Y-68072376D01*
X112868369Y-68072384D01*
X112736354Y-68127065D01*
X112736344Y-68127070D01*
X112617518Y-68206468D01*
X112617517Y-68206469D01*
X112617511Y-68206474D01*
X112516474Y-68307511D01*
X112516469Y-68307517D01*
X112516468Y-68307518D01*
X112437070Y-68426344D01*
X112437065Y-68426354D01*
X112382384Y-68558369D01*
X112382377Y-68558389D01*
X112382375Y-68558397D01*
X112354500Y-68698537D01*
X112354500Y-71847088D01*
X112349237Y-71865008D01*
X84500500Y-71865008D01*
X84500500Y-71360768D01*
X84505522Y-71325835D01*
X84512934Y-71300590D01*
X84544228Y-71247848D01*
X87542653Y-68249423D01*
X87570903Y-68228275D01*
X87593995Y-68215667D01*
X87653420Y-68200500D01*
X92862964Y-68200500D01*
X92870814Y-68198118D01*
X93013497Y-68169737D01*
X93159179Y-68109394D01*
X93232942Y-68060107D01*
X111530000Y-68060107D01*
X111530000Y-68099892D01*
X111545224Y-68136645D01*
X111573355Y-68164776D01*
X111610109Y-68180000D01*
X111649889Y-68180000D01*
X111649891Y-68180000D01*
X111686645Y-68164776D01*
X111714776Y-68136645D01*
X111730000Y-68099891D01*
X111730000Y-68060109D01*
X111714776Y-68023355D01*
X111686645Y-67995224D01*
X111649892Y-67980000D01*
X111649891Y-67980000D01*
X111610109Y-67980000D01*
X111610107Y-67980000D01*
X111573354Y-67995224D01*
X111545224Y-68023354D01*
X111530000Y-68060107D01*
X93232942Y-68060107D01*
X93290289Y-68021789D01*
X93316854Y-67995224D01*
X93351864Y-67960215D01*
X93401786Y-67910292D01*
X93401789Y-67910289D01*
X93489394Y-67779179D01*
X93549737Y-67633497D01*
X93580500Y-67478842D01*
X93580500Y-65875008D01*
X107259237Y-65875008D01*
X107292376Y-66041602D01*
X107292377Y-66041608D01*
X107292384Y-66041629D01*
X107347065Y-66173644D01*
X107347070Y-66173654D01*
X107426468Y-66292480D01*
X107426469Y-66292481D01*
X107426474Y-66292487D01*
X107527511Y-66393524D01*
X107527517Y-66393529D01*
X107527518Y-66393530D01*
X107646342Y-66472927D01*
X107646348Y-66472929D01*
X107646349Y-66472930D01*
X107675598Y-66485045D01*
X107772775Y-66525297D01*
X107777179Y-66527380D01*
X107918539Y-66555500D01*
X107918542Y-66555500D01*
X107918545Y-66555500D01*
X111021457Y-66555500D01*
X111115751Y-66536742D01*
X111161620Y-66527619D01*
X111279029Y-66478985D01*
X111282508Y-66477781D01*
X111286642Y-66477583D01*
X111309817Y-66471668D01*
X111330677Y-66469426D01*
X111390372Y-66477741D01*
X111394371Y-66479357D01*
X111396614Y-66480263D01*
X111419076Y-66492144D01*
X111429670Y-66499224D01*
X111462499Y-66505453D01*
X111513206Y-66553521D01*
X111530000Y-66615834D01*
X111530000Y-66649891D01*
X111545224Y-66686645D01*
X111573355Y-66714776D01*
X111610109Y-66730000D01*
X111649889Y-66730000D01*
X111649891Y-66730000D01*
X111686645Y-66714776D01*
X111714776Y-66686645D01*
X111730000Y-66649891D01*
X111730000Y-66610109D01*
X111729999Y-66610107D01*
X112980000Y-66610107D01*
X112980000Y-66610109D01*
X112980000Y-66649891D01*
X112995224Y-66686645D01*
X113023355Y-66714776D01*
X113060109Y-66730000D01*
X113099889Y-66730000D01*
X113099891Y-66730000D01*
X113136645Y-66714776D01*
X113164776Y-66686645D01*
X113180000Y-66649891D01*
X113180000Y-66610109D01*
X114430000Y-66610109D01*
X114430000Y-66649891D01*
X114445224Y-66686645D01*
X114473355Y-66714776D01*
X114510109Y-66730000D01*
X114549889Y-66730000D01*
X114549891Y-66730000D01*
X114564628Y-66723895D01*
X114576317Y-66722638D01*
X114586686Y-66717083D01*
X114610420Y-66718970D01*
X114634093Y-66716424D01*
X114646377Y-66721829D01*
X114656336Y-66722621D01*
X114673570Y-66733793D01*
X114687178Y-66739781D01*
X114693844Y-66744854D01*
X114742519Y-66793529D01*
X114742523Y-66793532D01*
X114861342Y-66872925D01*
X114861348Y-66872928D01*
X114861349Y-66872929D01*
X114987777Y-66925297D01*
X114992181Y-66927380D01*
X115133541Y-66955500D01*
X115133544Y-66955500D01*
X115133547Y-66955500D01*
X118501457Y-66955500D01*
X118595751Y-66936742D01*
X118641620Y-66927619D01*
X118773653Y-66872929D01*
X118892478Y-66793533D01*
X118892481Y-66793531D01*
X118892482Y-66793529D01*
X118993529Y-66692482D01*
X118993532Y-66692479D01*
X119072929Y-66573653D01*
X119127619Y-66441620D01*
X119154580Y-66306082D01*
X119154582Y-66306082D01*
X119154582Y-66306070D01*
X119155500Y-66301457D01*
X119155500Y-66158542D01*
X119155500Y-66158539D01*
X119127410Y-66017329D01*
X119125790Y-66013949D01*
X119125566Y-66013423D01*
X119072929Y-65886347D01*
X119072928Y-65886346D01*
X119072925Y-65886340D01*
X118993532Y-65767521D01*
X118993529Y-65767517D01*
X118993524Y-65767511D01*
X118892487Y-65666474D01*
X118892481Y-65666469D01*
X118892480Y-65666468D01*
X118773653Y-65587070D01*
X118773649Y-65587068D01*
X118773644Y-65587065D01*
X118641629Y-65532384D01*
X118641609Y-65532377D01*
X118641601Y-65532375D01*
X118501460Y-65504500D01*
X118501457Y-65504500D01*
X118501455Y-65504500D01*
X115133547Y-65504500D01*
X115133545Y-65504500D01*
X115133540Y-65504500D01*
X114993399Y-65532375D01*
X114993391Y-65532377D01*
X114993371Y-65532384D01*
X114861356Y-65587065D01*
X114861352Y-65587068D01*
X114861347Y-65587070D01*
X114742520Y-65666468D01*
X114742519Y-65666469D01*
X114742513Y-65666474D01*
X114641476Y-65767511D01*
X114641471Y-65767517D01*
X114641470Y-65767518D01*
X114562072Y-65886344D01*
X114562067Y-65886354D01*
X114507386Y-66018369D01*
X114507379Y-66018389D01*
X114507377Y-66018397D01*
X114479502Y-66158537D01*
X114479502Y-66257088D01*
X114474239Y-66275009D01*
X114505994Y-66434648D01*
X114503662Y-66460703D01*
X114505178Y-66486824D01*
X114500171Y-66499713D01*
X114499767Y-66504239D01*
X114496446Y-66509306D01*
X114492400Y-66519724D01*
X114479450Y-66542699D01*
X114473355Y-66545224D01*
X114445224Y-66573355D01*
X114430000Y-66610109D01*
X113180000Y-66610109D01*
X113164776Y-66573355D01*
X113136645Y-66545224D01*
X113130163Y-66542539D01*
X113099892Y-66530000D01*
X113099891Y-66530000D01*
X113060109Y-66530000D01*
X113060107Y-66530000D01*
X113023354Y-66545224D01*
X112995224Y-66573354D01*
X112980000Y-66610107D01*
X111729999Y-66610107D01*
X111714776Y-66573355D01*
X111686645Y-66545224D01*
X111680163Y-66542539D01*
X111649892Y-66530000D01*
X111649891Y-66530000D01*
X111625306Y-66530000D01*
X111558267Y-66510315D01*
X111512512Y-66457511D01*
X111506820Y-66442566D01*
X111496693Y-66409750D01*
X111496700Y-66409744D01*
X111496061Y-66407703D01*
X111495584Y-66373050D01*
X111494959Y-66338355D01*
X111498050Y-66327080D01*
X111514531Y-66290982D01*
X111592929Y-66173653D01*
X111592932Y-66173646D01*
X111621366Y-66105001D01*
X111621366Y-66105000D01*
X111626038Y-66093722D01*
X111626038Y-66093719D01*
X111647619Y-66041620D01*
X111658322Y-65987813D01*
X111675500Y-65901457D01*
X111675500Y-65758539D01*
X111647410Y-65617329D01*
X111645790Y-65613949D01*
X111645566Y-65613423D01*
X111592929Y-65486347D01*
X111592928Y-65486346D01*
X111592925Y-65486340D01*
X111586369Y-65476529D01*
X111581012Y-65468510D01*
X111560135Y-65401832D01*
X111578621Y-65334452D01*
X111630600Y-65287763D01*
X111638762Y-65285048D01*
X111638607Y-65284674D01*
X111649890Y-65280000D01*
X111649891Y-65280000D01*
X111686645Y-65264776D01*
X111714776Y-65236645D01*
X111730000Y-65199891D01*
X111730000Y-65160109D01*
X111729999Y-65160107D01*
X112980000Y-65160107D01*
X112980000Y-65199892D01*
X112995224Y-65236645D01*
X113023355Y-65264776D01*
X113060109Y-65280000D01*
X113099889Y-65280000D01*
X113099891Y-65280000D01*
X113136645Y-65264776D01*
X113164776Y-65236645D01*
X113180000Y-65199891D01*
X113180000Y-65160109D01*
X113164776Y-65123355D01*
X113136645Y-65095224D01*
X113099892Y-65080000D01*
X113099891Y-65080000D01*
X113060109Y-65080000D01*
X113060107Y-65080000D01*
X113023354Y-65095224D01*
X112995224Y-65123354D01*
X112980000Y-65160107D01*
X111729999Y-65160107D01*
X111714776Y-65123355D01*
X111686645Y-65095224D01*
X111649892Y-65080000D01*
X111649891Y-65080000D01*
X111610109Y-65080000D01*
X111610107Y-65080000D01*
X111573354Y-65095224D01*
X111545224Y-65123354D01*
X111527839Y-65165324D01*
X111483996Y-65219726D01*
X111417702Y-65241789D01*
X111350003Y-65224508D01*
X111344388Y-65220970D01*
X111293653Y-65187070D01*
X111293654Y-65187070D01*
X111293644Y-65187065D01*
X111161629Y-65132384D01*
X111161609Y-65132377D01*
X111161601Y-65132375D01*
X111021460Y-65104500D01*
X111021457Y-65104500D01*
X111021455Y-65104500D01*
X107918545Y-65104500D01*
X107918543Y-65104500D01*
X107918538Y-65104500D01*
X107778397Y-65132375D01*
X107778389Y-65132377D01*
X107778369Y-65132384D01*
X107646354Y-65187065D01*
X107646344Y-65187070D01*
X107527518Y-65266468D01*
X107527517Y-65266469D01*
X107527511Y-65266474D01*
X107426474Y-65367511D01*
X107426469Y-65367517D01*
X107426468Y-65367518D01*
X107347070Y-65486344D01*
X107347065Y-65486354D01*
X107292384Y-65618369D01*
X107292377Y-65618389D01*
X107292375Y-65618397D01*
X107264500Y-65758537D01*
X107264500Y-65857088D01*
X107259237Y-65875008D01*
X93580500Y-65875008D01*
X93580500Y-64545008D01*
X113589237Y-64545008D01*
X113622376Y-64711602D01*
X113622377Y-64711608D01*
X113622384Y-64711629D01*
X113677065Y-64843644D01*
X113677070Y-64843654D01*
X113756468Y-64962480D01*
X113756469Y-64962481D01*
X113756474Y-64962487D01*
X113857511Y-65063524D01*
X113857517Y-65063529D01*
X113857521Y-65063532D01*
X113976340Y-65142925D01*
X113976346Y-65142928D01*
X113976347Y-65142929D01*
X114103423Y-65195566D01*
X114103949Y-65195790D01*
X114104127Y-65195937D01*
X114107175Y-65197378D01*
X114108374Y-65197616D01*
X114108380Y-65197619D01*
X114108384Y-65197619D01*
X114108385Y-65197620D01*
X114225769Y-65220970D01*
X114248541Y-65225500D01*
X114382717Y-65225500D01*
X114449756Y-65245185D01*
X114470398Y-65261819D01*
X114473355Y-65264776D01*
X114510109Y-65280000D01*
X114549889Y-65280000D01*
X114549891Y-65280000D01*
X114586645Y-65264776D01*
X114614776Y-65236645D01*
X114630000Y-65199891D01*
X114630000Y-65199890D01*
X114634674Y-65188607D01*
X114638513Y-65190197D01*
X114660267Y-65148602D01*
X114680611Y-65131597D01*
X114782479Y-65063532D01*
X114883532Y-64962479D01*
X114962929Y-64843653D01*
X115017619Y-64711620D01*
X115045355Y-64572184D01*
X115045500Y-64571457D01*
X115045500Y-60098539D01*
X115017410Y-59957329D01*
X115015790Y-59953949D01*
X115015566Y-59953423D01*
X114962929Y-59826347D01*
X114962928Y-59826346D01*
X114962925Y-59826340D01*
X114883532Y-59707521D01*
X114883529Y-59707517D01*
X114883524Y-59707511D01*
X114782487Y-59606474D01*
X114782481Y-59606469D01*
X114782480Y-59606468D01*
X114663653Y-59527070D01*
X114663654Y-59527070D01*
X114663644Y-59527065D01*
X114531629Y-59472384D01*
X114531609Y-59472377D01*
X114531601Y-59472375D01*
X114391460Y-59444500D01*
X114391457Y-59444500D01*
X114391455Y-59444500D01*
X114248545Y-59444500D01*
X114248543Y-59444500D01*
X114248538Y-59444500D01*
X114108397Y-59472375D01*
X114108389Y-59472377D01*
X114108369Y-59472384D01*
X113976354Y-59527065D01*
X113976344Y-59527070D01*
X113857518Y-59606468D01*
X113857517Y-59606469D01*
X113857511Y-59606474D01*
X113756474Y-59707511D01*
X113756469Y-59707517D01*
X113756468Y-59707518D01*
X113677070Y-59826344D01*
X113677065Y-59826354D01*
X113622384Y-59958369D01*
X113622377Y-59958389D01*
X113622375Y-59958397D01*
X113594500Y-60098537D01*
X113594500Y-64527088D01*
X113589237Y-64545008D01*
X93580500Y-64545008D01*
X93580500Y-62601158D01*
X93580500Y-62601155D01*
X93580500Y-62600973D01*
X93580065Y-62598972D01*
X93550397Y-62449824D01*
X93549994Y-62447467D01*
X93549738Y-62446508D01*
X93549737Y-62446506D01*
X93549737Y-62446503D01*
X93549735Y-62446498D01*
X93489397Y-62300827D01*
X93489390Y-62300814D01*
X93401790Y-62169712D01*
X93401789Y-62169711D01*
X93290289Y-62058211D01*
X89579421Y-58347343D01*
X89558274Y-58319092D01*
X89545667Y-58296003D01*
X89530500Y-58236578D01*
X89530500Y-56822329D01*
X89535523Y-56787393D01*
X89539927Y-56772395D01*
X89577672Y-56713644D01*
X89579041Y-56712457D01*
X89633920Y-56684977D01*
X89641479Y-56683333D01*
X89667832Y-56680500D01*
X101052964Y-56680500D01*
X101060814Y-56678118D01*
X101203497Y-56649737D01*
X101349179Y-56589394D01*
X101480289Y-56501789D01*
X101591789Y-56390289D01*
X101679394Y-56259179D01*
X101739737Y-56113497D01*
X101770500Y-55958842D01*
X101770500Y-55801158D01*
X101770500Y-55801155D01*
X101770500Y-55800973D01*
X101770065Y-55798972D01*
X101740398Y-55649830D01*
X101739983Y-55647403D01*
X101739737Y-55646504D01*
X101707590Y-55568892D01*
X101679402Y-55500840D01*
X101679397Y-55500827D01*
X101679390Y-55500814D01*
X101591789Y-55369711D01*
X101591786Y-55369707D01*
X101591781Y-55369701D01*
X101480297Y-55258217D01*
X101480291Y-55258212D01*
X101480290Y-55258211D01*
X101349191Y-55170613D01*
X101349190Y-55170612D01*
X101349185Y-55170609D01*
X101349172Y-55170602D01*
X101349165Y-55170598D01*
X101203502Y-55110264D01*
X101203471Y-55110257D01*
X101048847Y-55079500D01*
X101048845Y-55079500D01*
X101048842Y-55079500D01*
X88808842Y-55079500D01*
X83310770Y-55079500D01*
X83310769Y-55079499D01*
X83310769Y-55079500D01*
X83275834Y-55074477D01*
X83250592Y-55067065D01*
X83197847Y-55035769D01*
X82270296Y-54108216D01*
X82270291Y-54108212D01*
X82270290Y-54108211D01*
X82139191Y-54020613D01*
X82139190Y-54020612D01*
X82139185Y-54020609D01*
X82139172Y-54020602D01*
X82139165Y-54020598D01*
X81993502Y-53960264D01*
X81993471Y-53960257D01*
X81838847Y-53929500D01*
X81838845Y-53929500D01*
X81838842Y-53929500D01*
X81681158Y-53929500D01*
X81681155Y-53929500D01*
X81681153Y-53929500D01*
X81526527Y-53960257D01*
X81526496Y-53960264D01*
X81380833Y-54020598D01*
X81380824Y-54020603D01*
X81380807Y-54020613D01*
X81249708Y-54108211D01*
X81249707Y-54108212D01*
X81249701Y-54108217D01*
X81138217Y-54219701D01*
X81138212Y-54219707D01*
X81138211Y-54219708D01*
X81050613Y-54350807D01*
X81050603Y-54350824D01*
X81050598Y-54350833D01*
X80990264Y-54496496D01*
X80990257Y-54496527D01*
X80959500Y-54651150D01*
X80959500Y-54651153D01*
X80959500Y-54808846D01*
X80959500Y-54808848D01*
X80959499Y-54808848D01*
X73000500Y-54808848D01*
X73000500Y-50324001D01*
X119494500Y-50324001D01*
X119494500Y-57676002D01*
X119497396Y-57730035D01*
X119497396Y-57730036D01*
X119532976Y-57869440D01*
X119532978Y-57869447D01*
X119554653Y-57921774D01*
X119606445Y-58016625D01*
X119704490Y-58121931D01*
X119828223Y-58195345D01*
X119828226Y-58195346D01*
X119828229Y-58195348D01*
X119880555Y-58217022D01*
X119931584Y-58235024D01*
X120074000Y-58255500D01*
X120074003Y-58255500D01*
X125426000Y-58255500D01*
X125426002Y-58255500D01*
X125431499Y-58255205D01*
X125480034Y-58252604D01*
X125619445Y-58217022D01*
X125671771Y-58195348D01*
X125766625Y-58143554D01*
X125871930Y-58045511D01*
X125945348Y-57921771D01*
X125967022Y-57869445D01*
X125985024Y-57818416D01*
X126005500Y-57676000D01*
X126005500Y-50324000D01*
X126002604Y-50269966D01*
X125967022Y-50130555D01*
X125967018Y-50130546D01*
X125945346Y-50078225D01*
X125893554Y-49983374D01*
X125795509Y-49878068D01*
X125671776Y-49804654D01*
X125619453Y-49782981D01*
X125619447Y-49782979D01*
X125619445Y-49782978D01*
X125568416Y-49764976D01*
X125568414Y-49764975D01*
X125568412Y-49764975D01*
X125483477Y-49752763D01*
X125426000Y-49744500D01*
X125425998Y-49744500D01*
X120073998Y-49744500D01*
X120019964Y-49747396D01*
X120019963Y-49747396D01*
X119880559Y-49782976D01*
X119880552Y-49782978D01*
X119828225Y-49804653D01*
X119733374Y-49856445D01*
X119628068Y-49954490D01*
X119554654Y-50078223D01*
X119532981Y-50130546D01*
X119514975Y-50181587D01*
X119502269Y-50269963D01*
X119494501Y-50323997D01*
X119494500Y-50324001D01*
X73000500Y-50324001D01*
X73000500Y-44813296D01*
X73949500Y-44813296D01*
X73949500Y-45186703D01*
X73984296Y-45540000D01*
X73986100Y-45558317D01*
X73986102Y-45558332D01*
X74014816Y-45702682D01*
X74039808Y-45828324D01*
X74058951Y-45924560D01*
X74076346Y-45981902D01*
X74076346Y-45981903D01*
X74167346Y-46281894D01*
X74167347Y-46281895D01*
X74310243Y-46626876D01*
X74310250Y-46626890D01*
X74486264Y-46956192D01*
X74486273Y-46956207D01*
X74693726Y-47266681D01*
X74693736Y-47266695D01*
X74930627Y-47555348D01*
X75194650Y-47819371D01*
X75194655Y-47819375D01*
X75194656Y-47819376D01*
X75483309Y-48056267D01*
X75483315Y-48056271D01*
X75793796Y-48263729D01*
X76123117Y-48439754D01*
X76468106Y-48582653D01*
X76825440Y-48691049D01*
X77191678Y-48763899D01*
X77563293Y-48800500D01*
X77563296Y-48800500D01*
X77936704Y-48800500D01*
X77936707Y-48800500D01*
X78308322Y-48763899D01*
X78674560Y-48691049D01*
X79031894Y-48582653D01*
X79376883Y-48439754D01*
X79706204Y-48263729D01*
X80016685Y-48056271D01*
X80305338Y-47819381D01*
X80569381Y-47555338D01*
X80806271Y-47266685D01*
X81013729Y-46956204D01*
X81189754Y-46626883D01*
X81332653Y-46281894D01*
X81441049Y-45924560D01*
X81513899Y-45558322D01*
X81516414Y-45532787D01*
X81521960Y-45476484D01*
X81550500Y-45186703D01*
X81550500Y-45017459D01*
X115299000Y-45017459D01*
X115299000Y-45040000D01*
X115401000Y-45040000D01*
X115468039Y-45059685D01*
X115513794Y-45112489D01*
X115525000Y-45164000D01*
X115525000Y-45416000D01*
X115505315Y-45483039D01*
X115452511Y-45528794D01*
X115401000Y-45540000D01*
X115299000Y-45540000D01*
X115299000Y-45562540D01*
X115335729Y-45699618D01*
X115336550Y-45702682D01*
X115336551Y-45702684D01*
X115409083Y-45828310D01*
X115409092Y-45828324D01*
X115409096Y-45828329D01*
X115511669Y-45930902D01*
X115511674Y-45930906D01*
X115511675Y-45930907D01*
X115511681Y-45930911D01*
X115600000Y-45981903D01*
X115600000Y-45981902D01*
X115600000Y-45921076D01*
X115619685Y-45854037D01*
X115672489Y-45808282D01*
X115741647Y-45798338D01*
X115756084Y-45801299D01*
X115807213Y-45815000D01*
X115892786Y-45815000D01*
X115892787Y-45815000D01*
X115943906Y-45801302D01*
X116013754Y-45802963D01*
X116071617Y-45842124D01*
X116099123Y-45906352D01*
X116100000Y-45921076D01*
X116100000Y-45981902D01*
X116188313Y-45930914D01*
X116188314Y-45930913D01*
X116188318Y-45930911D01*
X116188324Y-45930907D01*
X116290907Y-45828324D01*
X116290909Y-45828321D01*
X116363450Y-45702679D01*
X116398896Y-45570385D01*
X116401000Y-45564190D01*
X116401000Y-45540000D01*
X116299000Y-45540000D01*
X116231961Y-45520315D01*
X116186206Y-45467511D01*
X116175000Y-45416000D01*
X116175000Y-45164000D01*
X116194685Y-45096961D01*
X116247489Y-45051206D01*
X116299000Y-45040000D01*
X116401000Y-45040000D01*
X116401000Y-45022041D01*
X116401000Y-45017461D01*
X116400999Y-45017459D01*
X120139000Y-45017459D01*
X120139000Y-45040000D01*
X120241000Y-45040000D01*
X120308039Y-45059685D01*
X120353794Y-45112489D01*
X120365000Y-45164000D01*
X120365000Y-45416000D01*
X120345315Y-45483039D01*
X120292511Y-45528794D01*
X120241000Y-45540000D01*
X120139000Y-45540000D01*
X120139000Y-45562540D01*
X120175729Y-45699618D01*
X120176550Y-45702682D01*
X120176551Y-45702684D01*
X120249083Y-45828310D01*
X120249092Y-45828324D01*
X120249096Y-45828329D01*
X120351669Y-45930902D01*
X120351674Y-45930906D01*
X120351675Y-45930907D01*
X120351681Y-45930911D01*
X120440000Y-45981903D01*
X120440000Y-45981902D01*
X120440000Y-45921076D01*
X120459685Y-45854037D01*
X120512489Y-45808282D01*
X120581647Y-45798338D01*
X120596084Y-45801299D01*
X120647213Y-45815000D01*
X120732786Y-45815000D01*
X120732787Y-45815000D01*
X120783906Y-45801302D01*
X120853754Y-45802963D01*
X120911617Y-45842124D01*
X120939123Y-45906352D01*
X120940000Y-45921076D01*
X120940000Y-45981902D01*
X121028313Y-45930914D01*
X121028314Y-45930913D01*
X121028318Y-45930911D01*
X121028324Y-45930907D01*
X121130907Y-45828324D01*
X121130909Y-45828321D01*
X121203450Y-45702679D01*
X121238896Y-45570385D01*
X121241000Y-45564190D01*
X121241000Y-45540000D01*
X121139000Y-45540000D01*
X121071961Y-45520315D01*
X121026206Y-45467511D01*
X121015000Y-45416000D01*
X121015000Y-45164000D01*
X121034685Y-45096961D01*
X121087489Y-45051206D01*
X121139000Y-45040000D01*
X121241000Y-45040000D01*
X121241000Y-45017459D01*
X121238773Y-45008029D01*
X121237748Y-45005327D01*
X121203450Y-44877320D01*
X121203447Y-44877314D01*
X121130913Y-44751684D01*
X121130911Y-44751681D01*
X121130909Y-44751678D01*
X121108745Y-44729514D01*
X121028326Y-44649093D01*
X121028317Y-44649086D01*
X120940001Y-44598095D01*
X120940000Y-44598096D01*
X120940000Y-44658923D01*
X120920315Y-44725962D01*
X120867511Y-44771717D01*
X120798353Y-44781661D01*
X120783908Y-44778698D01*
X120732787Y-44765000D01*
X120732785Y-44765000D01*
X120647215Y-44765000D01*
X120647213Y-44765000D01*
X120596093Y-44778697D01*
X120526244Y-44777035D01*
X120468382Y-44737873D01*
X120440877Y-44673645D01*
X120440000Y-44658923D01*
X120440000Y-44598096D01*
X120351672Y-44649093D01*
X120249093Y-44751674D01*
X120249085Y-44751684D01*
X120176551Y-44877314D01*
X120176550Y-44877316D01*
X120143177Y-45001868D01*
X120139000Y-45017459D01*
X116400999Y-45017459D01*
X116363450Y-44877320D01*
X116363447Y-44877314D01*
X116290913Y-44751684D01*
X116290911Y-44751681D01*
X116290909Y-44751678D01*
X116268745Y-44729514D01*
X116188326Y-44649093D01*
X116188317Y-44649086D01*
X116100001Y-44598095D01*
X116100000Y-44598096D01*
X116100000Y-44658923D01*
X116080315Y-44725962D01*
X116027511Y-44771717D01*
X115958353Y-44781661D01*
X115943908Y-44778698D01*
X115892787Y-44765000D01*
X115892785Y-44765000D01*
X115807215Y-44765000D01*
X115807213Y-44765000D01*
X115756093Y-44778697D01*
X115686244Y-44777035D01*
X115628382Y-44737873D01*
X115600877Y-44673645D01*
X115600000Y-44658923D01*
X115600000Y-44598096D01*
X115511672Y-44649093D01*
X115409093Y-44751674D01*
X115409085Y-44751684D01*
X115336551Y-44877314D01*
X115336550Y-44877316D01*
X115303177Y-45001868D01*
X115299000Y-45017459D01*
X81550500Y-45017459D01*
X81550500Y-44813296D01*
X81545743Y-44765000D01*
X81513899Y-44441678D01*
X81441049Y-44075440D01*
X81332653Y-43718106D01*
X81189754Y-43373117D01*
X81013729Y-43043796D01*
X80806271Y-42733315D01*
X80806267Y-42733309D01*
X80684828Y-42585335D01*
X80569376Y-42444656D01*
X80569375Y-42444655D01*
X80569371Y-42444650D01*
X80305349Y-42180628D01*
X80291404Y-42169184D01*
X80291403Y-42169183D01*
X80133991Y-42039998D01*
X114865673Y-42039998D01*
X114865674Y-42039999D01*
X114865675Y-42040000D01*
X115066000Y-42040000D01*
X115133039Y-42059685D01*
X115178794Y-42112489D01*
X115190000Y-42164000D01*
X115190000Y-42416000D01*
X115170315Y-42483039D01*
X115117511Y-42528794D01*
X115066000Y-42540000D01*
X114865674Y-42540000D01*
X114889972Y-42662155D01*
X114889980Y-42662189D01*
X114940926Y-42785185D01*
X114940934Y-42785203D01*
X114940943Y-42785218D01*
X115014916Y-42895926D01*
X115014917Y-42895927D01*
X115014922Y-42895933D01*
X115109066Y-42990077D01*
X115109071Y-42990081D01*
X115109079Y-42990087D01*
X115219783Y-43064057D01*
X115219786Y-43064058D01*
X115219788Y-43064060D01*
X115219796Y-43064065D01*
X115219801Y-43064067D01*
X115289996Y-43093143D01*
X115289997Y-43093143D01*
X115289999Y-43093144D01*
X115290000Y-43093144D01*
X115290000Y-43093143D01*
X115290000Y-42996958D01*
X115309685Y-42929919D01*
X115362489Y-42884164D01*
X115431647Y-42874220D01*
X115446082Y-42877181D01*
X115493922Y-42890000D01*
X115586076Y-42890000D01*
X115586078Y-42890000D01*
X115633907Y-42877184D01*
X115703755Y-42878845D01*
X115761618Y-42918007D01*
X115789123Y-42982235D01*
X115790000Y-42996958D01*
X115790000Y-43093143D01*
X115790000Y-43093144D01*
X115860198Y-43064067D01*
X115860216Y-43064057D01*
X115970920Y-42990087D01*
X115970928Y-42990081D01*
X116065081Y-42895928D01*
X116065084Y-42895924D01*
X116139060Y-42785212D01*
X116139067Y-42785199D01*
X116190020Y-42662185D01*
X116190023Y-42662173D01*
X116214325Y-42540000D01*
X116014000Y-42540000D01*
X115946961Y-42520315D01*
X115901206Y-42467511D01*
X115890000Y-42416000D01*
X115890000Y-42164000D01*
X115909685Y-42096961D01*
X115962489Y-42051206D01*
X116014000Y-42040000D01*
X116214325Y-42040000D01*
X116214325Y-42039998D01*
X120325673Y-42039998D01*
X120325674Y-42039999D01*
X120325675Y-42040000D01*
X120526000Y-42040000D01*
X120593039Y-42059685D01*
X120638794Y-42112489D01*
X120650000Y-42164000D01*
X120650000Y-42416000D01*
X120630315Y-42483039D01*
X120577511Y-42528794D01*
X120526000Y-42540000D01*
X120325674Y-42540000D01*
X120349972Y-42662155D01*
X120349980Y-42662189D01*
X120400926Y-42785185D01*
X120400934Y-42785203D01*
X120400943Y-42785218D01*
X120474916Y-42895926D01*
X120474917Y-42895927D01*
X120474922Y-42895933D01*
X120569066Y-42990077D01*
X120569071Y-42990081D01*
X120569079Y-42990087D01*
X120679783Y-43064057D01*
X120679786Y-43064058D01*
X120679788Y-43064060D01*
X120679796Y-43064065D01*
X120679801Y-43064067D01*
X120749996Y-43093143D01*
X120749997Y-43093143D01*
X120749999Y-43093144D01*
X120750000Y-43093144D01*
X120750000Y-43093143D01*
X120750000Y-42996958D01*
X120769685Y-42929919D01*
X120822489Y-42884164D01*
X120891647Y-42874220D01*
X120906082Y-42877181D01*
X120953922Y-42890000D01*
X121046076Y-42890000D01*
X121046078Y-42890000D01*
X121093907Y-42877184D01*
X121163755Y-42878845D01*
X121221618Y-42918007D01*
X121249123Y-42982235D01*
X121250000Y-42996958D01*
X121250000Y-43093143D01*
X121250000Y-43093144D01*
X121320198Y-43064067D01*
X121320216Y-43064057D01*
X121430920Y-42990087D01*
X121430928Y-42990081D01*
X121525081Y-42895928D01*
X121525084Y-42895924D01*
X121599060Y-42785212D01*
X121599067Y-42785199D01*
X121650020Y-42662185D01*
X121650023Y-42662173D01*
X121674325Y-42540000D01*
X121474000Y-42540000D01*
X121406961Y-42520315D01*
X121361206Y-42467511D01*
X121350000Y-42416000D01*
X121350000Y-42164000D01*
X121369685Y-42096961D01*
X121422489Y-42051206D01*
X121474000Y-42040000D01*
X121674325Y-42040000D01*
X121674325Y-42039996D01*
X121650026Y-41917843D01*
X121650023Y-41917826D01*
X121650020Y-41917814D01*
X121599067Y-41794800D01*
X121599060Y-41794787D01*
X121525084Y-41684075D01*
X121525081Y-41684071D01*
X121525076Y-41684065D01*
X121430931Y-41589920D01*
X121320200Y-41515932D01*
X121250000Y-41486855D01*
X121250000Y-41583041D01*
X121230315Y-41650080D01*
X121177511Y-41695835D01*
X121108353Y-41705779D01*
X121093911Y-41702816D01*
X121046078Y-41690000D01*
X121046077Y-41690000D01*
X120953922Y-41690000D01*
X120906092Y-41702815D01*
X120836243Y-41701153D01*
X120778381Y-41661990D01*
X120750877Y-41597762D01*
X120750000Y-41583041D01*
X120750000Y-41486855D01*
X120749999Y-41486855D01*
X120679798Y-41515933D01*
X120569067Y-41589920D01*
X120474922Y-41684065D01*
X120474917Y-41684071D01*
X120474916Y-41684072D01*
X120400943Y-41794780D01*
X120400934Y-41794795D01*
X120400926Y-41794813D01*
X120349980Y-41917809D01*
X120349972Y-41917843D01*
X120325673Y-42039998D01*
X116214325Y-42039998D01*
X116214325Y-42039996D01*
X116190026Y-41917843D01*
X116190023Y-41917826D01*
X116190020Y-41917814D01*
X116139067Y-41794800D01*
X116139060Y-41794787D01*
X116065084Y-41684075D01*
X116065081Y-41684071D01*
X116065076Y-41684065D01*
X115970931Y-41589920D01*
X115860200Y-41515932D01*
X115790000Y-41486855D01*
X115790000Y-41583041D01*
X115770315Y-41650080D01*
X115717511Y-41695835D01*
X115648353Y-41705779D01*
X115633911Y-41702816D01*
X115586078Y-41690000D01*
X115586077Y-41690000D01*
X115493922Y-41690000D01*
X115446092Y-41702815D01*
X115376243Y-41701153D01*
X115318381Y-41661990D01*
X115290877Y-41597762D01*
X115290000Y-41583041D01*
X115290000Y-41486855D01*
X115289999Y-41486855D01*
X115219798Y-41515933D01*
X115109067Y-41589920D01*
X115014922Y-41684065D01*
X115014917Y-41684071D01*
X115014916Y-41684072D01*
X114940943Y-41794780D01*
X114940934Y-41794795D01*
X114940926Y-41794813D01*
X114889980Y-41917809D01*
X114889972Y-41917843D01*
X114865673Y-42039998D01*
X80133991Y-42039998D01*
X80016695Y-41943736D01*
X80016694Y-41943735D01*
X80016690Y-41943732D01*
X79706210Y-41736275D01*
X79706209Y-41736274D01*
X79706204Y-41736271D01*
X79706199Y-41736268D01*
X79706192Y-41736264D01*
X79378388Y-41561050D01*
X79377378Y-41560492D01*
X79376890Y-41560249D01*
X79376849Y-41560231D01*
X79031899Y-41417348D01*
X78945268Y-41391069D01*
X78822119Y-41353712D01*
X78822118Y-41353711D01*
X78679169Y-41310348D01*
X78679148Y-41310342D01*
X78674560Y-41308951D01*
X78674557Y-41308950D01*
X78674556Y-41308950D01*
X78669515Y-41307947D01*
X78669494Y-41307942D01*
X78308337Y-41236103D01*
X78308326Y-41236101D01*
X78308324Y-41236101D01*
X78308311Y-41236099D01*
X78027293Y-41208422D01*
X77936707Y-41199500D01*
X77936704Y-41199500D01*
X77563296Y-41199500D01*
X77563293Y-41199500D01*
X77545537Y-41201248D01*
X77479513Y-41207750D01*
X77479514Y-41207751D01*
X77191688Y-41236099D01*
X77191679Y-41236100D01*
X77191666Y-41236102D01*
X76825446Y-41308949D01*
X76468102Y-41417347D01*
X76230094Y-41515934D01*
X76123123Y-41560243D01*
X76123109Y-41560250D01*
X75966784Y-41643806D01*
X75793806Y-41736264D01*
X75793791Y-41736273D01*
X75483317Y-41943726D01*
X75483303Y-41943736D01*
X75194650Y-42180627D01*
X74930627Y-42444650D01*
X74693736Y-42733303D01*
X74693728Y-42733315D01*
X74486273Y-43043791D01*
X74486264Y-43043806D01*
X74310243Y-43373123D01*
X74167347Y-43718102D01*
X74058949Y-44075446D01*
X73986102Y-44441666D01*
X73986100Y-44441679D01*
X73986099Y-44441688D01*
X73965672Y-44649091D01*
X73957751Y-44729516D01*
X73954288Y-44764672D01*
X73954264Y-44764920D01*
X73954257Y-44765000D01*
X73949500Y-44813296D01*
X73000500Y-44813296D01*
X73000500Y-40642329D01*
X73005523Y-40607393D01*
X73009927Y-40592395D01*
X73047672Y-40533644D01*
X73047700Y-40533619D01*
X73047699Y-40533619D01*
X73049041Y-40532456D01*
X73103920Y-40504977D01*
X73111479Y-40503333D01*
X73137832Y-40500500D01*
X131857670Y-40500500D01*
X131892606Y-40505523D01*
G37*
%TD.AperFunction*%
%TD*%
M02*
