M48
; DRILL file KiCad 10.0.4 date 2026-09-20T08:38:32
; FORMAT={-:-/ absolute / metric / decimal}
; #@! TF.CreationDate,2026-09-20T08:38:32+05:30
; #@! TF.GenerationSoftware,Kicad,Pcbnew,10.0.4
; #@! TF.FileFunction,Plated,1,2,PTH
FMAT,2
METRIC
; #@! TA.AperFunction,Plated,PTH,ComponentDrill
T1C0.200
; #@! TA.AperFunction,Plated,PTH,ViaDrill
T2C0.250
; #@! TA.AperFunction,Plated,PTH,ViaDrill
T3C0.300
; #@! TA.AperFunction,Plated,PTH,ComponentDrill
T4C0.650
; #@! TA.AperFunction,Plated,PTH,ComponentDrill
T5C0.700
; #@! TA.AperFunction,Plated,PTH,ComponentDrill
T6C1.000
; #@! TA.AperFunction,Plated,PTH,ComponentDrill
T7C3.200
%
G90
G05
T1
X101.182Y-92.615
X101.182Y-93.915
X101.182Y-95.215
X101.182Y-96.515
X102.483Y-92.615
X102.483Y-93.915
X102.483Y-95.215
X102.483Y-96.515
X111.63Y-65.18
X111.63Y-66.63
X111.63Y-68.08
X113.08Y-65.18
X113.08Y-66.63
X113.08Y-68.08
X114.53Y-65.18
X114.53Y-66.63
X114.53Y-68.08
T2
X107.99Y-65.83
X110.95Y-65.83
X113.08Y-68.77
X113.08Y-71.82
X114.32Y-60.17
X114.32Y-64.5
X115.205Y-66.23
X118.43Y-66.23
T3
X73.64Y-52.48
X74.09Y-58.39
X74.16Y-41.59
X74.51Y-62.27
X77.62Y-75.82
X80.0Y-75.67
X81.15Y-96.8
X81.53Y-41.46
X81.76Y-54.73
X82.29Y-64.78
X82.38Y-76.53
X82.91Y-87.26
X83.35Y-98.64
X83.7Y-70.96
X83.7Y-80.75
X84.96Y-67.01
X85.21Y-85.61
X85.69Y-74.72
X86.59Y-78.11
X88.2Y-76.36
X88.28Y-68.8
X88.73Y-55.88
X91.59Y-74.11
X92.77Y-62.67
X92.78Y-67.4
X92.84Y-86.23
X95.4Y-82.7
X96.65Y-78.54
X96.82Y-98.37
X97.33Y-92.1
X100.78Y-87.68
X100.94Y-62.54
X100.97Y-55.88
X101.22Y-81.83
X101.28Y-98.23
X101.44Y-70.25
X102.06Y-76.57
X103.46Y-65.85
X104.71Y-83.1
X106.69Y-72.64
X107.3Y-54.82
X111.59Y-82.17
X116.26Y-53.12
X118.29Y-53.69
X118.69Y-51.22
X118.83Y-59.24
X119.12Y-79.84
X121.0Y-51.0
X121.0Y-57.0
X122.0Y-51.0
X122.0Y-57.0
X123.25Y-51.0
X123.25Y-52.0
X123.25Y-53.0
X123.25Y-55.0
X123.25Y-56.0
X123.25Y-57.0
X123.92Y-42.37
X124.25Y-51.0
X124.25Y-52.0
X124.25Y-53.0
X124.25Y-55.0
X124.25Y-56.0
X124.25Y-57.0
X124.6Y-98.84
X125.54Y-59.91
X126.32Y-89.67
X126.34Y-69.91
X126.83Y-62.98
X129.04Y-45.43
X129.06Y-70.88
X130.45Y-65.68
X130.76Y-42.54
X131.44Y-98.89
T6
X74.79Y-83.945
X74.79Y-86.485
X74.81Y-71.51
X74.81Y-74.05
X74.81Y-77.715
X74.81Y-80.255
X74.83Y-65.28
X74.83Y-67.82
X75.75Y-97.5
X78.29Y-97.5
X125.04Y-74.76
X125.04Y-77.3
X125.04Y-79.84
X125.04Y-82.38
X125.04Y-84.92
T7
X77.75Y-45.0
X127.5Y-95.0
T4
G00X115.85Y-45.09
M15
G01X115.85Y-45.49
M16
G05
G00X120.69Y-45.09
M15
G01X120.69Y-45.49
M16
G05
T5
G00X115.54Y-42.04
M15
G01X115.54Y-42.54
M16
G05
G00X121.0Y-42.04
M15
G01X121.0Y-42.54
M16
G05
M30
